<svg width="25" height="25" viewBox="0 0 25 25" fill="none" xmlns="http://www.w3.org/2000/svg">
<path d="M11.061 2.8968C11.4147 2.54288 11.888 2.33462 12.3874 2.31313C12.8868 2.29163 13.3762 2.45845 13.7588 2.78067L13.8867 2.8978L15.7852 4.79894H18.4691C18.9731 4.79904 19.4584 4.98993 19.8279 5.33338C20.1974 5.67683 20.4237 6.14748 20.4615 6.65103L20.4675 6.8012V9.49022L22.366 11.3924C22.7195 11.7468 22.9275 12.2212 22.949 12.7218C22.9704 13.2224 22.8038 13.7129 22.4819 14.0964L22.365 14.2235L20.4665 16.1257V18.8147C20.4666 19.3199 20.2762 19.8064 19.9334 20.1768C19.5906 20.5472 19.1207 20.7741 18.618 20.812L18.4691 20.817H15.7862L13.8877 22.7191C13.534 23.0733 13.0605 23.2817 12.5609 23.3032C12.0612 23.3247 11.5717 23.1577 11.1889 22.8352L11.062 22.7191L9.16353 20.817H6.47868C5.97451 20.8171 5.48891 20.6263 5.11922 20.2829C4.74954 19.9394 4.52309 19.4686 4.48528 18.9649L4.48028 18.8147V16.1257L2.5818 14.2235C2.22828 13.8691 2.02025 13.3947 1.99879 12.8941C1.97733 12.3935 2.144 11.903 2.46589 11.5195L2.5818 11.3924L4.48028 9.49022V6.8012C4.48037 6.29622 4.6709 5.80993 5.01369 5.43975C5.35648 5.06956 5.82622 4.84282 6.3288 4.80495L6.47868 4.79894H9.16253L11.061 2.8968ZM12.4739 4.3144L10.5754 6.21654C10.2435 6.54856 9.80561 6.75304 9.33839 6.79419L9.16253 6.8012H6.47868V9.49022C6.4788 9.96064 6.3136 10.4161 6.01205 10.7767L5.89315 10.9068L3.99467 12.809L5.89315 14.7101C6.2249 15.0425 6.42935 15.4812 6.47069 15.9495L6.47868 16.1257V18.8147H9.16253C9.63205 18.8146 10.0866 18.9801 10.4465 19.2822L10.5764 19.4014L12.4739 21.3035L14.3724 19.4014C14.7041 19.069 15.142 18.8641 15.6094 18.8227L15.7852 18.8147H18.4691V16.1257C18.469 15.6553 18.6342 15.1998 18.9357 14.8392L19.0546 14.7091L20.9531 12.808L19.0546 10.9058C18.7229 10.5734 18.5184 10.1347 18.4771 9.66642L18.4691 9.49022V6.8012H15.7852C15.3157 6.80132 14.8611 6.6358 14.5013 6.33367L14.3714 6.21454L12.4729 4.3124L12.4739 4.3144ZM15.5514 9.78856C15.7312 9.60901 15.9725 9.50476 16.2263 9.497C16.48 9.48924 16.7272 9.57853 16.9176 9.74676C17.108 9.91498 17.2274 10.1495 17.2515 10.4027C17.2755 10.6559 17.2025 10.9088 17.0472 11.11L16.9633 11.2041L12.0872 16.0896C11.8968 16.2806 11.6431 16.3949 11.3741 16.4108C11.1052 16.4267 10.8398 16.343 10.6284 16.1757L10.5324 16.0906L8.13036 13.6839C7.94925 13.5042 7.84356 13.2619 7.83491 13.0066C7.82627 12.7514 7.91533 12.5024 8.08386 12.3108C8.25239 12.1192 8.48766 11.9993 8.74149 11.9758C8.99533 11.9523 9.24854 12.0269 9.4493 12.1843L9.54323 12.2673L11.3098 14.0373L15.5504 9.78856H15.5514Z" fill="white"/>
</svg>
