<svg width="126" height="78" viewBox="0 0 126 78" fill="none" xmlns="http://www.w3.org/2000/svg">
<g clip-path="url(#clip0_55_729)">
<path d="M50.1831 32.0423C49.2587 31.9021 48.4255 31.7958 47.5988 31.645C40.9657 30.438 35.5194 25.2682 34.2045 18.7915C33.3409 14.5396 33.9463 10.515 36.715 6.98345C39.041 4.01709 42.1786 2.2938 45.8586 1.45872C47.5402 1.07624 49.2457 0.878625 50.975 0.88075C57.6125 0.88925 64.25 0.88925 70.8853 0.87225C71.367 0.87225 71.4842 0.997619 71.4669 1.45235C71.43 2.37455 71.4365 3.29888 71.4647 4.22321C71.4755 4.60144 71.3605 4.70131 70.9743 4.70131C65.5085 4.68856 60.0427 4.68856 54.5769 4.69069C53.1622 4.69069 51.7432 4.65031 50.3328 4.72043C47.0021 4.88618 43.8711 5.66389 41.2846 7.8759C39.0866 9.75643 37.891 12.1151 37.7543 15.0007C37.4289 21.8811 42.8903 26.9468 48.4472 27.9413C49.5885 28.1453 50.7299 28.2345 51.8886 28.2345C58.2158 28.2303 64.5451 28.2366 70.8723 28.2218C71.3345 28.2218 71.4712 28.3195 71.469 28.7912C71.4473 32.7393 71.4582 36.6895 71.4582 40.6375V41.0965L71.5385 41.1177C71.9507 40.1764 72.3673 39.2372 72.7774 38.2959C78.1347 26.0013 83.492 13.7066 88.8406 1.40772C89.0077 1.02524 89.19 0.855251 89.65 0.87225C90.7869 0.914748 91.9261 0.887125 93.1369 0.887125C92.8526 1.55434 92.5923 2.18119 92.321 2.80165C85.4514 18.5769 78.5795 34.3521 71.7185 50.1316C71.5428 50.5374 71.3258 50.6713 70.8853 50.6543C69.9436 50.6203 68.9976 50.6245 68.0559 50.6543C67.6415 50.667 67.5416 50.5289 67.5416 50.1379C67.5525 44.3263 67.5503 38.5148 67.5503 32.7032C67.5503 32.2768 67.3304 32.0629 66.8907 32.0615C63.215 32.0615 59.5372 32.0657 55.8615 32.0529C55.5013 32.0529 55.2605 32.1592 55.0261 32.4227C51.6325 36.2199 48.2302 40.0107 44.8301 43.8015C42.899 45.954 40.9635 48.1023 39.0389 50.2612C38.7958 50.5332 38.5442 50.6607 38.1623 50.6543C36.7801 50.6309 35.3979 50.6458 34.0136 50.6437C33.8899 50.6437 33.7163 50.6989 33.6599 50.5587C33.6056 50.4248 33.7662 50.344 33.8487 50.2527C38.3554 45.2315 42.8664 40.2104 47.3731 35.1893C48.2953 34.163 49.2131 33.1345 50.1852 32.0466L50.1831 32.0423Z" fill="#D44AB5"/>
<path d="M19.222 64.7211C19.2285 66.0003 18.1566 67.0649 16.8503 67.0755C15.5116 67.0882 14.444 66.0385 14.4462 64.719C14.4483 63.4122 15.4899 62.3986 16.8286 62.4028C18.1566 62.405 19.2154 63.4292 19.222 64.7211Z" fill="white"/>
<path d="M16.9415 57.9277C13.0727 57.8831 9.90692 60.8983 9.87221 64.6552C9.83966 68.4523 12.8883 71.4824 16.7831 71.5207C20.6584 71.5611 23.7352 68.5735 23.7699 64.7401C23.8025 61.0492 20.7148 57.9681 16.9415 57.9277ZM16.7679 70.5369C13.4741 70.5177 10.8617 67.9232 10.8682 64.6806C10.8747 61.4954 13.5869 58.8776 16.859 58.9009C20.1572 58.9243 22.787 61.5252 22.7653 64.7486C22.7458 68.0231 20.1203 70.556 16.7679 70.5369Z" fill="white"/>
<path d="M89.3137 63.8435C90.225 63.8435 91.1363 63.8627 92.0455 63.835C92.4165 63.8244 92.512 63.9498 92.5337 64.2876C92.7463 67.4984 90.5418 70.2883 87.3001 70.8961C83.9542 71.5229 80.7754 69.5106 79.927 66.2319C79.0938 63.0169 80.9403 59.7149 84.1733 58.7544C86.4516 58.0766 88.5412 58.5185 90.3704 60.0315C90.5266 60.1611 90.8651 60.2886 90.5201 60.5712C90.2966 60.7539 90.1772 61.0918 89.7606 60.7221C88.0443 59.2049 85.5186 58.9244 83.5441 59.9784C81.409 61.1173 80.3588 63.2592 80.7233 65.7304C81.0206 67.7427 82.8541 69.5531 85.0521 69.9993C88.27 70.6517 91.3923 68.3271 91.6071 65.1312C91.6288 64.8146 91.5204 64.7572 91.2339 64.7594C89.689 64.77 88.1441 64.7509 86.597 64.7742C86.2 64.7806 86.1066 64.6552 86.1066 64.2855C86.1066 63.9243 86.2152 63.8265 86.5797 63.8372C87.4888 63.8627 88.4023 63.8457 89.3115 63.8457L89.3137 63.8435Z" fill="white"/>
<path d="M5.94043 66.9352C5.54769 66.4954 5.63665 66.217 6.21166 66.0385C6.30496 66.0088 6.39827 65.9812 6.4894 65.9472C8.22743 65.3352 9.29063 63.6501 9.07148 61.8546C8.88054 60.2907 7.56779 59.1411 5.69524 58.9584C4.07438 58.799 2.44702 58.9138 0.821826 58.8968C0.40522 58.8925 0.290219 59.1624 0.292388 59.5385C0.301068 61.2575 0.296732 62.9766 0.296732 64.6935C0.296732 66.4104 0.29673 68.1953 0.29456 69.9462C0.29456 70.1821 0.316256 70.4052 0.563616 70.5072C0.735032 70.5773 0.912955 70.5709 1.06267 70.4328C1.22758 70.2841 1.21022 70.0886 1.21239 69.8995C1.21239 68.8816 1.2189 67.8617 1.21022 66.8439C1.20588 66.4061 1.39032 66.2 1.85249 66.217C2.35589 66.234 2.86579 66.2616 3.36485 66.2106C3.89863 66.1554 4.23496 66.3743 4.56477 66.7525C5.59543 67.9403 6.66081 69.1005 7.70667 70.2756C7.90846 70.5008 8.14064 70.6665 8.41838 70.471C8.74385 70.2416 8.65489 69.9632 8.41838 69.6976C7.5895 68.7796 6.76279 67.8596 5.9426 66.9352H5.94043ZM4.45628 65.3118C3.59486 65.3139 2.73127 65.3182 1.86985 65.3118C1.33391 65.3076 1.2189 65.1886 1.21456 64.6552C1.20805 63.9391 1.21239 63.223 1.21239 62.5048V60.4033C1.21239 60.1122 1.27315 59.8232 1.63768 59.8232C3.01986 59.819 4.41071 59.6936 5.77986 59.8827C7.24232 60.0846 8.13629 61.0195 8.19053 62.2243C8.24912 63.5503 7.30308 64.8018 5.95562 65.1779C5.46307 65.3161 4.95968 65.3118 4.45628 65.3118Z" fill="white"/>
<path d="M75.3487 66.9585C74.828 66.3763 74.867 66.2509 75.6417 66.0299C77.46 65.5136 78.6338 63.8243 78.4733 61.9586C78.3366 60.3543 77 59.1453 75.0927 58.9583C73.4566 58.7989 71.8098 58.9222 70.1694 58.8924C69.7766 58.8839 69.6855 59.1049 69.6877 59.447C69.6963 61.1979 69.692 62.951 69.692 64.7019C69.692 66.4528 69.6942 68.2037 69.6877 69.9546C69.6877 70.2903 69.7094 70.5581 70.165 70.5517C70.6055 70.5475 70.6033 70.2712 70.6033 69.9695C70.6012 68.9177 70.612 67.8658 70.5968 66.8161C70.5925 66.4018 70.7205 66.1957 71.1827 66.2148C71.8163 66.2403 72.452 66.2318 73.0856 66.2148C73.3547 66.2084 73.5413 66.2934 73.7149 66.4932C74.2313 67.0881 74.7629 67.6682 75.2902 68.2526C75.9129 68.9474 76.5335 69.6401 77.1584 70.3328C77.4122 70.6176 77.7551 70.6558 78.0198 70.437C78.317 70.1905 78.0415 69.9567 77.8614 69.757C77.0238 68.822 76.1863 67.8892 75.3487 66.9585ZM73.6736 65.3117C72.8925 65.3138 72.1114 65.3138 71.3324 65.3117C70.6424 65.3117 70.6033 65.2756 70.6033 64.6211C70.6012 63.9369 70.6033 63.2527 70.6033 62.5685V60.3246C70.6033 60.0696 70.638 59.8146 70.97 59.8167C72.3674 59.8252 73.7735 59.6956 75.16 59.8784C76.6203 60.0717 77.512 61.0003 77.5836 62.2094C77.6596 63.5183 76.707 64.7911 75.3661 65.1736C74.8106 65.333 74.2399 65.3096 73.6736 65.3117Z" fill="white"/>
<path d="M111.075 66.8885C110.747 66.5166 110.84 66.2149 111.305 66.0555C111.442 66.0088 111.587 65.9811 111.724 65.9301C113.371 65.3288 114.473 63.614 114.26 61.9885C114.034 60.2822 112.798 59.1517 110.908 58.9605C109.367 58.8032 107.82 58.918 106.277 58.8925C105.568 58.8819 105.479 58.9754 105.479 59.6511C105.477 61.3382 105.479 63.0254 105.479 64.7126V69.9653C105.477 70.2862 105.555 70.5518 105.952 70.539C106.312 70.5263 106.395 70.2819 106.395 69.9759C106.39 69.1642 106.395 68.3525 106.392 67.5408C106.386 66.1108 106.308 66.2977 107.727 66.1936C108.855 66.1129 109.606 66.4635 110.279 67.3347C111.079 68.3738 112.017 69.3108 112.902 70.2862C113.219 70.6368 113.611 70.6262 113.768 70.2819C113.88 70.0312 113.739 69.8591 113.585 69.6869C112.748 68.7541 111.906 67.8277 111.075 66.8885ZM109.569 65.3118C108.723 65.3139 107.879 65.3054 107.032 65.316C106.583 65.3224 106.375 65.146 106.388 64.6913C106.405 63.9752 106.392 63.2591 106.392 62.5409C106.395 61.81 106.395 61.0769 106.392 60.3438C106.392 60.0527 106.497 59.8211 106.822 59.8211C108.189 59.8168 109.562 59.7042 110.916 59.8742C112.388 60.0569 113.295 60.9876 113.349 62.1861C113.414 63.5757 112.498 64.7997 111.118 65.18C110.608 65.3224 110.09 65.3097 109.569 65.3118Z" fill="white"/>
<path d="M29.0164 58.4655C30.0948 58.4655 31.1168 58.678 32.0216 59.273C32.7984 59.7851 33.2997 60.4842 33.3865 61.4234C33.3995 61.5615 33.4776 61.791 33.1977 61.7421C32.959 61.6996 32.5684 61.9333 32.4968 61.5785C32.1779 59.9827 30.9476 59.5768 29.5697 59.3898C28.6042 59.2581 27.6538 59.4068 26.788 59.8786C25.9939 60.312 25.5143 60.9453 25.5664 61.8845C25.6163 62.779 26.1805 63.2933 26.9486 63.6247C27.9163 64.0455 28.96 64.2325 29.9733 64.5087C30.5679 64.6702 31.158 64.8444 31.7157 65.1037C33.6729 66.0153 34.0222 68.4886 32.397 69.9038C30.7197 71.3636 27.3327 71.3679 25.6532 69.9123C25.0695 69.4066 24.7267 68.7776 24.6486 68.0127C24.6312 67.8448 24.6074 67.6557 24.8591 67.7003C25.0977 67.7407 25.4883 67.5048 25.5534 67.883C25.8051 69.3237 26.89 69.7933 28.1398 70.0164C29.1444 70.1949 30.1512 70.1057 31.0908 69.6616C31.95 69.2557 32.486 68.6055 32.4751 67.6472C32.4643 66.7037 31.8589 66.1491 31.0235 65.8028C30.0189 65.3842 28.9427 65.2035 27.9011 64.9039C27.3717 64.7509 26.8444 64.5937 26.3454 64.3621C24.284 63.4038 24.0041 60.7901 25.8116 59.4153C26.621 58.8012 27.7493 58.4655 29.0121 58.4634L29.0164 58.4655Z" fill="white"/>
<path d="M60.7219 64.7444C60.7219 63.0254 60.7219 61.3064 60.7219 59.5852C60.7219 59.0391 60.8565 58.8989 61.4011 58.8989C63.4516 58.8946 65.4999 58.8989 67.5503 58.8989C67.8975 58.8989 68.2425 58.9286 68.2317 59.377C68.2208 59.7913 67.8932 59.8189 67.5634 59.8189C65.8232 59.8189 64.083 59.8189 62.3428 59.8189C61.7439 59.8189 61.6571 59.9018 61.655 60.4777C61.6506 61.3701 61.6528 62.2604 61.655 63.1529C61.655 63.7649 61.7439 63.8499 62.358 63.8499C63.8703 63.8499 65.3827 63.8499 66.8972 63.8499C67.0274 63.8499 67.1641 63.835 67.2856 63.8711C67.5091 63.9349 67.6458 64.1006 67.6285 64.3343C67.6133 64.5405 67.4939 64.6956 67.2704 64.7296C67.1272 64.7508 66.9797 64.7551 66.8343 64.7551C65.3371 64.7551 63.8421 64.7551 62.3449 64.7572C61.7613 64.7572 61.6614 64.8571 61.6593 65.4244C61.6549 66.6186 61.6549 67.8128 61.6593 69.007C61.6593 69.5658 61.77 69.6678 62.3515 69.6678C64.0266 69.6678 65.7017 69.6678 67.3789 69.6678C67.4918 69.6678 67.6068 69.6678 67.7196 69.6678C68.0234 69.6636 68.2339 69.7847 68.2404 70.1034C68.2469 70.4222 68.0407 70.5497 67.7348 70.5497C65.5715 70.5497 63.4082 70.5497 61.2449 70.5497C60.8 70.5497 60.7241 70.267 60.7241 69.9079C60.7284 68.1889 60.7263 66.4699 60.7263 64.7487L60.7219 64.7444Z" fill="white"/>
<path d="M45.3943 69.6955C43.7691 66.2553 42.1396 62.8151 40.5144 59.3749C40.4146 59.1646 40.3104 58.9712 40.0327 58.9712C39.755 58.9712 39.6508 59.1773 39.5532 59.3834C37.928 62.8236 36.3028 66.266 34.6754 69.7062C34.5409 69.9888 34.4584 70.2735 34.8164 70.4371C35.1853 70.6071 35.3828 70.3819 35.526 70.0716C35.9491 69.1622 36.3917 68.2612 36.7997 67.3454C36.9602 66.9884 37.1837 66.8503 37.583 66.8567C38.9326 66.8758 40.2822 66.8503 41.6319 66.8673C43.3677 66.8907 42.8817 66.5953 43.6411 68.1359C43.9709 68.8073 44.2855 69.4852 44.6045 70.163C44.7217 70.4095 44.8974 70.5391 45.1839 70.469C45.4052 70.418 45.5093 70.2756 45.5093 69.9909C45.4876 69.9314 45.4486 69.8103 45.3943 69.6955ZM41.8445 66.0407C41.2456 66.0492 40.6446 66.0428 40.0435 66.0428C39.4425 66.0428 38.8436 66.0492 38.2448 66.0407C37.7305 66.0343 37.5591 65.79 37.7674 65.3416C38.3684 64.0454 38.9868 62.7556 39.5922 61.4616C39.6877 61.2576 39.8135 61.1025 40.0544 61.1088C40.2757 61.1131 40.3972 61.2661 40.4818 61.4488C41.0916 62.7408 41.7078 64.0306 42.3088 65.3268C42.5171 65.7772 42.3436 66.0343 41.8445 66.0407Z" fill="white"/>
<path d="M125.906 69.8251C125.869 69.7209 125.812 69.6232 125.765 69.5233C124.187 66.1851 122.61 62.8469 121.03 59.5108C120.917 59.2728 120.841 58.9754 120.488 58.9754C120.134 58.9732 120.062 59.2643 119.947 59.5066C118.485 62.6004 117.022 65.6921 115.562 68.786C115.391 69.1451 115.208 69.5 115.063 69.8697C114.931 70.2033 115.15 70.4987 115.49 70.4817C115.764 70.4689 115.87 70.2798 115.968 70.0673C116.38 69.1897 116.827 68.3249 117.205 67.4324C117.4 66.9692 117.684 66.8353 118.17 66.8438C119.568 66.8693 120.969 66.9097 122.362 66.8332C123.228 66.7843 123.692 67.0563 123.981 67.8553C124.272 68.6585 124.695 69.415 125.068 70.1905C125.2 70.4647 125.433 70.556 125.713 70.4307C125.99 70.3095 125.997 70.0715 125.906 69.8251ZM122.293 66.0385C121.692 66.047 121.091 66.0406 120.49 66.0406C119.889 66.0406 119.285 66.047 118.687 66.0385C118.188 66.03 118.01 65.7644 118.216 65.3224C118.815 64.039 119.431 62.764 120.03 61.4827C120.125 61.2766 120.247 61.1172 120.485 61.113C120.726 61.1109 120.848 61.2766 120.943 61.4785C121.546 62.7598 122.161 64.0347 122.759 65.3182C122.966 65.758 122.783 66.03 122.293 66.0385Z" fill="white"/>
<path d="M103.943 69.6635C102.328 66.253 100.712 62.8468 99.0995 59.4385C98.9954 59.2154 98.8977 58.988 98.6026 58.9817C98.2793 58.9732 98.1817 59.2196 98.071 59.4576C97.2921 61.1129 96.5088 62.7682 95.7276 64.4214C94.8966 66.1765 94.0655 67.9317 93.2323 69.6848C93.087 69.9907 93.0284 70.2818 93.4189 70.437C93.7422 70.5623 93.9332 70.3711 94.0612 70.0949C94.4995 69.1578 94.9508 68.2271 95.3783 67.2857C95.5237 66.9649 95.7385 66.8353 96.0922 66.8374C97.7673 66.848 99.4424 66.8459 101.115 66.8395C101.447 66.8374 101.664 66.9543 101.797 67.2602C101.979 67.6831 102.187 68.0953 102.385 68.5139C102.649 69.0749 102.91 69.638 103.181 70.1969C103.292 70.4285 103.489 70.5198 103.743 70.4497C103.958 70.3902 104.058 70.2372 104.06 69.9737C104.032 69.8972 103.997 69.7761 103.943 69.6635ZM100.36 66.0363C99.7592 66.0448 99.156 66.0384 98.5549 66.0363C97.9712 66.0363 97.3854 66.0448 96.7995 66.0363C96.3026 66.0278 96.1225 65.7622 96.3287 65.3181C96.921 64.0325 97.5308 62.7533 98.1318 61.472C98.2251 61.2702 98.3553 61.1193 98.6026 61.1257C98.8522 61.1321 98.9672 61.2957 99.0605 61.4954C99.6572 62.7618 100.26 64.0262 100.848 65.2947C101.068 65.7664 100.89 66.0299 100.36 66.0384V66.0363Z" fill="white"/>
<path d="M49.6689 59.5214C49.6624 59.2813 49.7448 59.1347 49.9336 59.0625C50.1332 58.9881 50.3285 59.0072 50.4565 59.1878C50.5477 59.3153 50.6084 59.4662 50.6713 59.6128C51.8365 62.2817 52.9996 64.9505 54.1604 67.6194C54.2689 67.8659 54.334 68.1506 54.6964 68.1506C55.0609 68.1506 55.1238 67.8531 55.2301 67.613C56.3953 64.9442 57.5562 62.2753 58.7192 59.6043C58.7518 59.5321 58.7843 59.4598 58.8147 59.3854C58.934 59.0858 59.1488 58.9371 59.4613 59.071C59.7824 59.2069 59.7781 59.4641 59.6522 59.7509C58.9991 61.2362 58.3525 62.7258 57.7059 64.2132C56.8814 66.1107 56.0612 68.0083 55.2323 69.9037C55.126 70.1459 55.0565 70.4349 54.692 70.4349C54.3318 70.4349 54.2646 70.1502 54.1561 69.9037C52.7066 66.5782 51.2572 63.2528 49.8121 59.9252C49.7492 59.7828 49.6493 59.6447 49.6689 59.5193V59.5214Z" fill="white"/>
<path d="M69.2081 76.5609C69.5357 75.9255 69.8091 75.4028 70.0716 74.8759C70.1498 74.7186 70.2409 74.5996 70.4384 74.6442C70.6575 74.6931 70.5685 74.8737 70.5685 74.9948C70.5772 75.6472 70.5772 76.2995 70.5685 76.9519C70.5685 77.073 70.6597 77.2919 70.4384 77.294C70.1736 77.2982 70.2886 77.0581 70.2865 76.9285C70.2734 76.3888 70.28 75.8469 70.1953 75.2668C69.9567 75.7343 69.7266 76.2039 69.4771 76.665C69.4077 76.7946 69.3968 77.0199 69.1929 77.005C69.0063 76.9922 68.9889 76.7776 68.9195 76.6438C68.683 76.1933 68.4617 75.7364 68.1362 75.2902C68.1362 75.8448 68.1427 76.4015 68.1318 76.9561C68.1297 77.0772 68.223 77.2876 67.9973 77.2961C67.7651 77.3067 67.8476 77.0921 67.8454 76.9731C67.8367 76.3059 67.8367 75.6366 67.8454 74.9693C67.8454 74.8482 67.763 74.6676 68.0038 74.6421C68.1861 74.6209 68.2642 74.7207 68.3336 74.861C68.6048 75.3964 68.8826 75.9298 69.2081 76.563V76.5609Z" fill="white"/>
<path d="M77.1931 77.5002C77.0976 77.2792 76.9565 77.5045 76.848 77.5491C76.592 77.6575 76.362 77.581 76.2513 77.3834C76.1038 77.1241 76.4336 77.1624 76.5443 77.0795C77.0542 76.7013 77.256 76.0404 77.0086 75.4582C76.7526 74.8632 76.0908 74.5254 75.455 74.6656C74.8258 74.8037 74.381 75.3456 74.3788 76.0893C74.3983 76.5313 74.6457 76.9796 75.1773 77.1772C75.5418 77.3111 75.8912 77.4195 76.1711 77.7042C76.3663 77.904 76.6397 77.9103 76.9001 77.7977C77.039 77.7382 77.2777 77.6936 77.1931 77.5002ZM75.748 77.0391C75.1513 77.037 74.6674 76.5547 74.6739 75.9682C74.6804 75.3753 75.1621 74.9206 75.774 74.927C76.349 74.9312 76.8155 75.3966 76.8198 75.9682C76.8242 76.5589 76.3425 77.0413 75.748 77.0391Z" fill="white"/>
<path d="M7.90849 76.7926C7.90849 76.0787 7.90632 75.4964 7.91066 74.9142C7.91066 74.8144 7.86292 74.6677 8.03434 74.6529C8.24915 74.6359 8.19708 74.808 8.19925 74.9206C8.20359 75.6197 8.20359 76.3188 8.19925 77.02C8.19925 77.1177 8.25783 77.258 8.1016 77.3005C7.95406 77.343 7.86076 77.258 7.7783 77.1475C7.35302 76.5865 6.9234 76.0277 6.49377 75.4667C6.44603 75.403 6.39178 75.3435 6.25074 75.1713C6.25074 75.7748 6.25074 76.2657 6.25074 76.7586C6.25074 76.8861 6.25075 77.0136 6.24858 77.1411C6.24641 77.224 6.22688 77.2984 6.12055 77.3047C5.98386 77.3154 5.96216 77.224 5.96216 77.122C5.96216 76.3592 5.96216 75.5963 5.96216 74.8314C5.96216 74.7549 5.95999 74.6677 6.06631 74.6465C6.21603 74.6167 6.30499 74.6996 6.38961 74.808C6.80622 75.3562 7.225 75.9044 7.64377 76.4505C7.70236 76.527 7.76311 76.6014 7.91283 76.7905L7.90849 76.7926Z" fill="white"/>
<path d="M118.498 75.1522C118.498 75.8875 118.498 76.4718 118.498 77.0562C118.498 77.1581 118.53 77.3048 118.357 77.3026C118.146 77.3005 118.211 77.1263 118.209 77.0158C118.203 76.3316 118.203 75.6474 118.209 74.9653C118.209 74.8548 118.131 74.6933 118.322 74.6486C118.472 74.6125 118.559 74.7124 118.641 74.8186C119.066 75.3796 119.496 75.9385 119.926 76.4994C119.973 76.5611 120.025 76.6206 120.158 76.7842C120.158 76.1148 120.151 75.556 120.162 74.9971C120.164 74.876 120.071 74.6656 120.294 74.655C120.527 74.6444 120.444 74.8569 120.446 74.978C120.455 75.6304 120.455 76.2827 120.446 76.9329C120.446 77.0583 120.54 77.2431 120.34 77.3005C120.143 77.3579 120.058 77.1858 119.962 77.0604C119.505 76.4654 119.049 75.8683 118.5 75.1501L118.498 75.1522Z" fill="white"/>
<path d="M57.5909 76.8053C57.5909 76.0913 57.5866 75.524 57.5953 74.9545C57.5953 74.844 57.5258 74.6698 57.7255 74.6528C57.9403 74.6336 57.8817 74.8142 57.8839 74.9269C57.8904 75.6259 57.8882 76.325 57.8839 77.0263C57.8839 77.124 57.9403 77.2642 57.7797 77.3046C57.6322 77.3407 57.541 77.2536 57.4586 77.1431C56.9834 76.5184 56.506 75.8979 55.9354 75.1542C55.9354 75.8406 55.9419 76.3994 55.931 76.9561C55.9289 77.0773 56.0222 77.2876 55.7965 77.2961C55.5665 77.3046 55.6468 77.0921 55.6468 76.9731C55.6381 76.3208 55.6381 75.6685 55.6468 75.0182C55.6468 74.8929 55.5535 74.7122 55.7553 74.6528C55.9289 74.6018 56.0156 74.7399 56.1046 74.8546C56.5711 75.4645 57.0376 76.0764 57.5953 76.8074L57.5909 76.8053Z" fill="white"/>
<path d="M65.1071 76.7627C65.1071 76.0658 65.1071 75.4772 65.1071 74.8907C65.1071 74.7866 65.0768 74.6464 65.2525 74.6464C65.4283 74.6464 65.3957 74.7887 65.3957 74.8928C65.4001 75.5919 65.4022 76.2931 65.3957 76.9922C65.3957 77.1006 65.476 77.2642 65.2786 77.3046C65.1245 77.3365 65.0421 77.2345 64.9618 77.1282C64.5452 76.58 64.1264 76.0318 63.7076 75.4857C63.6512 75.4113 63.5883 75.3433 63.4472 75.1797C63.4472 75.8639 63.4516 76.4398 63.4451 77.0177C63.4451 77.1282 63.508 77.3088 63.2953 77.3003C63.0935 77.2918 63.1608 77.1155 63.1586 77.005C63.1521 76.3208 63.1521 75.6366 63.1586 74.9545C63.1586 74.8461 63.0784 74.6825 63.2823 74.6464C63.4364 74.6187 63.5167 74.7228 63.5969 74.827C64.0331 75.4007 64.4714 75.9744 64.9097 76.546C64.9466 76.5928 64.99 76.6353 65.1093 76.7627H65.1071Z" fill="white"/>
<path d="M21.8539 75.8386C21.7042 74.9334 21.1813 74.4914 19.7405 74.6593C19.0267 74.7443 19.6103 75.3903 19.4324 75.7366C19.3999 75.8004 19.4259 75.8939 19.4259 75.9725C19.4259 76.9556 19.836 77.4011 20.6562 77.3091C20.6714 77.3069 20.6887 77.3069 20.7039 77.3027C21.4243 77.1964 21.9711 76.5441 21.8539 75.8386ZM21.5675 76.1297C21.4938 76.6227 21.088 76.9924 20.5803 77.0264C20.4848 77.0328 20.3871 77.0264 20.2179 77.0264C19.7753 77.1561 19.6668 76.9053 19.7145 76.4676C19.7427 76.2169 19.708 75.9597 19.7232 75.7069C19.7384 75.4583 19.593 75.0928 19.7948 74.9865C20.092 74.8272 20.4913 74.8803 20.8363 74.9738C21.331 75.1098 21.6435 75.6304 21.5675 76.1297Z" fill="white"/>
<path d="M13.2896 76.2698C13.678 76.0148 13.7453 75.6302 13.6107 75.2159C13.4805 74.8143 13.1377 74.6719 12.7428 74.6443C12.4694 74.6252 12.1917 74.6506 11.9161 74.6358C11.6796 74.6209 11.6101 74.7165 11.6145 74.9375C11.6253 75.6196 11.6145 76.3017 11.6232 76.9859C11.6232 77.1028 11.5364 77.3131 11.7837 77.2983C11.979 77.2834 11.9226 77.0964 11.9052 76.9944C11.8185 76.5014 12.0593 76.4228 12.4998 76.4398C12.8122 76.4526 12.8947 76.6438 13.0444 76.8265C13.1963 77.0135 13.2158 77.379 13.6628 77.2834C13.5001 77.0348 13.3785 76.8287 13.2375 76.6374C13.1247 76.4866 13.0943 76.3952 13.2896 76.2698ZM12.7732 76.1572C12.4911 76.1423 12.0745 76.3081 11.9617 76.0743C11.825 75.7896 11.8705 75.3859 11.9378 75.0544C11.992 74.793 12.3001 74.9864 12.452 74.9248C12.6755 74.929 12.8686 74.9078 13.0487 75.0055C13.2679 75.1224 13.3764 75.3009 13.3742 75.5431C13.3699 75.7811 13.2787 75.9766 13.0487 76.0786C12.9619 76.119 12.8643 76.1614 12.7732 76.1572Z" fill="white"/>
<path d="M100.996 76.2273C101.324 76.0105 101.376 75.6493 101.287 75.2859C101.193 74.895 100.894 74.7016 100.516 74.6591C100.18 74.6209 99.8373 74.6506 99.4967 74.6379C99.2819 74.6294 99.2689 74.7547 99.2689 74.912C99.271 75.6111 99.2667 76.3101 99.2732 77.0071C99.2732 77.1176 99.2081 77.294 99.4099 77.3004C99.6204 77.3067 99.5531 77.1304 99.5618 77.0177C99.5987 76.4695 99.7766 76.3378 100.319 76.4568C100.621 76.5226 100.647 76.8265 100.807 77.0114C100.933 77.1601 100.985 77.4087 101.3 77.26C101.174 77.0687 101.065 76.8733 100.929 76.699C100.779 76.5078 100.742 76.393 100.996 76.2273ZM100.083 76.1657C99.4989 76.1593 99.5683 76.2592 99.5618 75.4729C99.5249 75.1861 99.4923 74.861 100.089 74.912C100.746 74.9693 101.031 75.1096 101.026 75.5473C101.022 75.985 100.744 76.172 100.083 76.1657Z" fill="white"/>
<path d="M15.8522 74.638C15.0798 74.621 14.4484 75.2203 14.4484 75.9746C14.4484 76.7289 15.0494 77.3048 15.8045 77.3133C16.5553 77.3197 17.1715 76.7332 17.1823 75.998C17.1932 75.2606 16.6008 74.6572 15.8522 74.638ZM15.8392 77.0392C15.2403 77.0477 14.7478 76.5759 14.7435 75.9895C14.7391 75.3966 15.2121 74.9313 15.8219 74.927C16.399 74.9228 16.8721 75.3754 16.8872 75.947C16.9046 76.5377 16.4316 77.0307 15.8392 77.0392Z" fill="white"/>
<path d="M115.914 74.6379C115.167 74.6612 114.577 75.2711 114.594 76.0084C114.61 76.7415 115.234 77.3259 115.983 77.3131C116.738 77.2982 117.333 76.7011 117.328 75.9638C117.322 75.2095 116.686 74.6145 115.914 74.6379ZM115.977 77.039C115.38 77.0433 114.889 76.5673 114.887 75.9829C114.887 75.3901 115.362 74.9269 115.972 74.9269C116.549 74.9247 117.02 75.3816 117.033 75.9553C117.046 76.546 116.569 77.0348 115.977 77.039Z" fill="white"/>
<path d="M103.467 74.6379C102.697 74.6379 102.083 75.2563 102.1 76.0106C102.118 76.7437 102.743 77.3281 103.491 77.3132C104.246 77.2962 104.841 76.6991 104.834 75.9618C104.826 75.2265 104.218 74.6379 103.467 74.6379ZM103.483 77.0391C102.886 77.0433 102.396 76.5673 102.393 75.983C102.393 75.3901 102.869 74.9269 103.48 74.9269C104.058 74.9248 104.528 75.3817 104.539 75.9554C104.552 76.5461 104.075 77.0348 103.483 77.0391Z" fill="white"/>
<path d="M53.466 74.6379C52.7152 74.6039 52.0708 75.1649 52.0274 75.8938C51.984 76.6481 52.572 77.2813 53.3467 77.3111C54.0931 77.3408 54.7332 76.7628 54.7614 76.0319C54.7896 75.2967 54.2124 74.6741 53.466 74.6379ZM53.3771 77.0391C52.7825 77.0284 52.3052 76.5355 52.3225 75.9511C52.3399 75.3583 52.8281 74.9121 53.44 74.9269C54.0128 74.9397 54.4728 75.4135 54.4663 75.9873C54.462 76.578 53.9716 77.0497 53.3771 77.0391Z" fill="white"/>
<path d="M3.16094 75.9299C3.16094 75.5198 2.99604 74.9737 3.20434 74.7357C3.44953 74.4531 4.02454 74.6719 4.45634 74.6401C4.53662 74.6337 4.61907 74.6379 4.69935 74.6401C4.79917 74.6443 4.90548 74.6507 4.89897 74.7867C4.89246 74.9206 4.78398 74.9206 4.68851 74.9227C4.38039 74.9269 4.06794 74.9503 3.76416 74.9184C3.3519 74.8738 3.40614 75.1394 3.4235 75.371C3.43869 75.5878 3.27812 75.9214 3.7468 75.8831C4.00501 75.8619 4.26539 75.8768 4.52577 75.8831C4.6169 75.8831 4.74275 75.8619 4.75143 75.9979C4.76228 76.1636 4.62124 76.1509 4.51058 76.153C4.3153 76.1572 4.12218 76.153 3.9269 76.153C3.47341 76.153 3.23906 76.5185 3.43 76.918C3.49726 77.0582 3.61444 77.0221 3.71859 77.0242C4.07444 77.0306 4.43246 77.0263 4.79048 77.0285C4.8968 77.0285 4.9836 77.0561 4.97275 77.1878C4.96407 77.2941 4.88378 77.3089 4.80133 77.3111C4.31529 77.3111 3.82708 77.3089 3.34104 77.3132C3.11755 77.3153 3.12841 77.1729 3.12841 77.0242C3.12841 76.6587 3.12841 76.2932 3.12841 75.9278H3.16312L3.16094 75.9299Z" fill="white"/>
<path d="M22.737 75.9723C22.7804 75.5389 22.557 74.98 22.826 74.725C23.1146 74.453 23.6896 74.657 24.1388 74.6443C24.2711 74.64 24.5206 74.538 24.5055 74.7994C24.4946 75.0034 24.2755 74.9099 24.1474 74.9205C23.9543 74.9354 23.7547 74.9481 23.5638 74.9205C23.1385 74.8589 23.0018 75.0055 23.0235 75.4326C23.0408 75.7726 23.0972 75.9341 23.4791 75.8852C23.7178 75.8555 23.9652 75.8788 24.2082 75.8831C24.2906 75.8831 24.3753 75.9043 24.3753 76.0085C24.3753 76.1041 24.3015 76.1445 24.2147 76.1466C23.9218 76.1508 23.6288 76.1657 23.3381 76.1466C22.9454 76.1232 23.0473 76.3952 23.0408 76.5949C23.0343 76.8074 22.9692 77.056 23.3511 77.0284C23.6744 77.0029 23.9999 77.0199 24.3254 77.0263C24.4274 77.0263 24.5771 76.9838 24.5879 77.1538C24.5988 77.3663 24.423 77.2961 24.308 77.311C24.2451 77.3195 24.1778 77.3131 24.1127 77.311C23.6766 77.3004 23.0994 77.4491 22.8455 77.2345C22.5461 76.9817 22.7935 76.3994 22.737 75.9702V75.9723Z" fill="white"/>
<path d="M60.3248 75.9555C60.3248 75.607 60.3292 75.2564 60.3248 74.9079C60.3226 74.7422 60.353 74.6338 60.5591 74.6381C60.9974 74.6466 61.4357 74.6381 61.874 74.6423C61.9673 74.6423 62.0823 74.6338 62.0954 74.7656C62.1106 74.9355 61.9739 74.9228 61.8654 74.9249C61.5573 74.9292 61.247 74.9483 60.941 74.9228C60.5657 74.8909 60.596 75.1332 60.6264 75.3478C60.6546 75.5539 60.4441 75.9045 60.9237 75.8832C61.1819 75.8726 61.4423 75.8769 61.7026 75.8832C61.8068 75.8854 61.963 75.8492 61.9543 76.0192C61.9456 76.1744 61.7981 76.151 61.6896 76.1531C61.4466 76.1574 61.2014 76.1744 60.9606 76.151C60.5548 76.1106 60.6221 76.3783 60.6221 76.61C60.6221 76.8288 60.5678 77.0668 60.9454 77.0349C61.2839 77.0073 61.6267 77.0286 61.9674 77.0307C62.0628 77.0307 62.1691 77.0307 62.1756 77.1667C62.1822 77.3048 62.0802 77.3133 61.9804 77.3133C61.5095 77.3133 61.0387 77.309 60.5678 77.3175C60.366 77.3218 60.3248 77.2219 60.327 77.0519C60.3335 76.6865 60.327 76.321 60.327 75.9555H60.3248Z" fill="white"/>
<path d="M92.2407 75.8938C92.2711 75.5453 92.0541 74.9886 92.3167 74.7293C92.6009 74.4489 93.1781 74.6592 93.6251 74.6444C93.7596 74.6401 94.0135 74.5424 93.9983 74.7931C93.9853 75.0205 93.7401 74.9057 93.599 74.9206C93.4233 74.9397 93.2388 74.944 93.0653 74.9206C92.6573 74.8653 92.4989 74.9801 92.5141 75.4242C92.5272 75.8109 92.6443 75.9257 93.0132 75.8832C93.2041 75.8598 93.4016 75.8747 93.5969 75.8832C93.6989 75.8874 93.8529 75.8385 93.8638 76.0043C93.8746 76.17 93.7249 76.1488 93.6164 76.153C93.4385 76.1573 93.254 76.1806 93.0826 76.1509C92.5727 76.0638 92.4859 76.3124 92.5228 76.7374C92.5423 76.9647 92.6074 77.0412 92.8374 77.0327C93.1781 77.0179 93.5188 77.0285 93.8594 77.0327C93.9505 77.0327 94.0656 77.0157 94.0807 77.1517C94.1003 77.3238 93.9701 77.3153 93.8572 77.3153C93.4037 77.3153 92.9481 77.3068 92.4946 77.3196C92.2602 77.326 92.2342 77.2027 92.2364 77.0221C92.2429 76.6736 92.2364 76.323 92.2364 75.8959L92.2407 75.8938Z" fill="white"/>
<path d="M108.046 75.9745C108.089 75.5411 107.866 74.9801 108.135 74.7272C108.423 74.4552 108.998 74.6592 109.447 74.6465C109.578 74.6422 109.829 74.5381 109.814 74.8016C109.803 75.0056 109.584 74.9121 109.456 74.9227C109.263 74.9376 109.063 74.9503 108.872 74.9227C108.447 74.8611 108.31 75.0056 108.332 75.4348C108.35 75.7727 108.404 75.9363 108.788 75.8874C109.027 75.8577 109.274 75.881 109.517 75.8853C109.599 75.8853 109.684 75.9065 109.684 76.0107C109.684 76.1084 109.612 76.1467 109.523 76.1488C109.23 76.153 108.938 76.1679 108.647 76.1488C108.256 76.1254 108.356 76.3953 108.35 76.5971C108.343 76.8096 108.278 77.0604 108.66 77.0306C108.983 77.0051 109.309 77.0221 109.634 77.0285C109.736 77.0285 109.886 76.986 109.897 77.1539C109.91 77.3642 109.732 77.2962 109.617 77.3111C109.554 77.3196 109.487 77.3132 109.421 77.3111C108.985 77.3005 108.408 77.4492 108.152 77.2346C107.853 76.9817 108.1 76.3995 108.044 75.9724L108.046 75.9745Z" fill="white"/>
<path d="M31.0952 74.8313C31.0496 74.7272 30.9997 74.6422 30.8544 74.6379C30.6808 74.6316 30.6374 74.7484 30.5853 74.8632C30.2273 75.66 29.8714 76.459 29.5134 77.2579C29.7651 77.3918 29.8649 77.2537 29.9148 77.0667C30.0103 76.714 30.2316 76.5886 30.594 76.6417C30.7676 76.6672 30.952 76.663 31.1278 76.6417C31.4446 76.6056 31.655 76.6863 31.7462 77.0178C31.7939 77.1942 31.8785 77.4003 32.1823 77.2622C31.8199 76.4505 31.4576 75.6409 31.0952 74.8313ZM30.2468 76.3442C30.4378 75.9023 30.6135 75.49 30.8348 74.9758C31.0583 75.4752 31.2384 75.8831 31.4445 76.3442H30.2468Z" fill="white"/>
<path d="M36.7562 74.8312C36.7107 74.725 36.6586 74.6421 36.5154 74.6379C36.3396 74.6294 36.2984 74.7484 36.2485 74.8631C35.8883 75.66 35.5325 76.4589 35.1744 77.2579C35.4261 77.3896 35.5259 77.2515 35.5759 77.0666C35.6713 76.7139 35.8926 76.5885 36.255 76.6417C36.4308 76.6672 36.6152 76.6629 36.7909 76.6417C37.1056 76.6055 37.3182 76.6863 37.4072 77.0178C37.4549 77.1963 37.5395 77.4002 37.8433 77.2621C37.4809 76.4504 37.1186 75.6408 36.7562 74.8312ZM35.9534 76.3442C36.0445 75.8852 36.2984 75.5048 36.4915 74.9481C36.728 75.49 36.9081 75.9001 37.1012 76.3442H35.9534Z" fill="white"/>
<path d="M47.2799 77.2006C47.269 77.1709 47.2604 77.139 47.2473 77.1114C46.9023 76.3422 46.5552 75.573 46.2123 74.8016C46.1603 74.6848 46.0821 74.6359 45.9519 74.638C45.774 74.6423 45.7523 74.7846 45.7024 74.893C45.3856 75.5878 45.0732 76.2848 44.7672 76.9839C44.726 77.0816 44.5719 77.2134 44.7347 77.2941C44.9061 77.3791 44.969 77.2176 45.0428 77.0838C45.1426 76.9074 45.1339 76.6014 45.4616 76.6503C46.0062 76.7268 46.7418 76.3273 46.9718 77.2176C47 77.3239 47.1237 77.3196 47.2235 77.3005C47.2756 77.292 47.2994 77.2538 47.2799 77.2006ZM45.3834 76.3379C45.5679 75.9002 45.7393 75.4965 45.9368 75.029C46.2362 75.437 46.3338 75.8789 46.5704 76.3103C46.1668 76.3974 45.8001 76.3549 45.3834 76.3379Z" fill="white"/>
<path d="M88.4154 74.8824C88.3655 74.774 88.3351 74.6465 88.1593 74.638C87.9575 74.6274 87.9228 74.774 87.8664 74.8972C87.5583 75.5793 87.2524 76.2614 86.9551 76.9499C86.9095 77.0561 86.7121 77.1985 86.9095 77.2941C87.12 77.394 87.1873 77.173 87.2263 77.0328C87.3196 76.6821 87.5518 76.6078 87.8794 76.6418C88.0726 76.663 88.2722 76.663 88.4631 76.6418C88.7691 76.6056 88.947 76.714 89.0381 77.0094C89.0902 77.1836 89.1618 77.3961 89.4808 77.2644C89.1162 76.4505 88.7691 75.6664 88.4154 74.8824ZM87.5865 76.3443C87.6798 75.8853 87.9315 75.5028 88.1073 75.0077C88.3893 75.4603 88.5369 75.8938 88.7192 76.3443H87.5865Z" fill="white"/>
<path d="M72.8643 74.8271C72.7298 74.5402 72.5215 74.536 72.3848 74.8271C72.0094 75.6324 71.6514 76.4484 71.2869 77.258C71.5472 77.3876 71.6405 77.2431 71.6948 77.0582C71.7946 76.7098 72.0116 76.5801 72.3783 76.6396C72.5519 76.6673 72.7363 76.6609 72.9121 76.6396C73.2332 76.6014 73.435 76.697 73.524 77.0221C73.5739 77.2027 73.6628 77.4025 73.9601 77.258C73.5956 76.4463 73.2419 75.6303 72.8643 74.825V74.8271ZM72.029 76.3358C72.2156 75.8959 72.3891 75.4943 72.5931 75.0141C72.8687 75.4603 73.0162 75.8917 73.1963 76.3358H72.029Z" fill="white"/>
<path d="M122.744 74.8291C122.61 74.5423 122.401 74.5359 122.265 74.8291C121.885 75.6344 121.529 76.4504 121.165 77.2642C121.416 77.3854 121.52 77.2536 121.57 77.0666C121.664 76.7075 121.891 76.5928 122.252 76.6438C122.427 76.6672 122.61 76.665 122.785 76.6438C123.104 76.6077 123.311 76.6948 123.402 77.0241C123.449 77.2026 123.536 77.4045 123.836 77.2621C123.473 76.4504 123.117 75.6366 122.744 74.8312V74.8291ZM121.902 76.3463C122.098 75.8894 122.269 75.4857 122.469 75.0161C122.751 75.4581 122.894 75.8958 123.083 76.3463H121.902Z" fill="white"/>
<path d="M34.2956 74.6868C34.07 74.6188 33.8443 74.6507 33.6642 74.64C33.4559 74.64 33.2954 74.6443 33.1326 74.6379C32.9742 74.6337 32.8961 74.6889 32.8961 74.8568C32.9005 75.6026 32.8961 76.3506 32.8983 77.0964C32.8983 77.1878 32.8918 77.294 33.0306 77.3047C33.1695 77.3153 33.2042 77.2154 33.1847 77.1198C33.0502 76.4717 33.4147 76.3846 33.942 76.4483C34.0635 76.4632 34.198 76.4186 34.3217 76.3846C34.76 76.2635 34.9444 75.9511 34.9444 75.5283C34.9444 75.0948 34.7253 74.8143 34.2956 74.6868ZM33.6729 76.1806C33.0523 76.2337 33.2021 75.8512 33.1847 75.4199C33.1478 75.1564 33.1456 74.8674 33.7033 74.912C34.3738 74.9673 34.6472 75.099 34.6515 75.5346C34.658 75.9809 34.3629 76.1232 33.6729 76.1806Z" fill="white"/>
<path d="M98.1188 74.8123C97.6284 74.517 97.0469 74.5573 96.5587 74.6912C96.2679 74.7698 96.4871 75.2862 96.4415 75.6007C96.4242 75.726 96.4393 75.8556 96.4393 75.9831C96.4393 76.3465 96.4372 76.712 96.4415 77.0775C96.4415 77.1858 96.4263 77.3176 96.6021 77.3027C96.7409 77.2921 96.7453 77.1773 96.7279 77.0902C96.5956 76.4549 96.9644 76.389 97.4657 76.4506C97.6609 76.474 97.8541 76.4124 98.0276 76.3274C98.6026 76.0426 98.6634 75.1438 98.1188 74.8123ZM97.2335 76.1808C96.652 76.2296 96.6997 75.9088 96.7453 75.5284C96.6585 75.1289 96.7106 74.8654 97.2769 74.9122C97.9192 74.9696 98.2099 75.1268 98.1947 75.5645C98.1795 75.9938 97.8975 76.1255 97.2335 76.1808Z" fill="white"/>
<path d="M111.826 74.6379C111.925 74.6613 112.134 74.7017 112.331 74.7654C112.425 74.7952 112.576 74.8249 112.516 74.9864C112.457 75.1415 112.349 75.0778 112.238 75.0374C112.008 74.9545 111.771 74.8866 111.524 74.9418C111.342 74.9822 111.173 75.0608 111.138 75.2584C111.101 75.4624 111.238 75.5899 111.409 75.6643C111.661 75.7726 111.928 75.8491 112.179 75.9554C112.47 76.0786 112.659 76.2911 112.639 76.6183C112.618 76.9668 112.392 77.1453 112.069 77.2473C111.648 77.3812 111.266 77.2834 110.897 77.0964C110.786 77.0412 110.63 76.9689 110.708 76.8138C110.806 76.6205 110.925 76.7883 111.025 76.8372C111.307 76.9774 111.594 77.0816 111.912 76.9987C112.09 76.9519 112.251 76.8712 112.279 76.663C112.307 76.442 112.197 76.2932 111.999 76.2104C111.821 76.136 111.635 76.0786 111.448 76.0191C111.068 75.8938 110.756 75.7046 110.797 75.2499C110.83 74.8844 111.216 74.6401 111.828 74.6379H111.826Z" fill="white"/>
<path d="M80.2352 75.6451C80.2352 75.8363 80.2395 76.0254 80.2352 76.2167C80.2113 76.92 79.8012 77.3195 79.1091 77.3152C78.4147 77.311 78.009 76.9158 77.9916 76.2082C77.9807 75.7789 77.9851 75.3518 77.9916 74.9226C77.9916 74.81 77.9395 74.6379 78.1543 74.6549C78.3257 74.6676 78.278 74.8142 78.2802 74.9141C78.2867 75.3433 78.2758 75.7726 78.2845 76.1997C78.2975 76.7521 78.5948 77.0454 79.1177 77.0411C79.6428 77.039 79.9271 76.75 79.9401 76.189C79.9488 75.7768 79.9379 75.3625 79.9444 74.9502C79.9466 74.8397 79.8772 74.6655 80.079 74.6527C80.2916 74.64 80.2287 74.8185 80.233 74.9311C80.2439 75.1691 80.2352 75.4071 80.2352 75.6451Z" fill="white"/>
<path d="M1.36646 77.0263C1.60297 77.0369 1.81343 76.9689 2.00655 76.8393C2.10202 76.7756 2.204 76.6969 2.29079 76.8414C2.3624 76.9604 2.24306 77.005 2.17363 77.0603C1.66589 77.464 0.821831 77.379 0.359659 76.8818C-0.122042 76.3633 -0.119879 75.5686 0.366161 75.0629C0.830503 74.5805 1.69844 74.4977 2.18882 74.8908C2.26259 74.9503 2.36674 74.997 2.27777 75.1118C2.20183 75.2116 2.11722 75.1819 2.02825 75.1181C1.71797 74.895 1.3708 74.8525 1.01278 74.9694C0.524567 75.1288 0.218625 75.6557 0.309757 76.1423C0.403059 76.6481 0.845702 77.0157 1.36646 77.0242V77.0263Z" fill="white"/>
<path d="M28.1355 77.3155C27.5388 77.324 27.0311 76.9776 26.8336 76.4251C26.634 75.8663 26.8033 75.2798 27.2633 74.9292C27.7168 74.585 28.3851 74.5467 28.8624 74.8484C28.9449 74.9016 29.1098 74.9356 29.0403 75.0822C28.9535 75.2628 28.8385 75.1459 28.7235 75.0886C28.1377 74.8017 27.6299 74.8824 27.2784 75.3053C26.9616 75.6878 26.9616 76.2403 27.2784 76.6249C27.6321 77.0541 28.1399 77.137 28.7192 76.8565C28.8277 76.8034 28.9449 76.6674 29.036 76.8522C29.1054 76.9903 28.9514 77.0413 28.8667 77.0923C28.6432 77.2241 28.4046 77.3218 28.1333 77.3133L28.1355 77.3155Z" fill="white"/>
<path d="M39.6334 77.0285C39.8548 77.0349 40.05 76.9712 40.2345 76.8607C40.3365 76.799 40.4558 76.6652 40.5535 76.8479C40.6272 76.9882 40.4732 77.0349 40.3907 77.0902C39.8938 77.4301 39.1821 77.377 38.7221 76.9754C38.2599 76.5717 38.1319 75.9066 38.4118 75.3669C38.6809 74.8463 39.2971 74.5488 39.8786 74.6614C39.9567 74.6763 40.0414 74.6911 40.1108 74.7273C40.2844 74.8144 40.6251 74.8548 40.5404 75.0673C40.4211 75.3647 40.228 75.0375 40.0783 74.9886C39.6378 74.8463 39.2429 74.8845 38.9044 75.199C38.5529 75.5284 38.4596 75.9278 38.6505 76.3719C38.8328 76.7948 39.1778 76.9945 39.6356 77.0243L39.6334 77.0285Z" fill="white"/>
<path d="M49.1438 77.0264C49.363 77.0264 49.5561 76.9584 49.7362 76.8394C49.8295 76.7777 49.9315 76.6927 50.0204 76.8394C50.0942 76.9584 49.9771 77.0051 49.9076 77.0604C49.4042 77.4641 48.5558 77.3833 48.0937 76.8861C47.6098 76.3676 47.612 75.575 48.0937 75.0672C48.5558 74.5827 49.4216 74.4999 49.9163 74.8908C49.9901 74.9503 50.0964 74.9971 50.0096 75.1118C49.9098 75.2457 49.8143 75.1564 49.721 75.097C49.3456 74.8611 48.9572 74.8441 48.571 75.0545C48.137 75.2903 47.9353 75.779 48.0611 76.2359C48.1956 76.7182 48.6339 77.0391 49.1417 77.0285L49.1438 77.0264Z" fill="white"/>
<path d="M106.529 74.6379C106.724 74.6379 106.92 74.6336 107.113 74.6379C107.217 74.6421 107.362 74.6039 107.371 74.7718C107.38 74.946 107.234 74.9184 107.128 74.9205C106.917 74.9269 106.703 74.946 106.494 74.9184C106.076 74.8589 105.993 75.031 105.987 75.4156C105.98 75.8342 106.128 75.9128 106.516 75.9086C106.748 75.9065 107.174 75.7046 107.2 76.0573C107.215 76.2634 106.75 76.1806 106.523 76.1529C106.01 76.0892 105.982 76.3484 105.993 76.7309C105.997 76.9179 106.134 77.2791 105.852 77.2749C105.581 77.2706 105.728 76.9137 105.72 76.7182C105.696 76.1954 105.744 75.6663 105.702 75.1457C105.668 74.7144 105.815 74.5635 106.238 74.6336C106.334 74.6485 106.434 74.6358 106.531 74.6358L106.529 74.6379Z" fill="white"/>
<path d="M91.1581 75.7706C91.1581 76.0723 91.1776 76.3741 91.1537 76.6737C91.1299 76.9627 90.978 77.1837 90.6785 77.2729C90.3574 77.3706 90.071 77.2771 89.8149 77.0859C89.7325 77.0264 89.6804 76.9435 89.7499 76.8415C89.8323 76.7247 89.8996 76.8054 89.9864 76.85C90.6156 77.1752 90.8695 77.02 90.876 76.3188C90.876 76.1276 90.8803 75.9385 90.876 75.7472C90.8695 75.4965 90.9411 75.1969 90.8261 75.0056C90.7046 74.8038 90.3769 74.9568 90.1448 74.9249C90.0493 74.9121 89.9408 74.9249 89.9299 74.791C89.9191 74.655 90.0232 74.6465 90.1231 74.638C90.1556 74.6359 90.1881 74.638 90.2207 74.638C90.8557 74.597 91.1696 74.9745 91.1624 75.7706H91.1581Z" fill="white"/>
<path d="M9.76366 76.1169C9.76366 75.9575 9.7463 75.7982 9.76583 75.6409C9.83092 75.148 9.75932 74.7931 9.11271 74.9206C9.02375 74.9376 8.90875 74.9355 8.89573 74.7995C8.88054 74.6274 9.01291 74.6401 9.12357 74.6401C9.65735 74.6401 10.1933 74.6401 10.7271 74.6401C10.8247 74.6401 10.9289 74.6465 10.9245 74.7846C10.9202 74.9185 10.816 74.9185 10.7184 74.9227C10.6381 74.9248 10.5556 74.9355 10.4754 74.9227C10.1304 74.8696 10.0306 75.0077 10.0457 75.3413C10.074 75.9108 10.0544 76.4824 10.0501 77.054C10.0501 77.156 10.087 77.2962 9.91338 77.3047C9.73545 77.3132 9.76367 77.173 9.7615 77.0689C9.75716 76.7522 9.7615 76.4356 9.7615 76.1169H9.76366Z" fill="white"/>
<path d="M43.3395 76.1169C43.3395 75.9575 43.3221 75.7982 43.3416 75.6409C43.4067 75.148 43.3351 74.7931 42.6885 74.9206C42.5996 74.9376 42.4846 74.9355 42.4715 74.7995C42.4563 74.6274 42.5887 74.6401 42.6993 74.6401C43.2331 74.6401 43.7691 74.6401 44.3029 74.6401C44.4005 74.6401 44.5047 74.6465 44.5003 74.7846C44.496 74.9185 44.3918 74.9185 44.2942 74.9227C44.2139 74.9248 44.1315 74.9355 44.0512 74.9227C43.7062 74.8696 43.6063 75.0077 43.6215 75.3413C43.6497 75.9108 43.6302 76.4824 43.6259 77.054C43.6259 77.156 43.6628 77.2962 43.4892 77.3047C43.3112 77.3132 43.3395 77.173 43.3373 77.0689C43.333 76.7522 43.3373 76.4356 43.3373 76.1169H43.3395Z" fill="white"/>
<path d="M124.842 75.8109V76.0978C124.842 76.6814 125.134 76.9917 125.717 77.0285C125.83 77.037 126.016 76.9711 125.999 77.1815C125.984 77.377 125.806 77.3047 125.693 77.3111C124.931 77.3508 124.549 77.0023 124.549 76.2657C124.549 75.8683 124.536 75.4688 124.556 75.0736C124.565 74.9291 124.426 74.6507 124.706 74.6656C124.953 74.6784 124.821 74.9461 124.836 75.097C124.858 75.3328 124.842 75.5729 124.842 75.8131V75.8109Z" fill="white"/>
<path d="M84.8243 75.9617C84.8243 75.5962 84.8243 75.2307 84.8243 74.8653C84.8243 74.7739 84.8113 74.6634 84.9502 74.6528C85.1281 74.6379 85.1129 74.7696 85.1129 74.878C85.1151 75.4666 85.1324 76.0552 85.1064 76.6438C85.0934 76.9668 85.2084 77.0666 85.5208 77.0348C85.7139 77.0135 85.9114 77.0305 86.1045 77.0348C86.1869 77.0348 86.2651 77.0518 86.2737 77.158C86.2846 77.2919 86.1978 77.3174 86.0915 77.3174C85.7335 77.3174 85.3776 77.3153 85.0196 77.3174C84.8308 77.3174 84.8199 77.2005 84.8221 77.0624C84.8221 76.6969 84.8221 76.3314 84.8221 75.9659L84.8243 75.9617Z" fill="white"/>
<path d="M82.5785 75.9616C82.5785 75.5962 82.5785 75.2307 82.5785 74.8652C82.5785 74.7738 82.5655 74.6633 82.7043 74.6506C82.8823 74.6357 82.8671 74.7653 82.8692 74.8737C82.8692 75.4623 82.8888 76.0509 82.8627 76.6395C82.8497 76.9603 82.9604 77.0645 83.275 77.0305C83.4681 77.0092 83.6656 77.0262 83.8587 77.0305C83.9411 77.0305 84.0214 77.0475 84.0301 77.1516C84.041 77.2833 83.9563 77.311 83.8478 77.311C83.4898 77.311 83.134 77.311 82.7759 77.311C82.5459 77.311 82.5785 77.1495 82.5785 77.0113C82.5763 76.6607 82.5785 76.3123 82.5785 75.9616Z" fill="white"/>
<path d="M113.715 76.0001C113.715 76.3486 113.72 76.6992 113.715 77.0476C113.715 77.1475 113.755 77.2899 113.583 77.3026C113.405 77.3154 113.427 77.1773 113.427 77.071C113.425 76.3401 113.425 75.6112 113.427 74.8803C113.427 74.774 113.405 74.6359 113.583 74.6508C113.755 74.6635 113.713 74.8059 113.715 74.9058C113.722 75.2712 113.715 75.6367 113.715 76.0001Z" fill="white"/>
<path d="M81.5023 75.966C81.5023 76.3463 81.5023 76.7288 81.5023 77.1092C81.5023 77.2048 81.4958 77.3068 81.357 77.3068C81.2181 77.3068 81.2137 77.2048 81.2137 77.107C81.2137 76.3442 81.2137 75.5835 81.2137 74.8206C81.2137 74.742 81.2268 74.6613 81.3353 74.6507C81.4698 74.6358 81.5023 74.7187 81.5023 74.8228C81.5023 75.2031 81.5023 75.5856 81.5023 75.966Z" fill="white"/>
<path d="M50.8557 75.9321C50.8557 75.5836 50.8536 75.233 50.8557 74.8845C50.8557 74.7804 50.8275 74.6423 51.0076 74.6487C51.1465 74.6529 51.1421 74.7613 51.1443 74.8548C51.1443 75.6006 51.1443 76.3464 51.1443 77.0923C51.1443 77.1836 51.153 77.2941 51.0163 77.3026C50.8384 77.3154 50.8579 77.1815 50.8557 77.0753C50.8536 76.6949 50.8557 76.3124 50.8557 75.9321Z" fill="white"/>
<path d="M41.7772 75.9574C41.7772 76.3378 41.7772 76.7203 41.7772 77.1006C41.7772 77.1941 41.7794 77.2982 41.6405 77.3067C41.4995 77.3152 41.4886 77.2154 41.4886 77.1176C41.4886 76.3548 41.4886 75.5941 41.4886 74.8312C41.4886 74.7292 41.5125 74.6379 41.6492 74.6506C41.7881 74.6634 41.7772 74.7696 41.7772 74.8631C41.7794 75.2286 41.7772 75.5941 41.7772 75.9574Z" fill="white"/>
<path d="M53.2643 74.3278C53.2773 74.262 53.2729 74.2195 53.2925 74.2046C53.44 74.0856 53.4617 73.8094 53.7394 73.8561C53.8002 73.8667 53.8913 73.9092 53.8436 73.973C53.7091 74.1642 53.5377 74.3172 53.2621 74.3278H53.2643Z" fill="white"/>
<path d="M19.222 64.7211C19.2285 66.0003 18.1566 67.0649 16.8503 67.0755C15.5116 67.0882 14.444 66.0385 14.4462 64.719C14.4483 63.4122 15.4899 62.3986 16.8286 62.4028C18.1566 62.405 19.2154 63.4292 19.222 64.7211Z" fill="white"/>
<path d="M19.222 64.7211C19.2285 66.0003 18.1566 67.0649 16.8503 67.0755C15.5116 67.0882 14.444 66.0385 14.4462 64.719C14.4483 63.4122 15.4899 62.3986 16.8286 62.4028C18.1566 62.405 19.2154 63.4292 19.222 64.7211Z" fill="#D44AB5"/>
</g>
<defs>
<clipPath id="clip0_55_729">
<rect width="126" height="77" fill="white" transform="translate(0 0.871094)"/>
</clipPath>
</defs>
</svg>
