<svg width="194" height="51" viewBox="0 0 194 51" fill="none" xmlns="http://www.w3.org/2000/svg">
<path fill-rule="evenodd" clip-rule="evenodd" d="M0 25.2047C0 11.3976 11.1929 0 25 0H169C182.807 0 194 11.3976 194 25.2047V25.2047C194 39.0118 182.807 50.4095 169 50.4095H25C11.1929 50.4095 0 39.0118 0 25.2047V25.2047Z" fill="white"/>
<path d="M128.661 11.4567H128.951C129.297 11.6834 129.428 12.1092 129.618 12.462C132.237 17.5334 134.861 22.6024 137.484 27.6724C138.751 30.1423 140.045 32.5991 141.299 35.0757V35.124C141.225 35.2635 141.165 35.4828 140.972 35.4633C139.698 35.4674 138.422 35.4701 137.149 35.4621C136.843 35.4748 136.761 35.1301 136.645 34.9081C136.413 34.4533 136.164 34.01 135.955 33.5433C135.597 32.9163 135.315 32.2484 134.958 31.6221C134.683 31.0024 134.328 30.4276 134.052 29.8092C133.881 29.435 133.656 29.0902 133.487 28.7155C133.236 28.1588 132.91 27.6431 132.666 27.0824C132.298 26.4239 131.994 25.7311 131.626 25.0724C131.368 24.4823 131.024 23.9385 130.763 23.3496C130.58 22.9446 130.336 22.5723 130.155 22.166C129.919 21.6389 129.605 21.1539 129.38 20.6215C129.267 20.4156 129.19 20.1292 128.954 20.0467C128.802 20.034 128.589 19.9945 128.503 20.1628C128.106 20.8221 127.816 21.5415 127.433 22.2094C127.159 22.8286 126.801 23.4032 126.526 24.0215C126.362 24.3809 126.147 24.7123 125.983 25.0704C125.857 25.3394 125.73 25.6076 125.582 25.8645C125.32 26.3205 125.134 26.8174 124.869 27.2714C124.638 27.6698 124.474 28.105 124.243 28.5034C124.001 28.9145 123.832 29.3651 123.594 29.7776C123.322 30.247 123.129 30.7601 122.856 31.2289C122.626 31.6273 122.462 32.0618 122.231 32.4602C121.989 32.8713 121.82 33.3219 121.582 33.7344C121.326 34.1762 121.137 34.6551 120.896 35.1045C120.813 35.238 120.734 35.4056 120.572 35.4444C120.323 35.49 120.068 35.4632 119.816 35.4666C118.842 35.4658 117.867 35.4626 116.893 35.47C116.717 35.4666 116.505 35.4693 116.384 35.3124C116.347 35.1413 116.36 34.9562 116.451 34.8054C120.425 27.11 124.407 19.4196 128.385 11.7256C128.446 11.6077 128.555 11.5298 128.661 11.4567L128.661 11.4567ZM52.7011 15.1525C52.9737 14.8555 53.3871 14.9527 53.7395 14.9426C57.2879 14.9446 60.8354 14.9426 64.384 14.9434C65.4276 14.9071 66.4843 15.07 67.4638 15.4477C69.1124 16.0586 70.5311 17.4306 71.0647 19.1757C71.3009 19.8375 71.3522 20.5499 71.3996 21.2474C71.3562 21.9944 71.2685 22.7536 70.9953 23.453C70.6674 24.2718 70.1943 25.0605 69.4889 25.587C69.3188 25.7566 69.0552 25.8285 68.9312 26.0417C69.8699 26.3918 70.6773 27.0549 71.286 27.8644C72.2868 29.2164 72.5653 31.0057 72.3953 32.6656C72.3057 33.76 72.0013 34.8464 71.4483 35.7888C71.0791 36.3748 70.6235 36.912 70.0705 37.3197C68.8632 38.2452 67.3691 38.6717 65.8937 38.8474C65.5914 38.8898 65.281 38.8669 64.9843 38.9527H52.9716C52.8717 38.8696 52.7789 38.7771 52.7009 38.671V15.1524M56.6835 18.5908C56.5699 18.7343 56.601 18.9302 56.5946 19.1019C56.6048 20.8838 56.5791 22.6662 56.6075 24.4476C56.7133 24.5839 56.8756 24.6771 57.0475 24.6676C59.3414 24.6695 61.6358 24.6649 63.9293 24.6703C64.2486 24.6844 64.5628 24.6153 64.8777 24.5697C65.5916 24.4624 66.3049 24.1706 66.8028 23.6141C67.1435 23.264 67.2987 22.7784 67.4134 22.309C67.4413 21.9288 67.5589 21.5471 67.4564 21.1675C67.4071 20.5251 67.1545 19.9008 66.7333 19.4239C66.1433 18.8713 65.3534 18.6071 64.5746 18.5098C64.3254 18.4843 64.0722 18.5226 63.8249 18.4717C63.5173 18.4032 63.2024 18.436 62.8909 18.4321C61.008 18.43 59.1251 18.4341 57.243 18.4294C57.047 18.4294 56.8509 18.4851 56.6835 18.591M56.8113 28.2441C56.7347 28.269 56.6614 28.3159 56.6381 28.401C56.4997 28.6774 56.5283 28.9953 56.5297 29.2956C56.5323 31.1292 56.5277 32.9628 56.5316 34.7961C56.5354 35.0584 56.6768 35.4299 56.9827 35.3977C59.4063 35.3989 61.8304 35.3963 64.2537 35.3984C64.4972 35.407 64.7405 35.3984 64.9807 35.3528C65.8335 35.2777 66.7163 35.1013 67.4348 34.5936C68.0124 34.1711 68.3298 33.4724 68.4532 32.7688C68.6167 31.9566 68.5557 31.1069 68.3273 30.3142C68.1227 29.7027 67.719 29.1454 67.1531 28.849C66.4054 28.4237 65.5474 28.2964 64.7094 28.2225C62.1555 28.2232 59.6015 28.2232 57.0474 28.2225C56.9681 28.2206 56.8889 28.2278 56.8111 28.2439L56.8113 28.2441ZM76.3519 14.9621C76.6219 14.9165 76.8977 14.9487 77.1703 14.9434C80.9349 14.9426 84.6998 14.9453 88.4653 14.942C90.167 15.0319 91.8961 15.6467 93.1254 16.9009C94.06 17.8553 94.6234 19.165 94.7583 20.5082C94.7557 21.04 94.7798 21.5733 94.7441 22.1044C94.5825 23.2445 94.1489 24.3926 93.3181 25.1905C93.0833 25.4448 92.8282 25.6809 92.5296 25.8525C92.468 25.9061 92.3374 25.9329 92.3758 26.0417C93.3311 26.4441 94.1938 27.1166 94.7876 27.9932C95.0427 28.3547 95.2262 28.7624 95.4029 29.1696C95.754 29.9884 95.8196 30.8944 95.8709 31.777C95.8274 32.4597 95.7877 33.1484 95.6301 33.8163C95.4003 34.9805 94.8143 36.0596 93.9958 36.8898C93.6615 37.175 93.324 37.4606 92.9489 37.6873C91.8909 38.3565 90.6597 38.6658 89.4407 38.832C89.1007 38.8917 88.7502 38.8595 88.4145 38.9527H76.4098C76.2229 38.8401 76.042 38.6624 76.0659 38.4175C76.0673 30.7715 76.0673 23.1251 76.0659 15.4791C76.0581 15.2679 76.1802 15.0693 76.3521 14.9621M80.3737 18.4548C80.249 18.485 80.1134 18.5319 80.0465 18.6546C79.9304 18.8243 79.9634 19.0415 79.9589 19.2367C79.9648 20.869 79.9608 22.5014 79.9601 24.1331C79.9492 24.3458 80.0862 24.5295 80.2431 24.6508C80.7098 24.6932 81.1804 24.6557 81.649 24.6677C83.6403 24.6664 85.6309 24.6703 87.6223 24.6664C88.2903 24.5886 88.9815 24.4986 89.5676 24.1311C90.1713 23.8509 90.5528 23.2438 90.7579 22.6154C90.9124 22.1072 90.8592 21.57 90.8618 21.0462C90.8176 20.6746 90.7028 20.3091 90.5392 19.9752C90.0712 19.1455 89.1698 18.6882 88.2753 18.5534C87.9236 18.4621 87.5581 18.5373 87.205 18.4621C86.935 18.4079 86.6598 18.4347 86.3879 18.4321C84.4615 18.4299 82.5353 18.4341 80.6092 18.4294C80.5294 18.4299 80.451 18.438 80.3737 18.4548M80.2431 28.2454C80.0498 28.2889 79.9518 28.4995 79.9622 28.6899C79.9608 30.6133 79.9634 32.536 79.9608 34.4587C79.9634 34.7036 79.9374 34.9591 80.0295 35.1918C80.0758 35.3562 80.2705 35.3936 80.4146 35.397C82.8809 35.4004 85.3478 35.3943 87.815 35.4004C88.141 35.4172 88.4596 35.3306 88.7842 35.3152C89.6154 35.2079 90.4691 34.9605 91.1102 34.377C91.6159 33.8505 91.8632 33.1135 91.9178 32.3852C91.9825 32.0244 91.9976 31.6549 91.9256 31.294C91.8625 30.4772 91.5862 29.6053 90.9305 29.0951C90.1375 28.4626 89.1093 28.3164 88.141 28.2225C85.6745 28.2232 83.2073 28.2232 80.7409 28.2225C80.5749 28.2266 80.406 28.2084 80.2431 28.2454L80.2431 28.2454ZM96.0133 15.4523C95.8959 15.2068 96.1283 14.9117 96.3809 14.9419C97.5931 14.9412 98.8063 14.948 100.019 14.9392C100.16 14.9319 100.316 14.9526 100.391 15.0949C100.679 15.5508 100.911 16.0424 101.142 16.5313C101.288 16.8438 101.475 17.1336 101.621 17.4462C101.891 18.049 102.239 18.6089 102.506 19.2132C102.863 19.8402 103.145 20.5082 103.502 21.1347C103.808 21.8119 104.193 22.4465 104.496 23.1257C104.759 23.6006 104.998 24.0881 105.236 24.5769C105.538 25.0832 105.75 25.6387 106.048 26.1476C106.257 26.5219 106.411 26.9249 106.627 27.295C106.9 27.7639 107.091 28.2776 107.365 28.7456C107.635 29.2152 107.819 29.7329 108.11 30.1895C108.241 30.4431 108.668 30.4438 108.799 30.1895C109.089 29.7322 109.273 29.2152 109.544 28.7456C109.786 28.3353 109.956 27.8851 110.193 27.4721C110.466 27.0027 110.658 26.4897 110.931 26.0203C111.201 25.5326 111.411 25.0115 111.696 24.5321C112.029 23.8124 112.43 23.1305 112.758 22.4089C113.026 21.9373 113.253 21.4431 113.498 20.959C113.785 20.4809 113.984 19.9544 114.265 19.4735C114.508 19.043 114.685 18.5782 114.931 18.1496C115.18 17.7244 115.355 17.2584 115.604 16.8332C115.938 16.253 116.154 15.5999 116.548 15.0574C116.638 14.9144 116.813 14.9466 116.955 14.9386C118.146 14.95 119.338 14.9407 120.529 14.942C120.69 14.9232 120.827 15.0346 120.903 15.1734C120.979 15.4047 120.816 15.6153 120.714 15.8058C116.927 23.117 113.15 30.4342 109.365 37.7463C109.148 38.164 108.965 38.618 108.629 38.9527H108.344C107.913 38.6744 107.769 38.1318 107.523 37.7014C103.685 30.2863 99.8552 22.8647 96.0135 15.4523H96.0133Z" fill="#004580"/>
</svg>
