<svg width="24" height="25" viewBox="0 0 24 25" fill="none" xmlns="http://www.w3.org/2000/svg">
<path d="M10.1415 3.82544C8.75104 3.82544 7.62484 4.83711 7.34311 6.15074C5.64544 6.45417 4.31759 7.87356 4.31759 9.66057C4.31759 9.84 4.33724 9.99974 4.36345 10.1624C3.8939 10.8539 3.5896 11.6686 3.5896 12.5781C3.5896 13.8889 4.24115 14.9917 5.15914 15.7918C5.09362 16.0515 5.04558 16.3104 5.04558 16.5898C5.04558 18.3936 6.52121 19.8721 8.32152 19.8721H8.36739C8.79108 20.6955 9.52489 21.3308 10.5055 21.3308C10.8452 21.3301 11.1813 21.2611 11.4939 21.1279C11.8065 20.9947 12.0892 20.8001 12.3255 20.5555C12.5617 20.8001 12.8445 20.9947 13.1571 21.1279C13.4697 21.2611 13.8057 21.3301 14.1454 21.3308C15.1268 21.3308 15.8598 20.6955 16.2843 19.8721H16.3294C18.0387 19.8721 19.4401 18.5387 19.5828 16.8633H19.6053C19.6053 16.8174 19.5857 16.7721 19.5828 16.7262C19.5857 16.681 19.6053 16.635 19.6053 16.5898C19.6053 16.3192 19.5085 16.088 19.4459 15.8378C20.3901 15.034 21.0613 13.9122 21.0613 12.5781C21.0613 11.6693 20.757 10.8546 20.2875 10.1617C20.3137 9.99974 20.3333 9.84073 20.3333 9.66057C20.3333 7.87356 19.0055 6.4549 17.3078 6.15001C17.0261 4.83784 15.8999 3.82544 14.5094 3.82544C13.6358 3.82544 12.8598 4.23317 12.3255 4.85096C11.7911 4.2339 11.0151 3.82544 10.1415 3.82544ZM10.1415 5.28422C10.9547 5.28422 11.5975 5.92828 11.5975 6.74301V8.20179C11.5975 9.41842 10.6278 10.39 9.41351 10.39V11.8487C10.2383 11.8487 10.986 11.5643 11.5975 11.0967V18.778C11.5975 19.3907 11.117 19.8721 10.5055 19.8721C10.2508 19.8756 10.0032 19.7881 9.80714 19.6251C9.61112 19.4621 9.47954 19.2344 9.43607 18.9829L9.29994 18.2769L8.59452 18.3907C8.33532 18.4317 8.07032 18.4158 7.81787 18.344C7.56542 18.2722 7.33155 18.1464 7.13248 17.9751C6.9334 17.8038 6.77386 17.5912 6.66492 17.352C6.55598 17.1128 6.50024 16.8527 6.50155 16.5898C6.50155 16.3644 6.53795 16.1536 6.61512 15.9516C6.62094 15.9348 6.63259 15.9224 6.63769 15.9056C6.74939 15.6276 6.92861 15.3819 7.15909 15.1908C7.38957 14.9998 7.66402 14.8694 7.95753 14.8115L7.66197 13.3761C6.91897 13.5231 6.25084 13.9262 5.77356 14.5154C5.30023 13.982 5.04088 13.2919 5.04558 12.5781C5.04433 11.9222 5.26936 11.286 5.68257 10.7773L5.91043 10.5038L5.842 10.1391C5.80074 9.98276 5.77778 9.82219 5.77356 9.66057C5.77356 8.44395 6.74324 7.4724 7.95753 7.4724H8.68552V6.74301C8.68552 5.92828 9.32833 5.28422 10.1415 5.28422ZM14.5094 5.28422C15.3226 5.28422 15.9654 5.92828 15.9654 6.74301V7.4724H16.6934C17.9077 7.4724 18.8774 8.44395 18.8774 9.66057C18.8774 9.81739 18.8482 9.96838 18.8089 10.1391L18.7412 10.5038L18.9684 10.7773C19.3816 11.286 19.6066 11.9222 19.6053 12.5781C19.6053 13.4534 19.2326 14.2339 18.6269 14.7663C18.1297 14.325 17.4956 14.0369 16.7844 14.0369C16.0964 14.0369 15.4762 14.282 14.987 14.6978L15.9203 15.8152C16.1604 15.6078 16.4673 15.4943 16.7844 15.4957C17.4869 15.4957 18.0467 16.0231 18.1268 16.7036C18.0671 17.6642 17.302 18.4133 16.3294 18.4133C16.2639 18.4133 16.1838 18.4104 16.0564 18.3907L15.351 18.2762L15.2148 18.9837C15.1712 19.235 15.0396 19.4625 14.8436 19.6254C14.6476 19.7882 14.4 19.8757 14.1454 19.8721C13.5339 19.8721 13.0534 19.3907 13.0534 18.778V11.0967C13.6785 11.5824 14.4465 11.8468 15.2374 11.8487V10.39C14.0231 10.39 13.0534 9.41842 13.0534 8.20179V6.74301C13.0534 5.92828 13.6963 5.28422 14.5094 5.28422Z" fill="white"/>
</svg>
