<svg width="370" height="682" viewBox="0 0 370 682" fill="none" xmlns="http://www.w3.org/2000/svg">
<g clip-path="url(#clip0_361_652)">
<g filter="url(#filter0_d_361_652)">
<path d="M0 0H370V657C370 670.807 358.807 682 345 682H0V0Z" fill="#222222"/>
</g>
<g filter="url(#filter1_d_361_652)">
<path d="M491.893 435H255.394C-332.306 435 491.893 134 491.893 134V435Z" fill="url(#paint0_linear_361_652)"/>
</g>
<g opacity="0.2" filter="url(#filter2_f_361_652)">
<ellipse cx="96" cy="191.5" rx="40" ry="39.5" fill="url(#paint1_radial_361_652)"/>
</g>
<g opacity="0.2" filter="url(#filter3_f_361_652)">
<circle cx="47" cy="343" r="37" fill="url(#paint2_radial_361_652)"/>
</g>
<g opacity="0.2" filter="url(#filter4_f_361_652)">
<ellipse cx="123.5" cy="116" rx="57.5" ry="57" fill="url(#paint3_radial_361_652)"/>
</g>
<g opacity="0.2" filter="url(#filter5_f_361_652)">
<ellipse cx="254" cy="67" rx="58" ry="57" fill="url(#paint4_radial_361_652)"/>
</g>
<g opacity="0.2" filter="url(#filter6_f_361_652)">
<ellipse cx="113" cy="508" rx="58" ry="57" fill="url(#paint5_radial_361_652)"/>
</g>
<g opacity="0.6" filter="url(#filter7_d_361_652)">
<path d="M314.973 426.153C304.067 428.184 293.075 429.614 280.881 431.501L280.853 431.558C293.676 446.2 305.784 460.042 317.95 473.854C377.403 541.431 436.912 609.008 496.365 676.584C497.453 677.814 499.571 678.901 498.855 680.702C498.111 682.59 495.821 681.846 494.19 681.846C475.927 681.875 457.694 681.675 439.46 681.989C434.422 682.075 431.102 680.359 427.896 676.699C402.506 647.643 376.973 618.731 351.497 589.761C306.643 538.743 261.76 487.724 216.992 436.62C213.9 433.074 210.723 431.644 205.971 431.644C157.482 431.816 108.964 431.758 60.4739 431.758C54.6727 431.778 51.772 434.656 51.772 440.395C51.772 518.61 51.7435 596.825 51.8866 675.04C51.8866 680.302 50.5695 682.161 45.1023 681.989C32.6793 681.589 20.1993 681.532 7.7764 681.989C0.655701 681.989 -0.323975 677.356 0.0762634 675.04V387.746C0.0476379 381.398 1.85098 380.082 7.94797 380.082C91.4166 380.282 174.914 380.197 258.382 380.254C273.668 380.254 288.724 379.053 303.781 376.307C377.088 362.924 449.135 294.746 444.841 202.147C443.038 163.311 427.266 131.567 398.269 106.258C364.149 76.488 322.844 66.0212 278.906 63.7906C260.3 62.8469 241.58 63.3902 222.917 63.3902C150.812 63.3616 78.7074 63.3616 6.60266 63.5332C1.50754 63.5332 -0.00958252 62.1891 0.133545 57.0987C0.505646 44.6587 0.591522 32.2186 0.104919 19.8072C-0.124084 13.6873 1.42178 12 7.7764 12C95.3096 12.2288 182.872 12.2288 270.433 12.1144C293.247 12.0858 315.746 14.7454 337.929 19.893C386.476 31.1319 427.867 54.3247 458.553 94.2473C495.077 141.777 503.063 195.941 491.671 253.165C474.324 340.331 402.477 409.91 314.973 426.153Z" fill="url(#paint6_linear_361_652)"/>
</g>
<g opacity="0.15" filter="url(#filter8_f_361_652)">
<ellipse cx="136" cy="236.5" rx="40" ry="39.5" fill="url(#paint7_radial_361_652)"/>
</g>
<g opacity="0.15" filter="url(#filter9_f_361_652)">
<ellipse cx="262" cy="558.5" rx="40" ry="39.5" fill="url(#paint8_radial_361_652)"/>
</g>
<g opacity="0.3" filter="url(#filter10_f_361_652)">
<ellipse cx="325" cy="407" rx="45" ry="44" fill="url(#paint9_radial_361_652)"/>
</g>
<path d="M293.832 647.603C292.201 647.344 290.73 647.148 289.271 646.869C277.563 644.639 267.95 635.085 265.629 623.116C264.105 615.259 265.173 607.822 270.06 601.295C274.166 595.814 279.704 592.629 286.199 591.086C289.167 590.379 292.178 590.014 295.23 590.018C306.946 590.034 318.661 590.034 330.373 590.002C331.223 590.002 331.43 590.234 331.399 591.074C331.334 592.778 331.346 594.486 331.396 596.195C331.415 596.894 331.212 597.078 330.53 597.078C320.883 597.055 311.235 597.055 301.588 597.058C299.091 597.058 296.586 596.984 294.097 597.113C288.218 597.42 282.691 598.857 278.126 602.945C274.246 606.42 272.136 610.778 271.895 616.111C271.32 628.826 280.96 638.187 290.768 640.025C292.783 640.402 294.797 640.567 296.843 640.567C308.01 640.559 319.182 640.57 330.35 640.543C331.166 640.543 331.407 640.724 331.403 641.595C331.365 648.891 331.384 656.191 331.384 663.487V664.335L331.526 664.374C332.254 662.635 332.989 660.899 333.713 659.16C343.169 636.44 352.625 613.72 362.065 590.992C362.36 590.285 362.682 589.971 363.494 590.002C365.501 590.081 367.511 590.03 369.648 590.03C369.147 591.263 368.687 592.421 368.208 593.568C356.083 622.72 343.954 651.872 331.844 681.031C331.533 681.781 331.151 682.029 330.373 681.997C328.711 681.935 327.041 681.942 325.379 681.997C324.647 682.021 324.471 681.766 324.471 681.043C324.49 670.304 324.487 659.564 324.487 648.824C324.487 648.036 324.098 647.641 323.322 647.639C316.834 647.639 310.343 647.646 303.855 647.623C303.219 647.623 302.794 647.819 302.381 648.306C296.391 655.323 290.385 662.328 284.384 669.334C280.975 673.311 277.559 677.281 274.162 681.271C273.733 681.774 273.289 682.009 272.615 681.997C270.175 681.954 267.736 681.982 265.292 681.978C265.074 681.978 264.767 682.08 264.668 681.821C264.572 681.573 264.855 681.424 265.001 681.255C272.956 671.976 280.918 662.698 288.873 653.419C290.5 651.522 292.12 649.622 293.836 647.611L293.832 647.603Z" fill="#D44AB5"/>
<path d="M50.4098 637.001C41.0138 636.889 33.3252 644.498 33.2409 653.98C33.1618 663.563 40.5659 671.21 50.0251 671.306C59.4369 671.408 66.9094 663.868 66.9937 654.194C67.0727 644.879 59.5739 637.103 50.4098 637.001ZM49.9882 668.823C41.9887 668.775 35.6439 662.227 35.6597 654.044C35.6755 646.005 42.2627 639.398 50.2095 639.457C58.2195 639.516 64.6065 646.08 64.5538 654.215C64.5064 662.479 58.13 668.872 49.9882 668.823V668.823Z" fill="#FAF4E6"/>
<path d="M226.702 651.896C228.944 651.896 231.186 651.944 233.422 651.874C234.335 651.847 234.57 652.167 234.624 653.03C235.147 661.231 229.723 668.357 221.748 669.91C213.516 671.511 205.696 666.371 203.608 657.996C201.559 649.784 206.101 641.35 214.055 638.897C219.66 637.165 224.801 638.294 229.301 642.158C229.686 642.49 230.518 642.815 229.67 643.537C229.12 644.004 228.826 644.867 227.801 643.922C223.579 640.047 217.365 639.331 212.507 642.023C207.254 644.932 204.671 650.403 205.567 656.715C206.299 661.855 210.81 666.479 216.217 667.619C224.134 669.285 231.816 663.348 232.344 655.185C232.397 654.376 232.131 654.229 231.426 654.235C227.625 654.262 223.824 654.213 220.018 654.273C219.041 654.289 218.812 653.969 218.812 653.024C218.812 652.102 219.079 651.852 219.975 651.879C222.212 651.944 224.46 651.901 226.696 651.901L226.702 651.896Z" fill="#FAF4E6"/>
<path d="M23.839 659.831C22.8767 658.706 23.0946 657.994 24.5035 657.538C24.7321 657.462 24.9608 657.391 25.184 657.304C29.4426 655.739 32.0477 651.43 31.5107 646.839C31.0428 642.84 27.8263 639.9 23.2382 639.433C19.2667 639.025 15.2794 639.318 11.2973 639.275C10.2765 639.264 9.99476 639.954 10.0001 640.916C10.0213 645.312 10.0107 649.708 10.0107 654.098C10.0107 658.489 10.0107 663.053 10.0054 667.53C10.0054 668.133 10.0586 668.704 10.6646 668.965C11.0846 669.144 11.5206 669.128 11.8874 668.774C12.2915 668.394 12.249 667.894 12.2543 667.411C12.2543 664.808 12.2702 662.2 12.249 659.597C12.2383 658.478 12.6902 657.951 13.8227 657.994C15.0561 658.037 16.3054 658.108 17.5282 657.978C18.8361 657.836 19.6602 658.396 20.4683 659.363C22.9936 662.401 25.604 665.368 28.1666 668.372C28.661 668.948 29.2299 669.372 29.9104 668.872C30.7079 668.285 30.4899 667.574 29.9104 666.894C27.8795 664.547 25.8539 662.194 23.8443 659.831H23.839ZM20.2025 655.679C18.0918 655.685 15.9759 655.696 13.8652 655.679C12.552 655.668 12.2702 655.364 12.2596 654C12.2436 652.169 12.2543 650.338 12.2543 648.501V643.128C12.2543 642.383 12.4031 641.644 13.2963 641.644C16.6829 641.633 20.0908 641.313 23.4455 641.796C27.0289 642.312 29.2193 644.703 29.3522 647.784C29.4957 651.175 27.1777 654.375 23.8762 655.337C22.6693 655.69 21.4359 655.679 20.2025 655.679V655.679Z" fill="#FAF4E6"/>
<path d="M192.653 659.853C191.376 658.367 191.472 658.047 193.371 657.482C197.83 656.164 200.709 651.851 200.315 647.087C199.98 642.991 196.702 639.904 192.025 639.426C188.013 639.02 183.975 639.334 179.952 639.258C178.989 639.237 178.765 639.801 178.771 640.674C178.792 645.145 178.781 649.621 178.781 654.092C178.781 658.562 178.787 663.033 178.771 667.503C178.771 668.361 178.824 669.044 179.941 669.028C181.021 669.017 181.016 668.312 181.016 667.541C181.011 664.856 181.037 662.17 181 659.49C180.989 658.432 181.303 657.906 182.437 657.954C183.99 658.02 185.549 657.998 187.103 657.954C187.763 657.938 188.221 658.155 188.646 658.665C189.913 660.184 191.216 661.666 192.509 663.158C194.036 664.932 195.558 666.7 197.091 668.469C197.713 669.196 198.554 669.294 199.203 668.735C199.932 668.106 199.256 667.509 198.815 666.999C196.761 664.612 194.707 662.23 192.653 659.853ZM188.545 655.649C186.63 655.654 184.714 655.654 182.804 655.649C181.112 655.649 181.016 655.556 181.016 653.885C181.011 652.138 181.016 650.391 181.016 648.644V642.915C181.016 642.264 181.101 641.613 181.915 641.618C185.342 641.64 188.79 641.309 192.19 641.776C195.771 642.269 197.958 644.64 198.133 647.727C198.32 651.07 195.984 654.319 192.696 655.296C191.333 655.703 189.934 655.643 188.545 655.649V655.649Z" fill="#FAF4E6"/>
<path d="M279.559 659.731C278.777 658.779 279 658.007 280.109 657.598C280.435 657.479 280.782 657.408 281.108 657.277C285.04 655.738 287.671 651.346 287.163 647.184C286.625 642.815 283.672 639.92 279.161 639.43C275.483 639.028 271.79 639.321 268.107 639.256C266.413 639.229 266.201 639.468 266.201 641.199C266.196 645.519 266.201 649.839 266.201 654.16V667.61C266.196 668.432 266.382 669.112 267.33 669.079C268.19 669.047 268.387 668.421 268.387 667.638C268.376 665.559 268.387 663.48 268.382 661.402C268.366 657.74 268.18 658.219 271.567 657.952C274.261 657.745 276.053 658.643 277.659 660.874C279.57 663.535 281.807 665.934 283.921 668.432C284.677 669.33 285.615 669.303 285.987 668.421C286.257 667.779 285.92 667.338 285.552 666.898C283.553 664.509 281.543 662.136 279.559 659.731V659.731ZM275.965 655.694C273.945 655.699 271.93 655.678 269.91 655.705C268.837 655.721 268.34 655.27 268.371 654.105C268.413 652.271 268.382 650.438 268.382 648.599C268.387 646.727 268.387 644.85 268.382 642.972C268.382 642.227 268.63 641.634 269.407 641.634C272.67 641.623 275.949 641.335 279.181 641.77C282.693 642.238 284.858 644.621 284.988 647.69C285.143 651.249 282.957 654.383 279.663 655.357C278.446 655.721 277.208 655.689 275.965 655.694V655.694Z" fill="#FAF4E6"/>
<path d="M79.9906 638.112C82.6305 638.112 85.1323 638.656 87.3472 640.179C89.2488 641.49 90.4758 643.28 90.6883 645.684C90.7201 646.037 90.9113 646.625 90.2261 646.5C89.6419 646.391 88.6858 646.989 88.5105 646.081C87.7297 641.996 84.7179 640.957 81.3451 640.478C78.9814 640.141 76.6549 640.522 74.5356 641.73C72.5915 642.839 71.4176 644.46 71.5451 646.864C71.6673 649.154 73.0483 650.47 74.9286 651.319C77.2976 652.396 79.8525 652.874 82.3331 653.582C83.7885 653.995 85.2332 654.441 86.5983 655.105C91.3894 657.438 92.2445 663.769 88.2661 667.392C84.1602 671.128 75.8688 671.139 71.7576 667.413C70.3288 666.119 69.4895 664.509 69.2983 662.551C69.2558 662.121 69.1974 661.637 69.8135 661.751C70.3978 661.855 71.3539 661.251 71.5133 662.219C72.1294 665.907 74.7852 667.109 77.8447 667.68C80.304 668.137 82.7686 667.908 85.0685 666.772C87.1719 665.733 88.4839 664.068 88.4573 661.615C88.4308 659.2 86.9489 657.781 84.9039 656.894C82.4446 655.822 79.81 655.36 77.2604 654.593C75.9644 654.202 74.6737 653.799 73.452 653.206C68.4059 650.753 67.7208 644.063 72.1453 640.544C74.1266 638.972 76.8886 638.112 79.98 638.107L79.9906 638.112Z" fill="#FAF4E6"/>
<path d="M157.19 654.208C157.19 649.8 157.19 645.392 157.19 640.978C157.19 639.578 157.517 639.218 158.839 639.218C163.819 639.207 168.794 639.218 173.774 639.218C174.617 639.218 175.455 639.294 175.429 640.444C175.403 641.507 174.607 641.577 173.806 641.577C169.579 641.577 165.353 641.577 161.127 641.577C159.672 641.577 159.461 641.79 159.456 643.266C159.445 645.555 159.451 647.838 159.456 650.127C159.456 651.696 159.672 651.914 161.163 651.914C164.837 651.914 168.51 651.914 172.188 651.914C172.504 651.914 172.836 651.876 173.131 651.968C173.674 652.132 174.006 652.557 173.964 653.156C173.927 653.685 173.637 654.082 173.094 654.17C172.746 654.224 172.388 654.235 172.035 654.235C168.399 654.235 164.768 654.235 161.132 654.24C159.714 654.24 159.472 654.496 159.466 655.951C159.456 659.014 159.456 662.076 159.466 665.138C159.466 666.571 159.735 666.833 161.148 666.833C165.216 666.833 169.284 666.833 173.358 666.833C173.632 666.833 173.911 666.833 174.185 666.833C174.923 666.822 175.434 667.132 175.45 667.95C175.466 668.767 174.965 669.094 174.222 669.094C168.968 669.094 163.714 669.094 158.46 669.094C157.38 669.094 157.195 668.369 157.195 667.448C157.206 663.04 157.2 658.632 157.2 654.219L157.19 654.208Z" fill="#FAF4E6"/>
<path d="M119.837 667.058C115.894 658.303 111.941 649.549 107.999 640.794C107.756 640.259 107.504 639.766 106.83 639.766C106.156 639.766 105.904 640.291 105.667 640.815C101.724 649.57 97.7816 658.33 93.8338 667.085C93.5074 667.804 93.3074 668.529 94.1759 668.945C95.0708 669.378 95.5498 668.805 95.8972 668.015C96.9236 665.701 97.9974 663.408 98.987 661.077C99.3765 660.169 99.9187 659.817 100.887 659.834C104.161 659.882 107.435 659.817 110.709 659.861C114.92 659.92 113.741 659.168 115.584 663.089C116.384 664.798 117.147 666.523 117.921 668.248C118.205 668.875 118.631 669.205 119.326 669.026C119.863 668.896 120.116 668.534 120.116 667.81C120.063 667.658 119.968 667.35 119.837 667.058V667.058ZM111.225 657.757C109.772 657.779 108.314 657.762 106.856 657.762C105.398 657.762 103.946 657.779 102.493 657.757C101.245 657.741 100.829 657.119 101.335 655.978C102.793 652.679 104.293 649.397 105.761 646.104C105.993 645.585 106.298 645.19 106.883 645.206C107.42 645.217 107.714 645.607 107.92 646.072C109.399 649.359 110.894 652.642 112.352 655.94C112.857 657.087 112.436 657.741 111.225 657.757V657.757Z" fill="#FAF4E6"/>
<path d="M315.873 666.888C315.783 666.628 315.646 666.384 315.53 666.134C311.698 657.789 307.866 649.445 304.029 641.105C303.755 640.51 303.571 639.766 302.711 639.766C301.852 639.761 301.678 640.489 301.399 641.094C297.846 648.828 294.294 656.557 290.747 664.291C290.33 665.189 289.888 666.076 289.534 667C289.213 667.834 289.745 668.572 290.573 668.53C291.237 668.498 291.495 668.025 291.732 667.494C292.734 665.3 293.82 663.138 294.737 660.907C295.211 659.749 295.902 659.415 297.082 659.436C300.477 659.5 303.882 659.601 307.265 659.409C309.369 659.287 310.497 659.967 311.198 661.964C311.904 663.972 312.932 665.863 313.838 667.802C314.16 668.487 314.724 668.716 315.404 668.402C316.078 668.1 316.094 667.505 315.873 666.888V666.888ZM307.097 657.423C305.637 657.444 304.177 657.428 302.717 657.428C301.257 657.428 299.791 657.444 298.337 657.423C297.124 657.402 296.692 656.738 297.193 655.633C298.648 652.424 300.145 649.237 301.599 646.034C301.831 645.519 302.126 645.121 302.706 645.11C303.291 645.105 303.586 645.519 303.818 646.024C305.284 649.227 306.775 652.414 308.23 655.622C308.731 656.722 308.288 657.402 307.097 657.423V657.423Z" fill="#FAF4E6"/>
<path d="M262.041 666.506C258.121 657.969 254.195 649.442 250.28 640.911C250.028 640.352 249.79 639.783 249.074 639.767C248.289 639.746 248.052 640.363 247.783 640.958C245.891 645.102 243.989 649.246 242.093 653.384C240.075 657.777 238.057 662.171 236.033 666.559C235.68 667.325 235.538 668.054 236.486 668.442C237.271 668.756 237.735 668.277 238.046 667.586C239.11 665.24 240.206 662.91 241.244 660.554C241.597 659.751 242.119 659.426 242.978 659.432C247.045 659.458 251.113 659.453 255.175 659.437C255.981 659.432 256.508 659.724 256.83 660.49C257.272 661.549 257.778 662.58 258.258 663.628C258.9 665.033 259.533 666.442 260.191 667.841C260.46 668.421 260.94 668.65 261.556 668.474C262.078 668.325 262.32 667.942 262.325 667.283C262.257 667.091 262.172 666.788 262.041 666.506V666.506ZM253.342 657.426C251.882 657.448 250.417 657.432 248.958 657.426C247.541 657.426 246.118 657.448 244.695 657.426C243.489 657.405 243.051 656.74 243.552 655.628C244.99 652.41 246.471 649.208 247.931 646.001C248.157 645.496 248.473 645.118 249.074 645.134C249.68 645.15 249.959 645.559 250.186 646.059C251.635 649.23 253.099 652.394 254.527 655.57C255.059 656.751 254.627 657.41 253.342 657.432V657.426Z" fill="#FAF4E6"/>
<path d="M130.082 641.027C130.066 640.422 130.27 640.052 130.737 639.87C131.231 639.682 131.714 639.73 132.03 640.186C132.256 640.507 132.406 640.888 132.562 641.257C135.444 647.986 138.321 654.714 141.193 661.442C141.462 662.064 141.623 662.782 142.519 662.782C143.421 662.782 143.576 662.032 143.839 661.426C146.722 654.698 149.594 647.97 152.471 641.236C152.551 641.054 152.632 640.872 152.707 640.684C153.002 639.929 153.534 639.554 154.307 639.891C155.101 640.234 155.09 640.882 154.779 641.605C153.163 645.35 151.564 649.105 149.964 652.855C147.924 657.639 145.895 662.423 143.845 667.201C143.582 667.812 143.41 668.54 142.508 668.54C141.617 668.54 141.451 667.823 141.182 667.201C137.597 658.817 134.011 650.434 130.436 642.045C130.28 641.686 130.034 641.338 130.082 641.022V641.027Z" fill="#FAF4E6"/>
<path d="M55.9273 654.106C55.9431 657.439 53.3351 660.212 50.1568 660.24C46.8994 660.273 44.3019 657.539 44.3071 654.101C44.3124 650.696 46.8466 648.056 50.104 648.067C53.3351 648.072 55.9115 650.741 55.9273 654.106V654.106Z" fill="#D44AB5"/>
<path d="M191.296 678.588C192.043 677.09 192.666 675.857 193.264 674.614C193.442 674.243 193.649 673.962 194.099 674.068C194.599 674.183 194.396 674.609 194.396 674.895C194.416 676.433 194.416 677.972 194.396 679.51C194.396 679.796 194.603 680.312 194.099 680.317C193.496 680.327 193.758 679.761 193.753 679.455C193.723 678.182 193.738 676.904 193.546 675.536C193.002 676.639 192.478 677.746 191.909 678.834C191.751 679.139 191.726 679.671 191.262 679.635C190.837 679.605 190.797 679.099 190.639 678.784C190.1 677.721 189.596 676.644 188.854 675.591C188.854 676.899 188.869 678.212 188.844 679.52C188.839 679.806 189.052 680.302 188.538 680.322C188.009 680.347 188.197 679.841 188.192 679.56C188.172 677.987 188.172 676.408 188.192 674.834C188.192 674.549 188.004 674.123 188.553 674.063C188.968 674.013 189.146 674.248 189.304 674.579C189.922 675.842 190.555 677.1 191.296 678.593V678.588Z" fill="#FAF4E6"/>
<path d="M209.047 680.662C208.835 680.152 208.523 680.672 208.282 680.775C207.715 681.025 207.205 680.849 206.959 680.393C206.632 679.794 207.363 679.882 207.609 679.691C208.739 678.818 209.186 677.292 208.638 675.948C208.07 674.575 206.604 673.795 205.194 674.118C203.799 674.437 202.813 675.688 202.809 677.405C202.852 678.425 203.4 679.461 204.579 679.917C205.387 680.226 206.161 680.476 206.781 681.133C207.214 681.594 207.82 681.609 208.398 681.349C208.705 681.212 209.234 681.109 209.047 680.662V680.662ZM205.844 679.598C204.521 679.593 203.448 678.479 203.463 677.125C203.477 675.757 204.545 674.707 205.901 674.722C207.176 674.731 208.21 675.806 208.22 677.125C208.229 678.489 207.161 679.603 205.844 679.598V679.598Z" fill="#FAF4E6"/>
<path d="M55.6506 679.103C55.6506 677.425 55.6457 676.057 55.6556 674.689C55.6556 674.454 55.5476 674.11 55.9352 674.075C56.4208 674.035 56.3031 674.439 56.308 674.704C56.3178 676.347 56.3178 677.99 56.308 679.638C56.308 679.867 56.4404 680.197 56.0872 680.297C55.7537 680.397 55.5427 680.197 55.3563 679.937C54.3949 678.619 53.4236 677.306 52.4523 675.987C52.3444 675.837 52.2217 675.698 51.9029 675.293C51.9029 676.711 51.9029 677.865 51.9029 679.023C51.9029 679.323 51.9029 679.623 51.898 679.922C51.8931 680.117 51.8489 680.292 51.6086 680.307C51.2995 680.332 51.2505 680.117 51.2505 679.877C51.2505 678.085 51.2505 676.292 51.2505 674.494C51.2505 674.314 51.2456 674.11 51.4859 674.06C51.8244 673.99 52.0255 674.185 52.2168 674.439C53.1587 675.728 54.1055 677.016 55.0522 678.299C55.1846 678.479 55.322 678.654 55.6605 679.098L55.6506 679.103Z" fill="#FAF4E6"/>
<path d="M300.342 675.247C300.342 676.975 300.342 678.348 300.342 679.722C300.342 679.962 300.415 680.306 300.027 680.301C299.557 680.296 299.702 679.887 299.697 679.627C299.683 678.019 299.683 676.411 299.697 674.807C299.697 674.548 299.523 674.168 299.95 674.063C300.284 673.978 300.478 674.213 300.662 674.463C301.612 675.781 302.572 677.095 303.532 678.413C303.638 678.558 303.755 678.698 304.051 679.083C304.051 677.509 304.036 676.196 304.06 674.882C304.065 674.598 303.857 674.103 304.356 674.078C304.875 674.053 304.69 674.553 304.695 674.837C304.715 676.371 304.715 677.904 304.695 679.432C304.695 679.727 304.904 680.161 304.458 680.296C304.017 680.431 303.828 680.026 303.614 679.732C302.591 678.333 301.573 676.93 300.347 675.242L300.342 675.247Z" fill="#FAF4E6"/>
<path d="M165.661 679.13C165.661 677.452 165.651 676.119 165.671 674.78C165.671 674.52 165.515 674.111 165.962 674.071C166.443 674.026 166.312 674.451 166.317 674.715C166.332 676.358 166.327 678.001 166.317 679.649C166.317 679.879 166.443 680.209 166.084 680.303C165.753 680.388 165.549 680.184 165.364 679.924C164.3 678.456 163.23 676.997 161.952 675.25C161.952 676.863 161.966 678.176 161.942 679.484C161.937 679.769 162.146 680.264 161.641 680.283C161.125 680.303 161.305 679.804 161.305 679.524C161.286 677.991 161.286 676.458 161.305 674.93C161.305 674.635 161.096 674.211 161.548 674.071C161.937 673.951 162.132 674.276 162.331 674.545C163.376 675.979 164.421 677.417 165.671 679.135L165.661 679.13Z" fill="#FAF4E6"/>
<path d="M182.138 679.034C182.138 677.395 182.138 676.01 182.138 674.631C182.138 674.386 182.074 674.056 182.444 674.056C182.815 674.056 182.746 674.391 182.746 674.636C182.755 676.28 182.76 677.93 182.746 679.574C182.746 679.829 182.915 680.214 182.499 680.309C182.174 680.384 182 680.144 181.831 679.894C180.953 678.605 180.07 677.315 179.187 676.03C179.068 675.855 178.936 675.695 178.638 675.311C178.638 676.92 178.647 678.275 178.634 679.634C178.634 679.894 178.766 680.319 178.318 680.299C177.893 680.279 178.034 679.864 178.03 679.604C178.016 677.995 178.016 676.385 178.03 674.781C178.03 674.526 177.861 674.141 178.291 674.056C178.615 673.991 178.785 674.236 178.954 674.481C179.873 675.83 180.797 677.18 181.721 678.525C181.799 678.635 181.891 678.734 182.142 679.034H182.138Z" fill="#FAF4E6"/>
<path d="M86.4883 676.872C86.1475 674.765 84.957 673.736 81.6771 674.127C80.052 674.325 81.3807 675.829 80.9757 676.635C80.9016 676.783 80.9609 677.001 80.9609 677.184C80.9609 679.473 81.8945 680.51 83.7616 680.295C83.7962 680.29 83.8357 680.29 83.8703 680.281C85.5103 680.033 86.755 678.515 86.4883 676.872V676.872ZM85.8363 677.55C85.6684 678.698 84.7446 679.558 83.5888 679.637C83.3714 679.652 83.1491 679.637 82.7639 679.637C81.7562 679.939 81.5092 679.356 81.6179 678.337C81.6821 677.753 81.603 677.154 81.6376 676.566C81.6722 675.987 81.3412 675.136 81.8006 674.889C82.4774 674.518 83.3862 674.641 84.1716 674.859C85.2979 675.176 86.0092 676.388 85.8363 677.55V677.55Z" fill="#FAF4E6"/>
<path d="M67.4549 677.898C68.298 677.298 68.444 676.392 68.152 675.415C67.8694 674.469 67.1253 674.134 66.268 674.069C65.6746 674.024 65.0717 674.084 64.4736 674.049C63.9602 674.014 63.8095 674.239 63.8189 674.76C63.8424 676.367 63.8189 677.973 63.8377 679.585C63.8377 679.861 63.6493 680.356 64.1862 680.321C64.6101 680.286 64.4877 679.845 64.45 679.605C64.2616 678.444 64.7844 678.259 65.7405 678.299C66.4188 678.329 66.5978 678.779 66.9227 679.21C67.2524 679.65 67.2948 680.511 68.2651 680.286C67.9118 679.7 67.648 679.215 67.3419 678.764C67.097 678.409 67.031 678.194 67.4549 677.898V677.898ZM66.334 677.633C65.7217 677.598 64.8174 677.988 64.5725 677.438C64.2757 676.767 64.3746 675.816 64.5207 675.035C64.6384 674.419 65.3072 674.875 65.6369 674.73C66.122 674.74 66.5412 674.69 66.9321 674.92C67.4078 675.195 67.6433 675.616 67.6386 676.186C67.6292 676.747 67.4314 677.207 66.9321 677.448C66.7437 677.543 66.5318 677.643 66.334 677.633V677.633Z" fill="#FAF4E6"/>
<path d="M261.58 677.786C262.292 677.276 262.405 676.426 262.212 675.571C262.009 674.651 261.358 674.196 260.537 674.096C259.806 674.006 259.06 674.076 258.32 674.046C257.853 674.026 257.824 674.321 257.824 674.691C257.829 676.336 257.82 677.981 257.834 679.62C257.834 679.88 257.692 680.295 258.131 680.31C258.589 680.325 258.442 679.91 258.461 679.645C258.541 678.356 258.928 678.046 260.108 678.326C260.764 678.481 260.82 679.195 261.169 679.63C261.443 679.98 261.556 680.565 262.24 680.215C261.967 679.765 261.731 679.305 261.434 678.895C261.108 678.446 261.028 678.176 261.58 677.786V677.786ZM259.594 677.641C258.324 677.626 258.475 677.861 258.461 676.011C258.381 675.336 258.31 674.571 259.608 674.691C261.037 674.826 261.655 675.156 261.646 676.186C261.636 677.216 261.033 677.656 259.594 677.641V677.641Z" fill="#FAF4E6"/>
<path d="M73.1528 674.046C71.4637 674.006 70.083 675.412 70.083 677.182C70.083 678.952 71.3973 680.303 73.0484 680.323C74.6901 680.338 76.0376 678.962 76.0613 677.237C76.085 675.507 74.7897 674.091 73.1528 674.046V674.046ZM73.1243 679.68C71.8148 679.7 70.7378 678.593 70.7283 677.217C70.7188 675.826 71.7531 674.734 73.0864 674.724C74.3485 674.714 75.3828 675.776 75.416 677.117C75.454 678.503 74.4196 679.66 73.1243 679.68Z" fill="#FAF4E6"/>
<path d="M294.775 674.047C293.143 674.102 291.853 675.532 291.89 677.262C291.924 678.982 293.29 680.352 294.927 680.322C296.578 680.288 297.878 678.887 297.868 677.157C297.854 675.388 296.464 673.992 294.775 674.047V674.047ZM294.913 679.679C293.608 679.689 292.536 678.573 292.531 677.202C292.531 675.811 293.57 674.725 294.903 674.725C296.165 674.72 297.195 675.792 297.223 677.137C297.251 678.523 296.208 679.669 294.913 679.679V679.679Z" fill="#FAF4E6"/>
<path d="M267.079 674.045C265.395 674.045 264.052 675.496 264.09 677.266C264.128 678.986 265.494 680.357 267.131 680.322C268.782 680.282 270.082 678.881 270.068 677.151C270.049 675.426 268.72 674.045 267.079 674.045V674.045ZM267.112 679.679C265.808 679.689 264.735 678.572 264.731 677.201C264.731 675.81 265.77 674.723 267.107 674.723C268.369 674.718 269.399 675.79 269.423 677.136C269.451 678.522 268.407 679.669 267.112 679.679V679.679Z" fill="#FAF4E6"/>
<path d="M156.333 674.049C154.693 673.969 153.286 675.285 153.191 676.995C153.096 678.765 154.381 680.251 156.072 680.32C157.703 680.39 159.101 679.034 159.162 677.319C159.224 675.594 157.963 674.134 156.333 674.049V674.049ZM156.139 679.682C154.84 679.657 153.798 678.501 153.836 677.13C153.873 675.739 154.94 674.692 156.276 674.727C157.527 674.757 158.532 675.868 158.518 677.215C158.508 678.6 157.437 679.707 156.139 679.682V679.682Z" fill="#FAF4E6"/>
<path d="M45.1114 677.135C45.1114 676.19 44.7433 674.932 45.2083 674.383C45.7557 673.732 47.0393 674.236 48.0033 674.163C48.1825 674.148 48.3666 674.158 48.5458 674.163C48.7686 674.173 49.006 674.187 48.9914 674.501C48.9769 674.809 48.7347 674.809 48.5216 674.814C47.8337 674.824 47.1362 674.878 46.4581 674.804C45.5377 674.701 45.6588 675.314 45.6976 675.847C45.7315 676.347 45.373 677.116 46.4193 677.027C46.9957 676.978 47.577 677.013 48.1583 677.027C48.3617 677.027 48.6427 676.978 48.662 677.292C48.6863 677.674 48.3714 677.644 48.1244 677.649C47.6884 677.659 47.2573 677.649 46.8214 677.649C45.809 677.649 45.2858 678.492 45.7121 679.412C45.8622 679.735 46.1238 679.652 46.3563 679.657C47.1507 679.672 47.95 679.662 48.7492 679.667C48.9866 679.667 49.1803 679.73 49.1561 680.034C49.1367 680.279 48.9575 680.313 48.7734 680.318C47.6884 680.318 46.5985 680.313 45.5135 680.323C45.0146 680.328 45.0388 680 45.0388 679.657C45.0388 678.815 45.0388 677.972 45.0388 677.13H45.1163L45.1114 677.135Z" fill="#FAF4E6"/>
<path d="M88.4196 677.196C88.5153 676.213 88.0224 674.946 88.6158 674.368C89.2523 673.751 90.5206 674.214 91.5112 674.185C91.8032 674.175 92.3535 673.944 92.32 674.537C92.2961 674.999 91.8127 674.787 91.5303 674.811C91.1044 674.845 90.6641 674.874 90.243 674.811C89.305 674.671 89.0035 675.004 89.0514 675.972C89.0896 676.743 89.2141 677.109 90.0563 676.999C90.5828 676.931 91.1283 676.984 91.6643 676.994C91.8462 676.994 92.0329 677.042 92.0329 677.278C92.0329 677.495 91.8701 677.586 91.6787 677.591C91.0326 677.601 90.3866 677.635 89.7453 677.591C88.8791 677.538 89.104 678.155 89.0896 678.608C89.0753 679.09 88.9317 679.653 89.774 679.591C90.4871 679.533 91.2049 679.571 91.9228 679.586C92.1477 679.586 92.4779 679.489 92.5018 679.875C92.5258 680.357 92.1381 680.198 91.8845 680.231C91.7457 680.251 91.5974 680.236 91.4538 680.231C90.4919 680.207 89.2188 680.545 88.6589 680.058C87.9985 679.485 88.544 678.164 88.4196 677.191V677.196Z" fill="#FAF4E6"/>
<path d="M171.72 677.132C171.72 676.316 171.729 675.494 171.72 674.678C171.715 674.29 171.779 674.036 172.212 674.046C173.132 674.066 174.052 674.046 174.972 674.056C175.168 674.056 175.409 674.036 175.437 674.344C175.469 674.743 175.182 674.713 174.954 674.718C174.307 674.728 173.656 674.772 173.014 674.713C172.226 674.638 172.289 675.205 172.353 675.708C172.412 676.191 171.97 677.012 172.977 676.963C173.519 676.938 174.066 676.948 174.612 676.963C174.831 676.968 175.159 676.883 175.141 677.281C175.122 677.645 174.813 677.59 174.585 677.595C174.075 677.605 173.56 677.645 173.054 677.59C172.203 677.495 172.344 678.122 172.344 678.665C172.344 679.178 172.23 679.735 173.023 679.661C173.733 679.596 174.453 679.646 175.168 679.651C175.368 679.651 175.592 679.651 175.605 679.969C175.619 680.293 175.405 680.313 175.195 680.313C174.207 680.313 173.218 680.303 172.23 680.323C171.806 680.333 171.72 680.099 171.724 679.7C171.738 678.844 171.724 677.988 171.724 677.132H171.72Z" fill="#FAF4E6"/>
<path d="M242.39 677.053C242.457 676.253 241.979 674.977 242.558 674.382C243.185 673.739 244.457 674.221 245.443 674.187C245.74 674.177 246.3 673.953 246.266 674.528C246.238 675.05 245.697 674.787 245.386 674.821C244.998 674.865 244.591 674.874 244.209 674.821C243.309 674.694 242.96 674.957 242.993 675.976C243.022 676.863 243.28 677.126 244.094 677.028C244.515 676.975 244.95 677.009 245.381 677.028C245.606 677.038 245.946 676.926 245.97 677.306C245.994 677.686 245.663 677.637 245.424 677.647C245.032 677.657 244.625 677.71 244.247 677.642C243.122 677.442 242.931 678.013 243.012 678.987C243.055 679.509 243.199 679.684 243.706 679.665C244.457 679.63 245.209 679.655 245.96 679.665C246.161 679.665 246.415 679.626 246.448 679.937C246.491 680.332 246.204 680.313 245.955 680.313C244.955 680.313 243.95 680.293 242.95 680.322C242.433 680.337 242.376 680.054 242.381 679.64C242.395 678.841 242.381 678.037 242.381 677.057L242.39 677.053Z" fill="#FAF4E6"/>
<path d="M277.344 677.199C277.44 676.215 276.947 674.942 277.54 674.368C278.177 673.751 279.445 674.214 280.435 674.185C280.722 674.175 281.277 673.939 281.244 674.537C281.22 675 280.737 674.788 280.454 674.812C280.028 674.846 279.588 674.874 279.167 674.812C278.229 674.672 277.928 675 277.976 675.974C278.014 676.74 278.134 677.112 278.98 677.001C279.507 676.933 280.052 676.986 280.588 676.996C280.77 676.996 280.957 677.044 280.957 677.28C280.957 677.502 280.799 677.589 280.603 677.594C279.957 677.604 279.311 677.637 278.669 677.594C277.808 677.541 278.028 678.153 278.014 678.611C278 679.093 277.856 679.662 278.698 679.595C279.411 679.537 280.129 679.576 280.847 679.59C281.072 679.59 281.402 679.494 281.426 679.875C281.454 680.352 281.062 680.198 280.808 680.231C280.67 680.251 280.521 680.236 280.378 680.231C279.416 680.207 278.143 680.545 277.578 680.058C276.918 679.484 277.464 678.163 277.339 677.194L277.344 677.199Z" fill="#FAF4E6"/>
<path d="M106.93 674.5C106.833 674.256 106.727 674.056 106.417 674.046C106.048 674.031 105.955 674.305 105.845 674.575C105.083 676.446 104.325 678.322 103.563 680.198C104.099 680.512 104.312 680.188 104.418 679.749C104.621 678.92 105.092 678.626 105.863 678.751C106.232 678.811 106.625 678.801 106.999 678.751C107.673 678.666 108.121 678.856 108.315 679.634C108.417 680.048 108.597 680.532 109.243 680.208C108.472 678.302 107.701 676.401 106.93 674.5V674.5ZM105.124 678.052C105.531 677.015 105.905 676.047 106.376 674.839C106.851 676.012 107.234 676.97 107.673 678.052H105.124Z" fill="#FAF4E6"/>
<path d="M119.363 674.501C119.261 674.251 119.145 674.056 118.824 674.046C118.43 674.026 118.338 674.306 118.226 674.575C117.419 676.447 116.622 678.324 115.82 680.201C116.384 680.51 116.607 680.186 116.719 679.751C116.933 678.923 117.429 678.628 118.24 678.753C118.634 678.813 119.047 678.803 119.441 678.753C120.146 678.668 120.622 678.858 120.821 679.637C120.928 680.056 121.118 680.535 121.798 680.211C120.987 678.304 120.175 676.402 119.363 674.501V674.501ZM117.565 678.054C117.769 676.976 118.338 676.083 118.77 674.775C119.3 676.048 119.704 677.011 120.136 678.054H117.565Z" fill="#FAF4E6"/>
<path d="M142.709 680.049C142.685 679.979 142.667 679.904 142.639 679.839C141.892 678.038 141.141 676.236 140.399 674.429C140.286 674.155 140.117 674.041 139.836 674.046C139.451 674.055 139.404 674.389 139.296 674.643C138.61 676.271 137.934 677.903 137.272 679.541C137.183 679.77 136.85 680.078 137.202 680.268C137.573 680.467 137.709 680.088 137.869 679.775C138.085 679.362 138.066 678.645 138.775 678.759C139.953 678.939 141.545 678.003 142.042 680.088C142.103 680.337 142.371 680.327 142.587 680.282C142.7 680.263 142.751 680.173 142.709 680.049V680.049ZM138.606 678.028C139.005 677.002 139.376 676.056 139.803 674.961C140.451 675.917 140.662 676.952 141.174 677.963C140.301 678.167 139.507 678.067 138.606 678.028V678.028Z" fill="#FAF4E6"/>
<path d="M233.892 674.619C233.779 674.365 233.711 674.067 233.316 674.047C232.862 674.022 232.784 674.365 232.657 674.653C231.964 676.25 231.275 677.847 230.606 679.458C230.504 679.707 230.06 680.04 230.504 680.264C230.977 680.498 231.129 679.981 231.217 679.652C231.427 678.832 231.949 678.658 232.686 678.737C233.12 678.787 233.57 678.787 233.999 678.737C234.687 678.653 235.088 678.906 235.293 679.598C235.41 680.006 235.571 680.503 236.289 680.195C235.469 678.289 234.687 676.454 233.892 674.619V674.619ZM232.027 678.041C232.237 676.966 232.803 676.071 233.199 674.912C233.833 675.972 234.165 676.986 234.575 678.041H232.027Z" fill="#FAF4E6"/>
<path d="M199.461 674.55C199.16 673.882 198.694 673.872 198.389 674.55C197.549 676.424 196.748 678.323 195.933 680.207C196.515 680.509 196.724 680.173 196.845 679.743C197.069 678.931 197.554 678.63 198.374 678.768C198.762 678.833 199.175 678.818 199.568 678.768C200.286 678.679 200.737 678.902 200.936 679.658C201.048 680.079 201.247 680.544 201.912 680.207C201.096 678.318 200.305 676.419 199.461 674.545V674.55ZM197.593 678.061C198.01 677.037 198.398 676.103 198.854 674.985C199.471 676.024 199.801 677.027 200.204 678.061H197.593V678.061Z" fill="#FAF4E6"/>
<path d="M309.774 674.551C309.473 673.884 309.007 673.869 308.701 674.551C307.851 676.424 307.054 678.322 306.238 680.214C306.802 680.496 307.035 680.19 307.146 679.755C307.355 678.92 307.865 678.653 308.671 678.771C309.065 678.826 309.473 678.821 309.866 678.771C310.58 678.687 311.042 678.89 311.246 679.656C311.352 680.071 311.547 680.54 312.217 680.209C311.406 678.322 310.609 676.429 309.774 674.556V674.551ZM307.89 678.08C308.327 677.017 308.71 676.078 309.157 674.986C309.789 676.014 310.109 677.032 310.532 678.08H307.89V678.08Z" fill="#FAF4E6"/>
<path d="M114.1 674.161C113.606 674.001 113.112 674.076 112.718 674.051C112.262 674.051 111.911 674.061 111.554 674.046C111.208 674.036 111.037 674.166 111.037 674.561C111.046 676.316 111.037 678.076 111.041 679.831C111.041 680.046 111.027 680.296 111.331 680.321C111.635 680.346 111.711 680.111 111.668 679.886C111.374 678.361 112.172 678.156 113.326 678.306C113.592 678.341 113.887 678.236 114.157 678.156C115.117 677.871 115.521 677.136 115.521 676.141C115.521 675.121 115.041 674.461 114.1 674.161V674.161ZM112.737 677.676C111.379 677.801 111.706 676.901 111.668 675.886C111.588 675.266 111.583 674.586 112.804 674.691C114.271 674.821 114.87 675.131 114.879 676.156C114.894 677.206 114.248 677.541 112.737 677.676V677.676Z" fill="#FAF4E6"/>
<path d="M255.211 674.561C254.159 673.878 252.912 673.971 251.864 674.281C251.241 674.463 251.711 675.657 251.613 676.384C251.576 676.674 251.608 676.974 251.608 677.269C251.608 678.109 251.604 678.954 251.613 679.799C251.613 680.05 251.58 680.355 251.957 680.32C252.255 680.296 252.265 680.03 252.227 679.829C251.943 678.36 252.735 678.207 253.81 678.35C254.229 678.404 254.643 678.261 255.016 678.065C256.249 677.406 256.379 675.328 255.211 674.561ZM253.312 677.726C252.064 677.839 252.167 677.097 252.265 676.217C252.078 675.293 252.19 674.684 253.405 674.792C254.783 674.925 255.407 675.288 255.374 676.301C255.341 677.293 254.736 677.598 253.312 677.726Z" fill="#FAF4E6"/>
<path d="M285.66 674.045C285.874 674.1 286.32 674.195 286.743 674.345C286.943 674.415 287.268 674.485 287.138 674.864C287.012 675.229 286.78 675.079 286.543 674.984C286.05 674.789 285.543 674.63 285.014 674.759C284.623 674.854 284.261 675.039 284.186 675.503C284.107 675.983 284.4 676.282 284.767 676.457C285.306 676.712 285.878 676.892 286.417 677.141C287.04 677.431 287.445 677.93 287.403 678.699C287.356 679.518 286.873 679.937 286.18 680.177C285.279 680.492 284.46 680.262 283.67 679.823C283.433 679.693 283.099 679.523 283.266 679.159C283.475 678.704 283.731 679.099 283.944 679.213C284.549 679.543 285.162 679.788 285.846 679.593C286.227 679.483 286.571 679.293 286.631 678.804C286.692 678.285 286.454 677.935 286.032 677.74C285.65 677.566 285.251 677.431 284.851 677.291C284.037 676.996 283.368 676.552 283.456 675.483C283.526 674.625 284.354 674.05 285.664 674.045H285.66Z" fill="#FAF4E6"/>
<path d="M215.655 676.386C215.655 676.837 215.665 677.283 215.655 677.733C215.601 679.391 214.676 680.333 213.115 680.323C211.55 680.313 210.635 679.381 210.595 677.713C210.571 676.702 210.581 675.695 210.595 674.683C210.595 674.418 210.478 674.012 210.962 674.052C211.349 674.082 211.241 674.428 211.246 674.663C211.261 675.675 211.236 676.687 211.256 677.693C211.285 678.996 211.956 679.687 213.135 679.677C214.319 679.672 214.96 678.991 214.989 677.668C215.009 676.697 214.985 675.72 214.999 674.748C215.004 674.488 214.848 674.077 215.303 674.047C215.782 674.017 215.64 674.438 215.65 674.703C215.675 675.264 215.655 675.825 215.655 676.386V676.386Z" fill="#FAF4E6"/>
<path d="M41.1 679.643C41.6197 679.668 42.0821 679.508 42.5064 679.204C42.7161 679.054 42.9402 678.87 43.1309 679.209C43.2882 679.488 43.026 679.593 42.8735 679.722C41.7579 680.67 39.9034 680.471 38.8879 679.304C37.8295 678.087 37.8343 676.221 38.9022 675.034C39.9224 673.902 41.8294 673.708 42.9069 674.63C43.069 674.77 43.2978 674.88 43.1023 675.149C42.9355 675.383 42.7495 675.314 42.5541 675.164C41.8723 674.64 41.1095 674.54 40.3229 674.815C39.2502 675.189 38.578 676.426 38.7782 677.568C38.9832 678.755 39.9558 679.618 41.1 679.638V679.643Z" fill="#FAF4E6"/>
<path d="M100.337 680.323C99.0218 680.343 97.9029 679.529 97.4678 678.23C97.0278 676.917 97.4009 675.538 98.4146 674.714C99.414 673.905 100.887 673.815 101.939 674.525C102.12 674.649 102.484 674.729 102.331 675.074C102.139 675.498 101.886 675.224 101.633 675.089C100.342 674.415 99.2227 674.605 98.448 675.598C97.7499 676.497 97.7499 677.796 98.448 678.7C99.2274 679.708 100.346 679.903 101.623 679.244C101.862 679.119 102.12 678.799 102.321 679.234C102.474 679.558 102.135 679.678 101.948 679.798C101.456 680.108 100.93 680.338 100.332 680.318L100.337 680.323Z" fill="#FAF4E6"/>
<path d="M125.708 679.652C126.196 679.667 126.626 679.518 127.032 679.259C127.256 679.114 127.519 678.8 127.734 679.229C127.896 679.558 127.557 679.667 127.376 679.797C126.282 680.594 124.715 680.47 123.702 679.528C122.684 678.581 122.403 677.021 123.019 675.755C123.611 674.535 124.968 673.837 126.248 674.101C126.42 674.136 126.606 674.171 126.759 674.255C127.141 674.46 127.891 674.554 127.705 675.053C127.442 675.75 127.017 674.983 126.688 674.868C125.718 674.535 124.848 674.624 124.103 675.362C123.329 676.134 123.124 677.071 123.544 678.113C123.946 679.104 124.705 679.573 125.713 679.642L125.708 679.652Z" fill="#FAF4E6"/>
<path d="M146.906 679.639C147.416 679.639 147.866 679.479 148.285 679.2C148.502 679.055 148.739 678.856 148.946 679.2C149.118 679.479 148.845 679.589 148.684 679.719C147.512 680.666 145.538 680.477 144.463 679.31C143.337 678.092 143.342 676.232 144.463 675.04C145.538 673.903 147.553 673.708 148.704 674.626C148.875 674.766 149.123 674.875 148.921 675.145C148.689 675.459 148.467 675.249 148.249 675.11C147.376 674.556 146.472 674.516 145.573 675.01C144.564 675.564 144.094 676.711 144.387 677.783C144.7 678.915 145.72 679.669 146.901 679.644L146.906 679.639Z" fill="#FAF4E6"/>
<path d="M273.953 674.092C274.369 674.092 274.785 674.082 275.197 674.092C275.418 674.102 275.728 674.015 275.747 674.393C275.765 674.785 275.455 674.723 275.229 674.728C274.781 674.742 274.323 674.785 273.879 674.723C272.987 674.589 272.811 674.976 272.798 675.841C272.784 676.783 273.098 676.96 273.925 676.95C274.42 676.946 275.326 676.492 275.381 677.285C275.414 677.749 274.425 677.562 273.939 677.5C272.848 677.357 272.788 677.94 272.811 678.8C272.821 679.221 273.112 680.033 272.511 680.024C271.933 680.014 272.248 679.211 272.229 678.772C272.178 677.596 272.28 676.405 272.192 675.234C272.118 674.264 272.432 673.925 273.334 674.082C273.537 674.116 273.75 674.087 273.958 674.087L273.953 674.092Z" fill="#FAF4E6"/>
<path d="M239.859 676.708C239.859 677.416 239.903 678.123 239.849 678.826C239.794 679.504 239.45 680.022 238.77 680.231C238.04 680.46 237.39 680.241 236.809 679.793C236.621 679.653 236.503 679.459 236.661 679.22C236.848 678.945 237.001 679.135 237.198 679.239C238.627 680.002 239.203 679.638 239.218 677.994C239.218 677.545 239.228 677.102 239.218 676.653C239.203 676.065 239.366 675.363 239.105 674.914C238.829 674.441 238.085 674.8 237.558 674.725C237.341 674.695 237.094 674.725 237.07 674.411C237.045 674.092 237.282 674.072 237.508 674.052C237.582 674.047 237.656 674.052 237.73 674.052C239.172 673.956 239.885 674.841 239.868 676.708H239.859Z" fill="#FAF4E6"/>
<path d="M59.7468 677.524C59.7468 677.149 59.7085 676.774 59.7516 676.403C59.8954 675.242 59.7372 674.406 58.309 674.707C58.1126 674.747 57.8585 674.742 57.8298 674.421C57.7962 674.016 58.0886 674.046 58.333 674.046C59.512 674.046 60.6957 674.046 61.8747 674.046C62.0903 674.046 62.3204 674.061 62.3108 674.386C62.3012 674.702 62.0712 674.702 61.8555 674.712C61.6782 674.717 61.4961 674.742 61.3188 674.712C60.5568 674.586 60.3363 674.912 60.3699 675.698C60.4322 677.039 60.389 678.385 60.3794 679.731C60.3794 679.972 60.4609 680.302 60.0775 680.322C59.6845 680.342 59.7468 680.012 59.742 679.767C59.7324 679.021 59.742 678.275 59.742 677.524H59.7468Z" fill="#FAF4E6"/>
<path d="M134.01 677.524C134.01 677.149 133.969 676.774 134.015 676.403C134.168 675.242 133.999 674.406 132.476 674.707C132.266 674.747 131.995 674.742 131.965 674.421C131.929 674.016 132.241 674.046 132.501 674.046C133.759 674.046 135.022 674.046 136.279 674.046C136.509 674.046 136.755 674.061 136.744 674.386C136.734 674.702 136.489 674.702 136.259 674.712C136.07 674.717 135.875 674.742 135.686 674.712C134.874 674.586 134.638 674.912 134.674 675.698C134.741 677.039 134.695 678.385 134.684 679.731C134.684 679.972 134.771 680.302 134.362 680.322C133.943 680.342 134.01 680.012 134.004 679.767C133.994 679.021 134.004 678.275 134.004 677.524H134.01Z" fill="#FAF4E6"/>
<path d="M314.412 676.756V677.434C314.412 678.815 315.064 679.549 316.367 679.636C316.619 679.656 317.036 679.5 316.998 679.998C316.964 680.46 316.566 680.289 316.314 680.304C314.61 680.398 313.758 679.574 313.758 677.831C313.758 676.891 313.728 675.947 313.772 675.012C313.791 674.67 313.481 674.012 314.107 674.047C314.66 674.077 314.364 674.71 314.398 675.067C314.446 675.625 314.412 676.193 314.412 676.761V676.756Z" fill="#FAF4E6"/>
<path d="M225.832 677.13C225.832 676.27 225.832 675.409 225.832 674.548C225.832 674.333 225.802 674.073 226.116 674.048C226.519 674.013 226.485 674.323 226.485 674.579C226.49 675.965 226.529 677.351 226.47 678.737C226.441 679.497 226.701 679.732 227.408 679.657C227.845 679.607 228.292 679.647 228.729 679.657C228.916 679.657 229.093 679.697 229.112 679.948C229.137 680.263 228.94 680.323 228.7 680.323C227.889 680.323 227.084 680.318 226.274 680.323C225.846 680.323 225.822 680.048 225.827 679.722C225.827 678.862 225.827 678.001 225.827 677.14L225.832 677.13Z" fill="#FAF4E6"/>
<path d="M220.748 677.14C220.748 676.278 220.748 675.416 220.748 674.554C220.748 674.339 220.718 674.078 221.032 674.048C221.435 674.013 221.4 674.319 221.405 674.574C221.405 675.963 221.449 677.351 221.391 678.739C221.361 679.496 221.611 679.742 222.323 679.661C222.759 679.611 223.206 679.651 223.643 679.661C223.829 679.661 224.011 679.701 224.03 679.947C224.055 680.258 223.863 680.323 223.618 680.323C222.808 680.323 222.004 680.323 221.194 680.323C220.674 680.323 220.748 679.942 220.748 679.616C220.743 678.789 220.748 677.967 220.748 677.14V677.14Z" fill="#FAF4E6"/>
<path d="M289.789 677.24C289.789 678.064 289.798 678.893 289.789 679.718C289.789 679.954 289.869 680.291 289.52 680.321C289.158 680.351 289.203 680.024 289.203 679.773C289.198 678.044 289.198 676.32 289.203 674.591C289.203 674.34 289.158 674.013 289.52 674.048C289.869 674.078 289.785 674.415 289.789 674.651C289.803 675.516 289.789 676.38 289.789 677.24Z" fill="#FAF4E6"/>
<path d="M218.652 677.156C218.652 678.054 218.652 678.958 218.652 679.856C218.652 680.082 218.631 680.323 218.2 680.323C217.768 680.323 217.755 680.082 217.755 679.851C217.755 678.049 217.755 676.253 217.755 674.451C217.755 674.265 217.795 674.075 218.132 674.049C218.551 674.014 218.652 674.21 218.652 674.456C218.652 675.354 218.652 676.258 218.652 677.156V677.156Z" fill="#FAF4E6"/>
<path d="M150.798 677.08C150.798 676.256 150.793 675.428 150.798 674.604C150.798 674.357 150.74 674.031 151.111 674.046C151.397 674.056 151.388 674.312 151.392 674.533C151.392 676.297 151.392 678.06 151.392 679.824C151.392 680.04 151.41 680.301 151.128 680.321C150.762 680.351 150.802 680.035 150.798 679.783C150.793 678.884 150.798 677.98 150.798 677.08V677.08Z" fill="#FAF4E6"/>
<path d="M130.465 677.135C130.465 678.033 130.465 678.937 130.465 679.835C130.465 680.056 130.469 680.302 130.183 680.322C129.892 680.342 129.869 680.106 129.869 679.875C129.869 678.073 129.869 676.277 129.869 674.475C129.869 674.234 129.918 674.018 130.201 674.048C130.487 674.078 130.465 674.329 130.465 674.55C130.469 675.413 130.465 676.277 130.465 677.135V677.135Z" fill="#FAF4E6"/>
<path d="M155.882 673.447C155.915 673.282 155.904 673.176 155.953 673.138C156.324 672.84 156.378 672.147 157.076 672.265C157.229 672.291 157.458 672.398 157.338 672.558C157 673.037 156.569 673.421 155.876 673.447H155.882Z" fill="#FAF4E6"/>
<ellipse cx="311.5" cy="174" rx="36" ry="35.5" transform="rotate(90 311.5 174)" fill="url(#paint10_linear_361_652)"/>
</g>
<defs>
<filter id="filter0_d_361_652" x="-65" y="-61" width="500" height="812" filterUnits="userSpaceOnUse" color-interpolation-filters="sRGB">
<feFlood flood-opacity="0" result="BackgroundImageFix"/>
<feColorMatrix in="SourceAlpha" type="matrix" values="0 0 0 0 0 0 0 0 0 0 0 0 0 0 0 0 0 0 127 0" result="hardAlpha"/>
<feOffset dy="4"/>
<feGaussianBlur stdDeviation="32.5"/>
<feComposite in2="hardAlpha" operator="out"/>
<feColorMatrix type="matrix" values="0 0 0 0 0.243137 0 0 0 0 0.239216 0 0 0 0 0.239216 0 0 0 1 0"/>
<feBlend mode="normal" in2="BackgroundImageFix" result="effect1_dropShadow_361_652"/>
<feBlend mode="normal" in="SourceGraphic" in2="effect1_dropShadow_361_652" result="shape"/>
</filter>
<filter id="filter1_d_361_652" x="-16" y="114" width="567.894" height="421" filterUnits="userSpaceOnUse" color-interpolation-filters="sRGB">
<feFlood flood-opacity="0" result="BackgroundImageFix"/>
<feColorMatrix in="SourceAlpha" type="matrix" values="0 0 0 0 0 0 0 0 0 0 0 0 0 0 0 0 0 0 127 0" result="hardAlpha"/>
<feOffset dy="40"/>
<feGaussianBlur stdDeviation="30"/>
<feComposite in2="hardAlpha" operator="out"/>
<feColorMatrix type="matrix" values="0 0 0 0 0.45098 0 0 0 0 0.0117647 0 0 0 0 0.752941 0 0 0 0.1 0"/>
<feBlend mode="normal" in2="BackgroundImageFix" result="effect1_dropShadow_361_652"/>
<feBlend mode="normal" in="SourceGraphic" in2="effect1_dropShadow_361_652" result="shape"/>
</filter>
<filter id="filter2_f_361_652" x="-24" y="72" width="240" height="239" filterUnits="userSpaceOnUse" color-interpolation-filters="sRGB">
<feFlood flood-opacity="0" result="BackgroundImageFix"/>
<feBlend mode="normal" in="SourceGraphic" in2="BackgroundImageFix" result="shape"/>
<feGaussianBlur stdDeviation="40" result="effect1_foregroundBlur_361_652"/>
</filter>
<filter id="filter3_f_361_652" x="-70" y="226" width="234" height="234" filterUnits="userSpaceOnUse" color-interpolation-filters="sRGB">
<feFlood flood-opacity="0" result="BackgroundImageFix"/>
<feBlend mode="normal" in="SourceGraphic" in2="BackgroundImageFix" result="shape"/>
<feGaussianBlur stdDeviation="40" result="effect1_foregroundBlur_361_652"/>
</filter>
<filter id="filter4_f_361_652" x="-14" y="-21" width="275" height="274" filterUnits="userSpaceOnUse" color-interpolation-filters="sRGB">
<feFlood flood-opacity="0" result="BackgroundImageFix"/>
<feBlend mode="normal" in="SourceGraphic" in2="BackgroundImageFix" result="shape"/>
<feGaussianBlur stdDeviation="40" result="effect1_foregroundBlur_361_652"/>
</filter>
<filter id="filter5_f_361_652" x="116" y="-70" width="276" height="274" filterUnits="userSpaceOnUse" color-interpolation-filters="sRGB">
<feFlood flood-opacity="0" result="BackgroundImageFix"/>
<feBlend mode="normal" in="SourceGraphic" in2="BackgroundImageFix" result="shape"/>
<feGaussianBlur stdDeviation="40" result="effect1_foregroundBlur_361_652"/>
</filter>
<filter id="filter6_f_361_652" x="-25" y="371" width="276" height="274" filterUnits="userSpaceOnUse" color-interpolation-filters="sRGB">
<feFlood flood-opacity="0" result="BackgroundImageFix"/>
<feBlend mode="normal" in="SourceGraphic" in2="BackgroundImageFix" result="shape"/>
<feGaussianBlur stdDeviation="40" result="effect1_foregroundBlur_361_652"/>
</filter>
<filter id="filter7_d_361_652" x="-65" y="-49" width="629" height="800" filterUnits="userSpaceOnUse" color-interpolation-filters="sRGB">
<feFlood flood-opacity="0" result="BackgroundImageFix"/>
<feColorMatrix in="SourceAlpha" type="matrix" values="0 0 0 0 0 0 0 0 0 0 0 0 0 0 0 0 0 0 127 0" result="hardAlpha"/>
<feOffset dy="4"/>
<feGaussianBlur stdDeviation="32.5"/>
<feComposite in2="hardAlpha" operator="out"/>
<feColorMatrix type="matrix" values="0 0 0 0 0.45098 0 0 0 0 0.0117647 0 0 0 0 0.752941 0 0 0 0.15 0"/>
<feBlend mode="normal" in2="BackgroundImageFix" result="effect1_dropShadow_361_652"/>
<feBlend mode="normal" in="SourceGraphic" in2="effect1_dropShadow_361_652" result="shape"/>
</filter>
<filter id="filter8_f_361_652" x="16" y="117" width="240" height="239" filterUnits="userSpaceOnUse" color-interpolation-filters="sRGB">
<feFlood flood-opacity="0" result="BackgroundImageFix"/>
<feBlend mode="normal" in="SourceGraphic" in2="BackgroundImageFix" result="shape"/>
<feGaussianBlur stdDeviation="40" result="effect1_foregroundBlur_361_652"/>
</filter>
<filter id="filter9_f_361_652" x="142" y="439" width="240" height="239" filterUnits="userSpaceOnUse" color-interpolation-filters="sRGB">
<feFlood flood-opacity="0" result="BackgroundImageFix"/>
<feBlend mode="normal" in="SourceGraphic" in2="BackgroundImageFix" result="shape"/>
<feGaussianBlur stdDeviation="40" result="effect1_foregroundBlur_361_652"/>
</filter>
<filter id="filter10_f_361_652" x="200" y="283" width="250" height="248" filterUnits="userSpaceOnUse" color-interpolation-filters="sRGB">
<feFlood flood-opacity="0" result="BackgroundImageFix"/>
<feBlend mode="normal" in="SourceGraphic" in2="BackgroundImageFix" result="shape"/>
<feGaussianBlur stdDeviation="40" result="effect1_foregroundBlur_361_652"/>
</filter>
<linearGradient id="paint0_linear_361_652" x1="-845.12" y1="435" x2="1416.56" y2="435" gradientUnits="userSpaceOnUse">
<stop stop-color="#3C3B3A"/>
<stop offset="1" stop-color="#222222"/>
</linearGradient>
<radialGradient id="paint1_radial_361_652" cx="0" cy="0" r="1" gradientUnits="userSpaceOnUse" gradientTransform="translate(96.1303 191.5) rotate(107.8) scale(38.3602 39.1287)">
<stop stop-color="#FF646D"/>
<stop offset="1" stop-color="#E964FF" stop-opacity="0.5"/>
</radialGradient>
<radialGradient id="paint2_radial_361_652" cx="0" cy="0" r="1" gradientUnits="userSpaceOnUse" gradientTransform="translate(47.1205 343) rotate(107.591) scale(35.8907 36.2361)">
<stop stop-color="#FF646D"/>
<stop offset="1" stop-color="#E964FF" stop-opacity="0.5"/>
</radialGradient>
<radialGradient id="paint3_radial_361_652" cx="0" cy="0" r="1" gradientUnits="userSpaceOnUse" gradientTransform="translate(123.687 116) rotate(107.736) scale(55.3355 56.2676)">
<stop stop-color="#9F64FF"/>
<stop offset="1" stop-color="#E964FF" stop-opacity="0.5"/>
</radialGradient>
<radialGradient id="paint4_radial_361_652" cx="0" cy="0" r="1" gradientUnits="userSpaceOnUse" gradientTransform="translate(254.189 67) rotate(107.88) scale(55.3803 56.7109)">
<stop offset="0.711458" stop-color="#FF646D"/>
<stop offset="0.810417" stop-color="#E964FF" stop-opacity="0.5"/>
</radialGradient>
<radialGradient id="paint5_radial_361_652" cx="0" cy="0" r="1" gradientUnits="userSpaceOnUse" gradientTransform="translate(113.189 508) rotate(107.88) scale(55.3803 56.7109)">
<stop offset="0.711458" stop-color="#FF646D"/>
<stop offset="0.810417" stop-color="#E964FF" stop-opacity="0.5"/>
</radialGradient>
<linearGradient id="paint6_linear_361_652" x1="499" y1="372.343" x2="-72.8698" y2="372.343" gradientUnits="userSpaceOnUse">
<stop stop-color="#FDEFF9"/>
<stop offset="0.336458" stop-color="#EC38BC"/>
<stop offset="0.680208" stop-color="#7303C0"/>
<stop offset="1" stop-color="#03001E"/>
</linearGradient>
<radialGradient id="paint7_radial_361_652" cx="0" cy="0" r="1" gradientUnits="userSpaceOnUse" gradientTransform="translate(136.13 236.5) rotate(107.8) scale(38.3602 39.1287)">
<stop stop-color="#FF646D"/>
<stop offset="1" stop-color="#E964FF" stop-opacity="0.5"/>
</radialGradient>
<radialGradient id="paint8_radial_361_652" cx="0" cy="0" r="1" gradientUnits="userSpaceOnUse" gradientTransform="translate(262.13 558.5) rotate(107.8) scale(38.3602 39.1287)">
<stop stop-color="#FF646D"/>
<stop offset="1" stop-color="#E964FF" stop-opacity="0.5"/>
</radialGradient>
<radialGradient id="paint9_radial_361_652" cx="0" cy="0" r="1" gradientUnits="userSpaceOnUse" gradientTransform="translate(325.147 407) rotate(107.965) scale(42.7703 43.9787)">
<stop offset="0.711458" stop-color="#FF646D"/>
<stop offset="0.810417" stop-color="#E964FF" stop-opacity="0.5"/>
</radialGradient>
<linearGradient id="paint10_linear_361_652" x1="347.5" y1="138.5" x2="275.5" y2="138.5" gradientUnits="userSpaceOnUse">
<stop stop-color="#F989DF"/>
<stop offset="1" stop-color="#D44AB5"/>
</linearGradient>
<clipPath id="clip0_361_652">
<path d="M0 0H370V657C370 670.807 358.807 682 345 682H0V0Z" fill="white"/>
</clipPath>
</defs>
</svg>
