<svg width="1280" height="1352" viewBox="0 0 1280 1352" fill="none" xmlns="http://www.w3.org/2000/svg">
<g clip-path="url(#clip0_363_595)">
<rect width="1280" height="1352" fill="#222222"/>
<g opacity="0.2" filter="url(#filter0_f_363_595)">
<ellipse cx="192.5" cy="325" rx="90.5" ry="89" fill="url(#paint0_radial_363_595)"/>
</g>
<g opacity="0.15" filter="url(#filter1_f_363_595)">
<ellipse cx="283.5" cy="425" rx="90.5" ry="89" fill="url(#paint1_radial_363_595)"/>
</g>
<g opacity="0.2" filter="url(#filter2_f_363_595)">
<ellipse cx="498.5" cy="409" rx="123.5" ry="122" fill="url(#paint2_radial_363_595)"/>
</g>
<g opacity="0.2" filter="url(#filter3_f_363_595)">
<ellipse cx="84" cy="663" rx="84" ry="83" fill="url(#paint3_radial_363_595)"/>
</g>
<g opacity="0.2" filter="url(#filter4_f_363_595)">
<ellipse cx="778.5" cy="305" rx="123.5" ry="122" fill="url(#paint4_radial_363_595)"/>
</g>
<g opacity="0.2" filter="url(#filter5_f_363_595)">
<ellipse cx="1193" cy="97" rx="87" ry="86" fill="url(#paint5_radial_363_595)"/>
</g>
<g opacity="0.2" filter="url(#filter6_f_363_595)">
<ellipse rx="68.2136" ry="67.083" transform="matrix(-1 0 0 1 913.694 1034.67)" fill="url(#paint6_radial_363_595)"/>
</g>
<g opacity="0.15" filter="url(#filter7_f_363_595)">
<ellipse rx="68.2136" ry="67.083" transform="matrix(-1 0 0 1 845.104 1110.05)" fill="url(#paint7_radial_363_595)"/>
</g>
<g opacity="0.2" filter="url(#filter8_f_363_595)">
<ellipse rx="93.0871" ry="91.9565" transform="matrix(-1 0 0 1 683.049 1097.99)" fill="url(#paint8_radial_363_595)"/>
</g>
<g opacity="0.2" filter="url(#filter9_f_363_595)">
<ellipse rx="63.3143" ry="62.5605" transform="matrix(-1 0 0 1 995.475 1289.44)" fill="url(#paint9_radial_363_595)"/>
</g>
<g opacity="0.2" filter="url(#filter10_f_363_595)">
<ellipse rx="93.0871" ry="91.9565" transform="matrix(-1 0 0 1 472.001 1019.6)" fill="url(#paint10_radial_363_595)"/>
</g>
<g opacity="0.2" filter="url(#filter11_f_363_595)">
<ellipse rx="65.5755" ry="64.8218" transform="matrix(-1 0 0 1 159.576 862.822)" fill="url(#paint11_radial_363_595)"/>
</g>
<g filter="url(#filter12_d_363_595)">
<path d="M1280.49 798.5H913.493C1.5 798.5 1280.49 333 1280.49 333V798.5Z" fill="url(#paint12_linear_363_595)" fill-opacity="0.5" shape-rendering="crispEdges"/>
</g>
<g opacity="0.6" filter="url(#filter13_d_363_595)">
<path d="M615.428 839.925C594.119 843.989 572.642 846.851 548.816 850.628L548.76 850.743C573.817 880.049 597.475 907.752 621.245 935.398C737.41 1070.65 853.687 1205.91 969.852 1341.16C971.977 1343.62 976.116 1345.8 974.718 1349.4C973.263 1353.18 968.789 1351.69 965.601 1351.69C929.918 1351.75 894.291 1351.35 858.664 1351.98C848.821 1352.15 842.333 1348.72 836.069 1341.39C786.46 1283.24 736.571 1225.37 686.794 1167.39C599.152 1065.27 511.455 963.159 423.982 860.874C417.941 853.776 411.733 850.914 402.449 850.914C307.705 851.258 212.905 851.143 118.16 851.143C106.825 851.182 101.158 856.944 101.158 868.429C101.158 1024.98 101.102 1181.52 101.382 1338.07C101.382 1348.6 98.8082 1352.32 88.1257 1351.98C63.8524 1351.18 39.4677 1351.06 15.1943 1351.98C1.28119 1351.98 -0.632996 1342.71 0.149048 1338.07V763.054C0.0931396 750.347 3.61664 747.714 15.5296 747.714C178.62 748.115 341.765 747.943 504.855 748.057C534.721 748.057 564.141 745.653 593.56 740.158C736.795 713.371 877.568 576.915 869.179 391.577C865.655 313.848 834.838 250.313 778.182 199.657C711.514 140.072 630.808 119.123 544.957 114.659C508.603 112.77 472.025 113.857 435.559 113.857C294.673 113.8 153.787 113.8 12.901 114.143C2.94556 114.143 -0.0187378 111.453 0.260925 101.265C0.987976 76.3661 1.15576 51.4675 0.204956 26.6261C-0.242432 14.3771 2.77802 11 15.1943 11C186.226 11.4579 357.314 11.4579 528.402 11.229C572.978 11.1717 616.938 16.4949 660.283 26.7978C755.139 49.2924 836.013 95.7127 895.969 175.617C967.335 270.747 982.939 379.157 960.679 493.69C926.786 668.153 786.404 807.413 615.428 839.925Z" fill="url(#paint13_linear_363_595)"/>
</g>
<circle cx="1146.5" cy="386.5" r="133.5" transform="rotate(90 1146.5 386.5)" fill="url(#paint14_linear_363_595)"/>
<path d="M1011.39 1230.86C1005.61 1229.95 1000.4 1229.26 995.234 1228.28C953.754 1220.42 919.697 1186.78 911.474 1144.63C906.074 1116.95 909.86 1090.76 927.173 1067.78C941.719 1048.47 961.339 1037.26 984.352 1031.82C994.867 1029.34 1005.53 1028.05 1016.35 1028.06C1057.85 1028.12 1099.36 1028.12 1140.85 1028.01C1143.87 1028.01 1144.6 1028.82 1144.49 1031.78C1144.26 1037.78 1144.3 1043.8 1144.48 1049.82C1144.54 1052.28 1143.82 1052.93 1141.41 1052.93C1107.23 1052.84 1073.05 1052.84 1038.87 1052.86C1030.02 1052.86 1021.15 1052.6 1012.33 1053.05C991.502 1054.13 971.923 1059.19 955.749 1073.59C942.004 1085.83 934.527 1101.18 933.673 1119.96C931.637 1164.73 965.79 1197.7 1000.54 1204.17C1007.68 1205.5 1014.81 1206.08 1022.06 1206.08C1061.63 1206.05 1101.21 1206.1 1140.77 1206C1143.66 1206 1144.52 1206.64 1144.5 1209.71C1144.37 1235.4 1144.44 1261.11 1144.44 1286.8V1289.79L1144.94 1289.93C1147.52 1283.8 1150.12 1277.69 1152.68 1271.56C1186.19 1191.55 1219.69 1111.53 1253.13 1031.49C1254.18 1029 1255.32 1027.9 1258.2 1028.01C1265.31 1028.28 1272.43 1028.1 1280 1028.1C1278.22 1032.45 1276.59 1036.53 1274.9 1040.56C1231.94 1143.23 1188.97 1245.9 1146.06 1348.59C1144.96 1351.23 1143.61 1352.1 1140.85 1351.99C1134.96 1351.77 1129.05 1351.8 1123.16 1351.99C1120.57 1352.07 1119.94 1351.17 1119.94 1348.63C1120.01 1310.81 1120 1272.99 1120 1235.16C1120 1232.39 1118.62 1231 1115.87 1230.99C1092.89 1230.99 1069.89 1231.02 1046.9 1230.93C1044.65 1230.93 1043.14 1231.62 1041.68 1233.34C1020.46 1258.05 999.182 1282.72 977.92 1307.39C965.844 1321.4 953.741 1335.38 941.705 1349.43C940.186 1351.2 938.612 1352.03 936.224 1351.99C927.58 1351.84 918.937 1351.94 910.28 1351.92C909.507 1351.92 908.421 1352.28 908.069 1351.37C907.729 1350.5 908.733 1349.97 909.249 1349.38C937.431 1316.7 965.64 1284.02 993.823 1251.34C999.589 1244.66 1005.33 1237.97 1011.41 1230.89L1011.39 1230.86Z" fill="#D44AB5"/>
<path d="M142.624 1198C109.461 1197.61 82.3252 1224.46 82.0276 1257.93C81.7486 1291.75 107.881 1318.74 141.266 1319.08C174.484 1319.44 200.858 1292.83 201.155 1258.68C201.434 1225.81 174.968 1198.36 142.624 1198ZM141.136 1310.32C112.902 1310.15 90.5089 1287.04 90.5647 1258.15C90.6205 1229.78 113.869 1206.46 141.917 1206.67C170.188 1206.88 192.73 1230.05 192.544 1258.76C192.376 1287.93 169.871 1310.49 141.136 1310.32V1310.32Z" fill="#FAF4E6"/>
<path d="M764.829 1250.57C772.742 1250.57 780.656 1250.74 788.55 1250.49C791.772 1250.4 792.601 1251.53 792.789 1254.58C794.635 1283.52 775.493 1308.67 747.345 1314.15C718.292 1319.8 690.691 1301.66 683.324 1272.1C676.089 1243.12 692.122 1213.35 720.195 1204.69C739.978 1198.58 758.122 1202.57 774.005 1216.21C775.361 1217.37 778.3 1218.52 775.305 1221.07C773.364 1222.72 772.328 1225.76 768.71 1222.43C753.807 1208.75 731.876 1206.22 714.731 1215.73C696.192 1225.99 687.073 1245.3 690.238 1267.58C692.819 1285.72 708.74 1302.04 727.826 1306.07C755.767 1311.95 782.879 1290.99 784.744 1262.18C784.932 1259.33 783.99 1258.81 781.503 1258.83C768.089 1258.92 754.674 1258.75 741.24 1258.96C737.793 1259.02 736.982 1257.89 736.982 1254.56C736.982 1251.3 737.925 1250.42 741.09 1250.51C748.984 1250.74 756.916 1250.59 764.81 1250.59L764.829 1250.57Z" fill="#FAF4E6"/>
<path d="M48.8434 1278.58C45.447 1274.61 46.2164 1272.1 51.1889 1270.49C51.9957 1270.22 52.8027 1269.97 53.5908 1269.66C68.6209 1264.14 77.8152 1248.93 75.9201 1232.73C74.2688 1218.61 62.9165 1208.24 46.723 1206.59C32.7062 1205.15 18.6331 1206.18 4.57872 1206.03C0.976002 1205.99 -0.0185048 1208.43 0.00025936 1211.82C0.0753161 1227.34 0.0378244 1242.85 0.0378244 1258.35C0.0378244 1273.84 0.037806 1289.95 0.0190419 1305.75C0.0190419 1307.88 0.206665 1309.9 2.34578 1310.82C3.82815 1311.45 5.36679 1311.39 6.66152 1310.15C8.0876 1308.8 7.93749 1307.04 7.95625 1305.33C7.95625 1296.15 8.01253 1286.94 7.93747 1277.75C7.89994 1273.8 9.49494 1271.94 13.4917 1272.1C17.845 1272.25 22.2545 1272.5 26.5703 1272.04C31.1863 1271.54 34.0948 1273.52 36.9469 1276.93C45.8599 1287.65 55.0731 1298.12 64.1174 1308.73C65.8625 1310.76 67.8703 1312.26 70.2721 1310.49C73.0868 1308.42 72.3174 1305.91 70.2721 1303.51C63.1042 1295.23 55.955 1286.92 48.8621 1278.58H48.8434ZM36.0087 1263.93C28.5593 1263.95 21.0912 1263.99 13.6419 1263.93C9.0071 1263.89 8.01257 1262.82 7.97504 1258C7.91874 1251.54 7.95625 1245.08 7.95625 1238.59V1219.63C7.95625 1217 8.48169 1214.39 11.6341 1214.39C23.5869 1214.35 35.6146 1213.22 47.4548 1214.93C60.1019 1216.75 67.8327 1225.19 68.3018 1236.06C68.8084 1248.03 60.6273 1259.33 48.9747 1262.72C44.7153 1263.97 40.362 1263.93 36.0087 1263.93V1263.93Z" fill="#FAF4E6"/>
<path d="M644.657 1278.66C640.15 1273.41 640.488 1272.28 647.192 1270.29C662.93 1265.64 673.089 1250.42 671.7 1233.6C670.517 1219.15 658.948 1208.25 642.441 1206.56C628.281 1205.13 614.027 1206.24 599.83 1205.97C596.431 1205.89 595.642 1207.89 595.66 1210.97C595.736 1226.75 595.698 1242.55 595.698 1258.32C595.698 1274.1 595.717 1289.88 595.66 1305.66C595.66 1308.69 595.848 1311.1 599.792 1311.04C603.604 1311 603.586 1308.51 603.586 1305.79C603.567 1296.32 603.661 1286.84 603.529 1277.38C603.492 1273.64 604.6 1271.79 608.6 1271.96C614.083 1272.19 619.586 1272.11 625.07 1271.96C627.398 1271.9 629.013 1272.67 630.516 1274.47C634.985 1279.83 639.587 1285.06 644.15 1290.32C649.54 1296.58 654.911 1302.83 660.319 1309.07C662.517 1311.63 665.484 1311.98 667.775 1310.01C670.348 1307.79 667.963 1305.68 666.404 1303.88C659.155 1295.45 651.906 1287.05 644.657 1278.66ZM630.159 1263.82C623.398 1263.84 616.638 1263.84 609.896 1263.82C603.924 1263.82 603.586 1263.49 603.586 1257.6C603.567 1251.43 603.586 1245.26 603.586 1239.1V1218.88C603.586 1216.58 603.886 1214.28 606.759 1214.3C618.854 1214.38 631.023 1213.21 643.023 1214.86C655.662 1216.6 663.38 1224.97 664 1235.86C664.657 1247.66 656.413 1259.13 644.807 1262.57C640 1264.01 635.06 1263.8 630.159 1263.82V1263.82Z" fill="#FAF4E6"/>
<path d="M951.387 1278.23C948.626 1274.87 949.413 1272.14 953.325 1270.7C954.477 1270.28 955.702 1270.03 956.853 1269.57C970.729 1264.13 980.016 1248.64 978.224 1233.94C976.323 1218.52 965.902 1208.31 949.979 1206.58C937 1205.16 923.965 1206.19 910.967 1205.96C904.989 1205.87 904.24 1206.71 904.24 1212.82C904.221 1228.07 904.24 1243.32 904.24 1258.56V1306.04C904.221 1308.94 904.879 1311.34 908.225 1311.22C911.259 1311.11 911.954 1308.9 911.954 1306.13C911.918 1298.8 911.954 1291.46 911.936 1284.13C911.881 1271.2 911.223 1272.89 923.179 1271.95C932.685 1271.22 939.011 1274.39 944.678 1282.26C951.424 1291.65 959.321 1300.12 966.78 1308.94C969.449 1312.11 972.758 1312.01 974.074 1308.9C975.025 1306.63 973.836 1305.08 972.539 1303.52C965.482 1295.09 958.389 1286.72 951.387 1278.23V1278.23ZM938.7 1263.98C931.57 1264 924.459 1263.92 917.329 1264.02C913.545 1264.08 911.79 1262.48 911.899 1258.37C912.046 1251.9 911.936 1245.43 911.936 1238.94C911.954 1232.33 911.954 1225.71 911.936 1219.08C911.936 1216.45 912.813 1214.36 915.556 1214.36C927.073 1214.32 938.645 1213.3 950.052 1214.84C962.447 1216.49 970.089 1224.9 970.546 1235.73C971.094 1248.29 963.38 1259.35 951.753 1262.79C947.457 1264.08 943.087 1263.96 938.7 1263.98V1263.98Z" fill="#FAF4E6"/>
<path d="M247.025 1201.93C256.342 1201.93 265.172 1203.84 272.99 1209.22C279.701 1213.85 284.032 1220.16 284.781 1228.65C284.894 1229.9 285.569 1231.97 283.15 1231.53C281.088 1231.14 277.714 1233.25 277.095 1230.05C274.339 1215.63 263.71 1211.97 251.805 1210.28C243.463 1209.09 235.252 1210.43 227.772 1214.69C220.911 1218.61 216.767 1224.33 217.217 1232.81C217.649 1240.9 222.523 1245.54 229.159 1248.54C237.52 1252.34 246.538 1254.03 255.293 1256.52C260.429 1257.98 265.528 1259.56 270.346 1261.9C287.256 1270.13 290.274 1292.48 276.233 1305.26C261.741 1318.45 232.477 1318.49 217.967 1305.34C212.924 1300.77 209.962 1295.09 209.287 1288.18C209.138 1286.66 208.931 1284.95 211.106 1285.36C213.168 1285.72 216.543 1283.59 217.105 1287.01C219.28 1300.02 228.653 1304.27 239.451 1306.28C248.131 1307.89 256.83 1307.09 264.947 1303.08C272.371 1299.41 277.001 1293.53 276.908 1284.88C276.814 1276.35 271.584 1271.34 264.366 1268.21C255.686 1264.43 246.388 1262.8 237.389 1260.09C232.815 1258.71 228.259 1257.29 223.947 1255.2C206.138 1246.54 203.72 1222.93 219.336 1210.51C226.328 1204.96 236.077 1201.93 246.988 1201.91L247.025 1201.93Z" fill="#FAF4E6"/>
<path d="M519.494 1258.73C519.494 1243.18 519.494 1227.62 519.494 1212.04C519.494 1207.1 520.647 1205.83 525.316 1205.83C542.892 1205.79 560.45 1205.83 578.027 1205.83C581.003 1205.83 583.96 1206.1 583.867 1210.16C583.774 1213.91 580.965 1214.16 578.138 1214.16C563.222 1214.16 548.305 1214.16 533.388 1214.16C528.254 1214.16 527.511 1214.91 527.492 1220.12C527.455 1228.19 527.473 1236.25 527.492 1244.33C527.492 1249.87 528.255 1250.64 533.518 1250.64C546.482 1250.64 559.446 1250.64 572.428 1250.64C573.544 1250.64 574.716 1250.5 575.758 1250.83C577.673 1251.41 578.845 1252.91 578.696 1255.02C578.566 1256.89 577.543 1258.29 575.627 1258.6C574.4 1258.79 573.135 1258.83 571.889 1258.83C559.055 1258.83 546.24 1258.83 533.407 1258.85C528.403 1258.85 527.548 1259.75 527.529 1264.89C527.492 1275.7 527.492 1286.5 527.529 1297.31C527.529 1302.37 528.478 1303.29 533.462 1303.29C547.821 1303.29 562.18 1303.29 576.557 1303.29C577.524 1303.29 578.51 1303.29 579.477 1303.29C582.081 1303.25 583.886 1304.35 583.941 1307.23C583.997 1310.12 582.23 1311.27 579.607 1311.27C561.064 1311.27 542.52 1311.27 523.977 1311.27C520.164 1311.27 519.513 1308.72 519.513 1305.47C519.55 1289.91 519.531 1274.35 519.531 1258.77L519.494 1258.73Z" fill="#FAF4E6"/>
<path d="M387.659 1304.09C373.744 1273.19 359.792 1242.29 345.877 1211.39C345.023 1209.5 344.131 1207.76 341.753 1207.76C339.375 1207.76 338.483 1209.62 337.647 1211.47C323.732 1242.37 309.817 1273.28 295.884 1304.18C294.732 1306.72 294.026 1309.28 297.091 1310.75C300.25 1312.28 301.94 1310.25 303.166 1307.47C306.789 1299.3 310.579 1291.21 314.072 1282.98C315.446 1279.77 317.36 1278.53 320.778 1278.59C332.334 1278.76 343.889 1278.53 355.445 1278.69C370.307 1278.9 366.146 1276.24 372.648 1290.08C375.472 1296.11 378.166 1302.2 380.897 1308.29C381.9 1310.5 383.405 1311.66 385.857 1311.03C387.752 1310.58 388.644 1309.3 388.644 1306.74C388.458 1306.21 388.123 1305.12 387.659 1304.09V1304.09ZM357.265 1271.26C352.138 1271.34 346.992 1271.28 341.846 1271.28C336.699 1271.28 331.572 1271.34 326.445 1271.26C322.042 1271.2 320.574 1269.01 322.357 1264.98C327.503 1253.34 332.798 1241.76 337.981 1230.13C338.799 1228.3 339.876 1226.91 341.939 1226.96C343.834 1227 344.874 1228.38 345.598 1230.02C350.819 1241.62 356.095 1253.21 361.241 1264.85C363.025 1268.89 361.538 1271.2 357.265 1271.26V1271.26Z" fill="#FAF4E6"/>
<path d="M1079.55 1303.49C1079.23 1302.57 1078.75 1301.71 1078.34 1300.83C1064.82 1271.38 1051.29 1241.92 1037.75 1212.49C1036.78 1210.39 1036.13 1207.76 1033.1 1207.76C1030.07 1207.75 1029.45 1210.31 1028.47 1212.45C1015.93 1239.75 1003.39 1267.03 990.871 1294.32C989.401 1297.49 987.838 1300.62 986.592 1303.88C985.457 1306.83 987.336 1309.43 990.257 1309.28C992.601 1309.17 993.512 1307.5 994.349 1305.63C997.884 1297.88 1001.72 1290.25 1004.95 1282.38C1006.63 1278.29 1009.06 1277.11 1013.23 1277.19C1025.21 1277.41 1037.23 1277.77 1049.17 1277.09C1056.59 1276.66 1060.58 1279.06 1063.05 1286.11C1065.54 1293.2 1069.17 1299.87 1072.37 1306.71C1073.51 1309.13 1075.5 1309.94 1077.9 1308.83C1080.28 1307.76 1080.33 1305.66 1079.55 1303.49V1303.49ZM1048.58 1270.08C1043.42 1270.16 1038.27 1270.1 1033.12 1270.1C1027.96 1270.1 1022.79 1270.16 1017.66 1270.08C1013.38 1270.01 1011.85 1267.66 1013.62 1263.76C1018.76 1252.44 1024.04 1241.19 1029.17 1229.89C1029.99 1228.07 1031.03 1226.66 1033.08 1226.62C1035.15 1226.61 1036.19 1228.07 1037.01 1229.85C1042.18 1241.15 1047.44 1252.4 1052.58 1263.73C1054.34 1267.61 1052.78 1270.01 1048.58 1270.08V1270.08Z" fill="#FAF4E6"/>
<path d="M889.556 1302.14C875.721 1272.01 861.867 1241.92 848.05 1211.8C847.157 1209.83 846.32 1207.82 843.791 1207.77C841.02 1207.69 840.184 1209.87 839.235 1211.97C832.559 1226.6 825.846 1241.22 819.151 1255.83C812.029 1271.33 804.906 1286.84 797.766 1302.33C796.52 1305.03 796.017 1307.6 799.365 1308.97C802.136 1310.08 803.772 1308.39 804.869 1305.95C808.626 1297.67 812.494 1289.45 816.157 1281.13C817.403 1278.3 819.244 1277.15 822.275 1277.17C836.632 1277.27 850.988 1277.25 865.326 1277.19C868.171 1277.17 870.031 1278.2 871.165 1280.91C872.727 1284.64 874.512 1288.29 876.204 1291.98C878.473 1296.94 880.705 1301.91 883.029 1306.85C883.977 1308.9 885.67 1309.71 887.846 1309.09C889.687 1308.56 890.542 1307.21 890.561 1304.88C890.319 1304.2 890.021 1303.13 889.556 1302.14V1302.14ZM858.854 1270.09C853.703 1270.17 848.533 1270.11 843.382 1270.09C838.38 1270.09 833.359 1270.17 828.338 1270.09C824.079 1270.02 822.536 1267.67 824.302 1263.75C829.379 1252.39 834.605 1241.09 839.756 1229.77C840.556 1227.99 841.671 1226.65 843.791 1226.71C845.93 1226.77 846.915 1228.21 847.715 1229.98C852.829 1241.16 857.999 1252.33 863.038 1263.54C864.916 1267.71 863.391 1270.04 858.854 1270.11V1270.09Z" fill="#FAF4E6"/>
<path d="M423.82 1212.21C423.763 1210.08 424.483 1208.77 426.131 1208.13C427.874 1207.47 429.579 1207.64 430.697 1209.25C431.492 1210.38 432.023 1211.72 432.572 1213.03C442.746 1236.77 452.901 1260.52 463.036 1284.27C463.983 1286.46 464.552 1288.99 467.716 1288.99C470.898 1288.99 471.448 1286.35 472.376 1284.21C482.55 1260.46 492.685 1236.72 502.84 1212.95C503.124 1212.31 503.408 1211.67 503.673 1211C504.715 1208.34 506.591 1207.01 509.319 1208.21C512.123 1209.42 512.085 1211.7 510.986 1214.26C505.284 1227.47 499.638 1240.73 493.993 1253.96C486.793 1270.84 479.632 1287.73 472.395 1304.59C471.467 1306.75 470.86 1309.32 467.678 1309.32C464.533 1309.32 463.946 1306.79 462.998 1304.59C450.343 1275 437.688 1245.41 425.07 1215.81C424.521 1214.54 423.649 1213.31 423.82 1212.19V1212.21Z" fill="#FAF4E6"/>
<path d="M162.097 1258.38C162.153 1270.14 152.948 1279.93 141.731 1280.02C130.234 1280.14 121.066 1270.49 121.085 1258.36C121.104 1246.34 130.048 1237.02 141.545 1237.06C152.948 1237.08 162.041 1246.5 162.097 1258.38V1258.38Z" fill="#D44AB5"/>
<path d="M502.631 1344.3C504.593 1340.36 506.23 1337.12 507.802 1333.85C508.27 1332.88 508.816 1332.14 509.998 1332.42C511.31 1332.72 510.778 1333.84 510.778 1334.59C510.83 1338.63 510.83 1342.68 510.778 1346.72C510.778 1347.47 511.323 1348.83 509.998 1348.84C508.413 1348.87 509.102 1347.38 509.089 1346.58C509.011 1343.23 509.05 1339.87 508.543 1336.28C507.114 1339.17 505.737 1342.09 504.242 1344.94C503.827 1345.75 503.762 1347.14 502.541 1347.05C501.423 1346.97 501.319 1345.64 500.904 1344.81C499.487 1342.02 498.162 1339.19 496.213 1336.42C496.213 1339.86 496.252 1343.31 496.187 1346.75C496.174 1347.5 496.733 1348.8 495.382 1348.86C493.992 1348.92 494.485 1347.59 494.472 1346.85C494.42 1342.72 494.42 1338.57 494.472 1334.43C494.472 1333.68 493.978 1332.56 495.421 1332.4C496.512 1332.27 496.98 1332.89 497.395 1333.76C499.02 1337.08 500.683 1340.39 502.631 1344.31V1344.3Z" fill="#FAF4E6"/>
<path d="M549.282 1349.75C548.726 1348.41 547.904 1349.78 547.272 1350.05C545.78 1350.7 544.44 1350.24 543.796 1349.04C542.936 1347.47 544.858 1347.7 545.502 1347.2C548.473 1344.9 549.648 1340.89 548.207 1337.36C546.716 1333.75 542.86 1331.7 539.157 1332.55C535.491 1333.39 532.899 1336.68 532.887 1341.19C533 1343.87 534.442 1346.59 537.539 1347.79C539.662 1348.6 541.697 1349.26 543.328 1350.99C544.466 1352.2 546.058 1352.24 547.575 1351.55C548.384 1351.19 549.775 1350.92 549.282 1349.75V1349.75ZM540.863 1346.95C537.387 1346.94 534.568 1344.01 534.606 1340.45C534.644 1336.86 537.45 1334.1 541.015 1334.14C544.365 1334.16 547.082 1336.99 547.108 1340.45C547.133 1344.04 544.327 1346.96 540.863 1346.95V1346.95Z" fill="#FAF4E6"/>
<path d="M146.133 1345.65C146.133 1341.24 146.12 1337.65 146.146 1334.05C146.146 1333.43 145.862 1332.53 146.88 1332.44C148.157 1332.33 147.847 1333.39 147.86 1334.09C147.886 1338.41 147.886 1342.73 147.86 1347.06C147.86 1347.66 148.208 1348.53 147.28 1348.79C146.403 1349.05 145.849 1348.53 145.359 1347.84C142.832 1344.38 140.28 1340.93 137.727 1337.46C137.443 1337.07 137.121 1336.7 136.283 1335.64C136.283 1339.37 136.283 1342.4 136.283 1345.44C136.283 1346.23 136.283 1347.02 136.27 1347.8C136.257 1348.32 136.141 1348.78 135.509 1348.81C134.697 1348.88 134.568 1348.32 134.568 1347.69C134.568 1342.97 134.568 1338.26 134.568 1333.54C134.568 1333.07 134.555 1332.53 135.187 1332.4C136.077 1332.21 136.605 1332.72 137.108 1333.39C139.583 1336.78 142.072 1340.17 144.56 1343.54C144.908 1344.01 145.269 1344.47 146.158 1345.64L146.133 1345.65Z" fill="#FAF4E6"/>
<path d="M789.22 1335.52C789.22 1340.06 789.22 1343.67 789.22 1347.28C789.22 1347.91 789.411 1348.81 788.392 1348.8C787.156 1348.79 787.538 1347.71 787.525 1347.03C787.487 1342.8 787.487 1338.58 787.525 1334.36C787.525 1333.68 787.067 1332.68 788.188 1332.41C789.067 1332.18 789.577 1332.8 790.061 1333.46C792.558 1336.92 795.08 1340.37 797.603 1343.84C797.883 1344.22 798.189 1344.59 798.966 1345.6C798.966 1341.46 798.928 1338.01 798.992 1334.56C799.004 1333.81 798.457 1332.51 799.769 1332.45C801.132 1332.38 800.648 1333.69 800.661 1334.44C800.712 1338.47 800.712 1342.5 800.661 1346.52C800.661 1347.29 801.208 1348.43 800.036 1348.79C798.877 1349.14 798.38 1348.08 797.82 1347.3C795.131 1343.63 792.456 1339.94 789.233 1335.5L789.22 1335.52Z" fill="#FAF4E6"/>
<path d="M435.257 1345.72C435.257 1341.31 435.231 1337.81 435.283 1334.29C435.283 1333.61 434.874 1332.53 436.049 1332.43C437.314 1332.31 436.969 1333.42 436.982 1334.12C437.02 1338.44 437.007 1342.76 436.982 1347.09C436.982 1347.69 437.314 1348.56 436.369 1348.81C435.5 1349.03 434.963 1348.49 434.478 1347.81C431.68 1343.95 428.869 1340.12 425.509 1335.52C425.509 1339.76 425.547 1343.22 425.483 1346.65C425.47 1347.4 426.02 1348.7 424.691 1348.75C423.337 1348.81 423.809 1347.49 423.809 1346.76C423.758 1342.73 423.758 1338.7 423.809 1334.68C423.809 1333.91 423.26 1332.79 424.448 1332.43C425.47 1332.11 425.981 1332.96 426.505 1333.67C429.252 1337.44 431.999 1341.22 435.283 1345.74L435.257 1345.72Z" fill="#FAF4E6"/>
<path d="M478.56 1345.47C478.56 1341.16 478.56 1337.52 478.56 1333.9C478.56 1333.25 478.392 1332.39 479.366 1332.39C480.34 1332.39 480.159 1333.27 480.159 1333.91C480.184 1338.23 480.196 1342.57 480.159 1346.89C480.159 1347.56 480.604 1348.57 479.51 1348.82C478.657 1349.02 478.2 1348.39 477.755 1347.73C475.447 1344.34 473.127 1340.95 470.807 1337.58C470.494 1337.12 470.145 1336.7 469.364 1335.68C469.364 1339.91 469.388 1343.47 469.352 1347.05C469.352 1347.73 469.7 1348.85 468.522 1348.79C467.404 1348.74 467.777 1347.65 467.765 1346.97C467.729 1342.74 467.729 1338.51 467.765 1334.29C467.765 1333.62 467.32 1332.61 468.45 1332.39C469.304 1332.22 469.749 1332.86 470.193 1333.5C472.61 1337.05 475.038 1340.6 477.467 1344.13C477.671 1344.42 477.911 1344.68 478.573 1345.47H478.56Z" fill="#FAF4E6"/>
<path d="M227.178 1339.79C226.282 1334.25 223.153 1331.55 214.533 1332.57C210.262 1333.09 213.754 1337.05 212.69 1339.16C212.495 1339.55 212.651 1340.13 212.651 1340.61C212.651 1346.62 215.105 1349.35 220.012 1348.79C220.103 1348.77 220.207 1348.77 220.297 1348.75C224.607 1348.1 227.879 1344.1 227.178 1339.79V1339.79ZM225.464 1341.57C225.023 1344.59 222.595 1346.85 219.557 1347.06C218.986 1347.1 218.402 1347.06 217.389 1347.06C214.741 1347.85 214.092 1346.32 214.378 1343.64C214.546 1342.1 214.339 1340.53 214.43 1338.98C214.52 1337.46 213.651 1335.23 214.858 1334.58C216.637 1333.6 219.025 1333.93 221.089 1334.5C224.049 1335.33 225.919 1338.51 225.464 1341.57V1341.57Z" fill="#FAF4E6"/>
<path d="M177.155 1342.49C179.371 1340.91 179.755 1338.53 178.987 1335.96C178.245 1333.47 176.289 1332.59 174.036 1332.42C172.476 1332.3 170.892 1332.46 169.32 1332.37C167.971 1332.28 167.574 1332.87 167.599 1334.24C167.661 1338.46 167.599 1342.68 167.649 1346.92C167.649 1347.64 167.154 1348.94 168.565 1348.85C169.679 1348.76 169.357 1347.6 169.258 1346.97C168.763 1343.92 170.137 1343.43 172.65 1343.54C174.432 1343.62 174.903 1344.8 175.757 1345.93C176.623 1347.09 176.734 1349.35 179.284 1348.76C178.356 1347.22 177.663 1345.95 176.858 1344.76C176.215 1343.83 176.041 1343.26 177.155 1342.49V1342.49ZM174.209 1341.79C172.6 1341.7 170.223 1342.72 169.58 1341.27C168.8 1339.51 169.06 1337.01 169.444 1334.96C169.753 1333.34 171.511 1334.54 172.377 1334.16C173.652 1334.18 174.754 1334.05 175.781 1334.66C177.032 1335.38 177.65 1336.49 177.638 1337.99C177.613 1339.46 177.093 1340.67 175.781 1341.3C175.286 1341.55 174.729 1341.81 174.209 1341.79V1341.79Z" fill="#FAF4E6"/>
<path d="M687.346 1342.19C689.218 1340.85 689.516 1338.62 689.007 1336.37C688.474 1333.95 686.763 1332.76 684.606 1332.49C682.684 1332.26 680.724 1332.44 678.778 1332.36C677.55 1332.31 677.476 1333.08 677.476 1334.06C677.488 1338.38 677.463 1342.7 677.501 1347.01C677.501 1347.69 677.129 1348.78 678.282 1348.82C679.485 1348.86 679.1 1347.77 679.15 1347.08C679.36 1343.69 680.377 1342.87 683.477 1343.61C685.201 1344.02 685.349 1345.89 686.267 1347.04C686.986 1347.96 687.284 1349.49 689.082 1348.57C688.363 1347.39 687.743 1346.18 686.961 1345.11C686.106 1343.92 685.895 1343.21 687.346 1342.19V1342.19ZM682.126 1341.81C678.79 1341.77 679.187 1342.39 679.15 1337.53C678.939 1335.75 678.753 1333.74 682.163 1334.06C685.92 1334.41 687.544 1335.28 687.519 1337.98C687.495 1340.69 685.907 1341.85 682.126 1341.81V1341.81Z" fill="#FAF4E6"/>
<path d="M192.131 1332.36C187.692 1332.26 184.063 1335.95 184.063 1340.6C184.063 1345.25 187.518 1348.8 191.857 1348.86C196.172 1348.9 199.713 1345.28 199.775 1340.75C199.838 1336.2 196.433 1332.48 192.131 1332.36V1332.36ZM192.057 1347.17C188.615 1347.22 185.784 1344.31 185.759 1340.69C185.734 1337.04 188.453 1334.17 191.957 1334.14C195.274 1334.12 197.992 1336.91 198.08 1340.43C198.179 1344.07 195.461 1347.11 192.057 1347.17Z" fill="#FAF4E6"/>
<path d="M774.59 1332.36C770.301 1332.51 766.909 1336.27 767.009 1340.81C767.096 1345.33 770.687 1348.93 774.989 1348.86C779.328 1348.76 782.744 1345.08 782.719 1340.54C782.682 1335.89 779.029 1332.22 774.59 1332.36V1332.36ZM774.952 1347.17C771.523 1347.19 768.705 1344.26 768.692 1340.66C768.692 1337 771.423 1334.14 774.927 1334.14C778.243 1334.13 780.949 1336.95 781.024 1340.49C781.099 1344.13 778.355 1347.14 774.952 1347.17V1347.17Z" fill="#FAF4E6"/>
<path d="M701.8 1332.36C697.373 1332.36 693.845 1336.17 693.944 1340.82C694.044 1345.34 697.635 1348.95 701.937 1348.86C706.276 1348.75 709.692 1345.07 709.655 1340.52C709.605 1335.99 706.114 1332.36 701.8 1332.36V1332.36ZM701.887 1347.17C698.458 1347.19 695.64 1344.26 695.628 1340.65C695.628 1337 698.358 1334.14 701.874 1334.14C705.191 1334.13 707.897 1336.95 707.959 1340.48C708.034 1344.13 705.291 1347.14 701.887 1347.17V1347.17Z" fill="#FAF4E6"/>
<path d="M410.742 1332.37C406.432 1332.16 402.733 1335.62 402.484 1340.11C402.235 1344.76 405.61 1348.67 410.057 1348.85C414.341 1349.03 418.016 1345.47 418.178 1340.96C418.34 1336.43 415.026 1332.59 410.742 1332.37V1332.37ZM410.231 1347.17C406.818 1347.11 404.078 1344.07 404.178 1340.47C404.277 1336.81 407.08 1334.06 410.592 1334.15C413.88 1334.23 416.521 1337.15 416.484 1340.69C416.459 1344.33 413.644 1347.24 410.231 1347.17V1347.17Z" fill="#FAF4E6"/>
<path d="M118.433 1340.48C118.433 1338 117.465 1334.69 118.687 1333.25C120.126 1331.54 123.5 1332.86 126.033 1332.67C126.504 1332.63 126.988 1332.65 127.459 1332.67C128.044 1332.69 128.668 1332.73 128.63 1333.56C128.592 1334.37 127.955 1334.37 127.395 1334.38C125.587 1334.41 123.754 1334.55 121.972 1334.35C119.553 1334.08 119.871 1335.69 119.973 1337.09C120.062 1338.41 119.12 1340.43 121.87 1340.2C123.385 1340.07 124.913 1340.16 126.44 1340.2C126.975 1340.2 127.713 1340.07 127.764 1340.89C127.828 1341.9 127.001 1341.82 126.351 1341.83C125.205 1341.86 124.072 1341.83 122.927 1341.83C120.266 1341.83 118.891 1344.04 120.011 1346.46C120.406 1347.31 121.093 1347.09 121.705 1347.11C123.792 1347.15 125.893 1347.12 127.993 1347.13C128.617 1347.13 129.127 1347.3 129.063 1348.1C129.012 1348.74 128.541 1348.83 128.057 1348.84C125.205 1348.84 122.341 1348.83 119.489 1348.86C118.178 1348.87 118.242 1348.01 118.242 1347.11C118.242 1344.89 118.242 1342.68 118.242 1340.47H118.446L118.433 1340.48Z" fill="#FAF4E6"/>
<path d="M232.255 1340.64C232.506 1338.06 231.211 1334.73 232.77 1333.21C234.443 1331.59 237.776 1332.8 240.38 1332.73C241.147 1332.7 242.594 1332.09 242.505 1333.65C242.443 1334.87 241.172 1334.31 240.43 1334.37C239.311 1334.46 238.154 1334.54 237.047 1334.37C234.582 1334 233.789 1334.88 233.915 1337.42C234.016 1339.45 234.343 1340.41 236.556 1340.12C237.94 1339.94 239.374 1340.08 240.782 1340.11C241.26 1340.11 241.751 1340.23 241.751 1340.85C241.751 1341.42 241.323 1341.67 240.82 1341.68C239.122 1341.7 237.424 1341.79 235.739 1341.68C233.462 1341.54 234.053 1343.16 234.016 1344.35C233.978 1345.62 233.601 1347.1 235.814 1346.93C237.688 1346.78 239.575 1346.88 241.462 1346.92C242.053 1346.92 242.921 1346.67 242.983 1347.68C243.046 1348.95 242.028 1348.53 241.361 1348.62C240.996 1348.67 240.606 1348.63 240.229 1348.62C237.701 1348.55 234.355 1349.44 232.884 1348.16C231.148 1346.65 232.582 1343.18 232.255 1340.63V1340.64Z" fill="#FAF4E6"/>
<path d="M451.18 1340.47C451.18 1338.33 451.204 1336.17 451.18 1334.02C451.168 1333 451.336 1332.33 452.473 1332.36C454.891 1332.41 457.309 1332.36 459.727 1332.39C460.242 1332.39 460.877 1332.33 460.948 1333.14C461.032 1334.19 460.278 1334.11 459.68 1334.13C457.98 1334.15 456.268 1334.27 454.58 1334.11C452.509 1333.92 452.676 1335.41 452.844 1336.73C453 1338 451.839 1340.16 454.484 1340.03C455.909 1339.96 457.345 1339.99 458.782 1340.03C459.356 1340.04 460.218 1339.82 460.17 1340.86C460.122 1341.82 459.308 1341.67 458.71 1341.69C457.369 1341.71 456.016 1341.82 454.688 1341.67C452.449 1341.43 452.82 1343.07 452.82 1344.5C452.82 1345.85 452.521 1347.31 454.604 1347.12C456.471 1346.95 458.363 1347.08 460.242 1347.09C460.769 1347.09 461.355 1347.09 461.391 1347.93C461.427 1348.78 460.865 1348.83 460.314 1348.83C457.716 1348.83 455.119 1348.8 452.521 1348.86C451.408 1348.88 451.18 1348.27 451.192 1347.22C451.228 1344.97 451.192 1342.72 451.192 1340.47H451.18Z" fill="#FAF4E6"/>
<path d="M636.913 1340.26C637.089 1338.16 635.831 1334.81 637.353 1333.24C639.001 1331.55 642.346 1332.82 644.937 1332.73C645.717 1332.71 647.188 1332.12 647.1 1333.63C647.025 1335 645.604 1334.31 644.786 1334.4C643.767 1334.51 642.698 1334.54 641.692 1334.4C639.328 1334.06 638.41 1334.76 638.498 1337.43C638.573 1339.76 639.252 1340.45 641.39 1340.2C642.497 1340.06 643.642 1340.15 644.774 1340.2C645.365 1340.22 646.258 1339.93 646.321 1340.93C646.384 1341.93 645.516 1341.8 644.887 1341.82C643.855 1341.85 642.786 1341.99 641.793 1341.81C638.837 1341.29 638.334 1342.79 638.548 1345.35C638.661 1346.72 639.038 1347.18 640.372 1347.13C642.346 1347.04 644.321 1347.1 646.295 1347.13C646.824 1347.13 647.49 1347.02 647.578 1347.84C647.692 1348.88 646.937 1348.83 646.283 1348.83C643.654 1348.83 641.013 1348.78 638.384 1348.86C637.026 1348.89 636.875 1348.15 636.888 1347.06C636.925 1344.96 636.888 1342.85 636.888 1340.28L636.913 1340.26Z" fill="#FAF4E6"/>
<path d="M728.777 1340.65C729.029 1338.06 727.733 1334.72 729.293 1333.21C730.965 1331.59 734.298 1332.8 736.901 1332.73C737.656 1332.7 739.115 1332.08 739.027 1333.65C738.964 1334.87 737.694 1334.31 736.952 1334.37C735.832 1334.46 734.676 1334.54 733.569 1334.37C731.104 1334.01 730.312 1334.87 730.437 1337.43C730.538 1339.44 730.852 1340.42 733.078 1340.13C734.462 1339.95 735.895 1340.09 737.304 1340.11C737.782 1340.11 738.272 1340.24 738.272 1340.86C738.272 1341.44 737.857 1341.67 737.342 1341.69C735.644 1341.71 733.946 1341.8 732.261 1341.69C729.997 1341.55 730.576 1343.16 730.538 1344.36C730.5 1345.63 730.123 1347.12 732.336 1346.94C734.21 1346.79 736.097 1346.89 737.983 1346.93C738.574 1346.93 739.442 1346.68 739.505 1347.68C739.58 1348.93 738.549 1348.53 737.882 1348.62C737.518 1348.67 737.128 1348.63 736.75 1348.62C734.223 1348.55 730.877 1349.44 729.393 1348.16C727.658 1346.65 729.092 1343.18 728.765 1340.63L728.777 1340.65Z" fill="#FAF4E6"/>
<path d="M280.902 1333.55C280.647 1332.91 280.368 1332.39 279.555 1332.36C278.584 1332.32 278.341 1333.04 278.05 1333.75C276.047 1338.67 274.057 1343.6 272.055 1348.53C273.462 1349.35 274.021 1348.5 274.3 1347.35C274.834 1345.17 276.072 1344.4 278.098 1344.73C279.069 1344.88 280.101 1344.86 281.084 1344.73C282.856 1344.5 284.033 1345 284.542 1347.05C284.809 1348.13 285.283 1349.41 286.982 1348.55C284.955 1343.55 282.928 1338.55 280.902 1333.55V1333.55ZM276.157 1342.89C277.225 1340.16 278.208 1337.62 279.445 1334.45C280.695 1337.53 281.703 1340.04 282.856 1342.89H276.157Z" fill="#FAF4E6"/>
<path d="M313.578 1333.56C313.31 1332.9 313.003 1332.39 312.16 1332.36C311.126 1332.31 310.883 1333.04 310.589 1333.75C308.468 1338.67 306.373 1343.6 304.266 1348.54C305.747 1349.35 306.335 1348.5 306.629 1347.36C307.191 1345.18 308.494 1344.4 310.627 1344.73C311.662 1344.89 312.748 1344.86 313.783 1344.73C315.635 1344.51 316.887 1345.01 317.411 1347.05C317.692 1348.16 318.19 1349.41 319.978 1348.56C317.845 1343.55 315.712 1338.55 313.578 1333.56V1333.56ZM308.852 1342.9C309.388 1340.06 310.883 1337.71 312.02 1334.28C313.412 1337.62 314.473 1340.15 315.61 1342.9H308.852Z" fill="#FAF4E6"/>
<path d="M374.934 1348.14C374.873 1347.95 374.823 1347.76 374.749 1347.59C372.788 1342.85 370.813 1338.12 368.864 1333.37C368.568 1332.65 368.123 1332.35 367.383 1332.36C366.371 1332.39 366.248 1333.26 365.964 1333.93C364.163 1338.21 362.386 1342.5 360.646 1346.8C360.412 1347.4 359.536 1348.21 360.461 1348.71C361.436 1349.24 361.794 1348.24 362.213 1347.42C362.781 1346.33 362.732 1344.45 364.595 1344.75C367.692 1345.22 371.874 1342.76 373.182 1348.24C373.343 1348.9 374.046 1348.87 374.614 1348.75C374.91 1348.7 375.046 1348.46 374.934 1348.14V1348.14ZM364.151 1342.83C365.199 1340.13 366.174 1337.64 367.297 1334.77C369 1337.28 369.555 1340 370.9 1342.66C368.605 1343.19 366.519 1342.93 364.151 1342.83V1342.83Z" fill="#FAF4E6"/>
<path d="M614.578 1333.87C614.283 1333.2 614.104 1332.41 613.064 1332.36C611.871 1332.3 611.666 1333.2 611.332 1333.96C609.511 1338.15 607.702 1342.35 605.944 1346.59C605.675 1347.24 604.507 1348.11 605.674 1348.7C606.919 1349.32 607.317 1347.96 607.548 1347.1C608.099 1344.94 609.472 1344.48 611.409 1344.69C612.551 1344.82 613.732 1344.82 614.861 1344.69C616.67 1344.47 617.722 1345.13 618.26 1346.95C618.568 1348.02 618.992 1349.33 620.878 1348.52C618.722 1343.51 616.67 1338.69 614.578 1333.87V1333.87ZM609.677 1342.86C610.229 1340.04 611.717 1337.68 612.756 1334.64C614.424 1337.42 615.297 1340.09 616.375 1342.86H609.677Z" fill="#FAF4E6"/>
<path d="M524.088 1333.68C523.298 1331.93 522.073 1331.9 521.27 1333.68C519.063 1338.61 516.959 1343.6 514.816 1348.55C516.347 1349.35 516.895 1348.46 517.214 1347.33C517.801 1345.2 519.076 1344.41 521.232 1344.77C522.252 1344.94 523.336 1344.9 524.369 1344.77C526.257 1344.54 527.443 1345.12 527.966 1347.11C528.259 1348.22 528.782 1349.44 530.529 1348.55C528.387 1343.59 526.308 1338.6 524.088 1333.67V1333.68ZM519.178 1342.91C520.275 1340.22 521.295 1337.77 522.494 1334.83C524.114 1337.56 524.981 1340.2 526.04 1342.91H519.178V1342.91Z" fill="#FAF4E6"/>
<path d="M814.009 1333.69C813.218 1331.94 811.992 1331.9 811.188 1333.69C808.955 1338.61 806.861 1343.6 804.717 1348.57C806.197 1349.31 806.81 1348.51 807.104 1347.36C807.653 1345.17 808.993 1344.47 811.112 1344.78C812.146 1344.92 813.218 1344.91 814.252 1344.78C816.128 1344.56 817.341 1345.09 817.877 1347.1C818.158 1348.2 818.668 1349.43 820.43 1348.56C818.298 1343.6 816.205 1338.62 814.009 1333.7V1333.69ZM809.057 1342.96C810.205 1340.17 811.214 1337.7 812.388 1334.83C814.047 1337.53 814.89 1340.21 816 1342.96H809.057V1342.96Z" fill="#FAF4E6"/>
<path d="M299.747 1332.66C298.449 1332.24 297.151 1332.44 296.115 1332.37C294.916 1332.37 293.992 1332.4 293.056 1332.36C292.145 1332.33 291.695 1332.68 291.695 1333.71C291.72 1338.33 291.695 1342.95 291.708 1347.56C291.708 1348.13 291.67 1348.79 292.469 1348.85C293.268 1348.92 293.468 1348.3 293.356 1347.71C292.582 1343.7 294.679 1343.16 297.712 1343.56C298.411 1343.65 299.185 1343.37 299.897 1343.16C302.419 1342.41 303.48 1340.48 303.48 1337.87C303.48 1335.19 302.219 1333.45 299.747 1332.66V1332.66ZM296.164 1341.9C292.594 1342.23 293.455 1339.86 293.356 1337.2C293.143 1335.57 293.131 1333.78 296.339 1334.06C300.197 1334.4 301.77 1335.21 301.795 1337.91C301.832 1340.67 300.134 1341.55 296.164 1341.9V1341.9Z" fill="#FAF4E6"/>
<path d="M670.609 1333.71C667.844 1331.92 664.566 1332.16 661.813 1332.98C660.174 1333.46 661.409 1336.59 661.152 1338.51C661.055 1339.27 661.14 1340.06 661.14 1340.83C661.14 1343.04 661.128 1345.26 661.152 1347.48C661.152 1348.14 661.067 1348.94 662.058 1348.85C662.841 1348.79 662.865 1348.09 662.767 1347.56C662.021 1343.7 664.101 1343.3 666.927 1343.67C668.028 1343.81 669.116 1343.44 670.095 1342.92C673.337 1341.19 673.679 1335.73 670.609 1333.71ZM665.618 1342.03C662.339 1342.33 662.608 1340.38 662.865 1338.07C662.376 1335.64 662.669 1334.04 665.862 1334.32C669.483 1334.67 671.123 1335.63 671.037 1338.29C670.951 1340.89 669.361 1341.7 665.618 1342.03Z" fill="#FAF4E6"/>
<path d="M750.633 1332.36C751.195 1332.5 752.367 1332.75 753.479 1333.15C754.004 1333.33 754.859 1333.51 754.517 1334.51C754.188 1335.47 753.577 1335.08 752.954 1334.83C751.659 1334.31 750.327 1333.89 748.935 1334.24C747.908 1334.49 746.956 1334.97 746.76 1336.19C746.552 1337.45 747.322 1338.24 748.287 1338.7C749.704 1339.37 751.207 1339.84 752.624 1340.5C754.261 1341.26 755.324 1342.57 755.214 1344.59C755.092 1346.74 753.821 1347.84 752.001 1348.47C749.631 1349.3 747.481 1348.7 745.404 1347.54C744.781 1347.2 743.901 1346.76 744.341 1345.8C744.891 1344.6 745.563 1345.64 746.125 1345.94C747.713 1346.81 749.326 1347.45 751.121 1346.94C752.123 1346.65 753.027 1346.15 753.186 1344.87C753.345 1343.5 752.722 1342.58 751.61 1342.07C750.608 1341.61 749.558 1341.26 748.507 1340.89C746.369 1340.11 744.61 1338.95 744.842 1336.14C745.025 1333.88 747.2 1332.37 750.645 1332.36H750.633Z" fill="#FAF4E6"/>
<path d="M566.649 1338.51C566.649 1339.7 566.674 1340.87 566.649 1342.05C566.507 1346.41 564.077 1348.88 559.974 1348.86C555.859 1348.83 553.455 1346.38 553.352 1342C553.287 1339.34 553.313 1336.69 553.352 1334.03C553.352 1333.34 553.043 1332.27 554.316 1332.38C555.332 1332.46 555.049 1333.36 555.062 1333.98C555.101 1336.64 555.036 1339.3 555.088 1341.95C555.165 1345.37 556.927 1347.19 560.026 1347.16C563.138 1347.15 564.823 1345.36 564.9 1341.88C564.951 1339.33 564.887 1336.76 564.925 1334.21C564.938 1333.52 564.527 1332.44 565.723 1332.36C566.983 1332.28 566.61 1333.39 566.636 1334.09C566.7 1335.56 566.649 1337.04 566.649 1338.51V1338.51Z" fill="#FAF4E6"/>
<path d="M107.891 1347.07C109.256 1347.14 110.472 1346.72 111.587 1345.92C112.138 1345.52 112.727 1345.04 113.228 1345.93C113.642 1346.66 112.953 1346.94 112.552 1347.28C109.62 1349.77 104.746 1349.25 102.077 1346.18C99.2953 1342.98 99.3078 1338.08 102.114 1334.96C104.796 1331.98 109.808 1331.47 112.639 1333.9C113.065 1334.26 113.667 1334.55 113.153 1335.26C112.715 1335.88 112.226 1335.69 111.712 1335.3C109.92 1333.92 107.916 1333.66 105.848 1334.38C103.029 1335.36 101.262 1338.62 101.789 1341.62C102.327 1344.74 104.884 1347 107.891 1347.06V1347.07Z" fill="#FAF4E6"/>
<path d="M263.575 1348.86C260.12 1348.91 257.179 1346.77 256.035 1343.36C254.879 1339.91 255.859 1336.28 258.524 1334.12C261.15 1331.99 265.021 1331.75 267.786 1333.62C268.263 1333.95 269.218 1334.16 268.816 1335.06C268.313 1336.18 267.647 1335.46 266.981 1335.1C263.588 1333.33 260.647 1333.83 258.612 1336.44C256.777 1338.8 256.777 1342.22 258.612 1344.59C260.66 1347.24 263.601 1347.75 266.956 1346.02C267.584 1345.69 268.263 1344.85 268.791 1346C269.193 1346.85 268.301 1347.16 267.811 1347.48C266.516 1348.29 265.134 1348.9 263.563 1348.84L263.575 1348.86Z" fill="#FAF4E6"/>
<path d="M330.256 1347.1C331.536 1347.13 332.666 1346.74 333.734 1346.06C334.324 1345.68 335.014 1344.86 335.579 1345.98C336.006 1346.85 335.115 1347.13 334.638 1347.48C331.763 1349.57 327.645 1349.24 324.983 1346.77C322.309 1344.28 321.568 1340.18 323.187 1336.85C324.744 1333.64 328.31 1331.81 331.675 1332.51C332.127 1332.6 332.616 1332.69 333.018 1332.91C334.022 1333.45 335.993 1333.7 335.504 1335.01C334.813 1336.84 333.696 1334.82 332.83 1334.52C330.281 1333.64 327.996 1333.88 326.037 1335.82C324.004 1337.85 323.464 1340.31 324.569 1343.05C325.623 1345.65 327.619 1346.89 330.268 1347.07L330.256 1347.1Z" fill="#FAF4E6"/>
<path d="M385.967 1347.06C387.307 1347.06 388.488 1346.64 389.589 1345.91C390.16 1345.53 390.784 1345 391.328 1345.91C391.779 1346.64 391.062 1346.93 390.638 1347.27C387.559 1349.76 382.371 1349.26 379.544 1346.19C376.585 1343 376.599 1338.11 379.544 1334.97C382.371 1331.98 387.665 1331.47 390.691 1333.88C391.142 1334.25 391.792 1334.54 391.261 1335.25C390.651 1336.07 390.067 1335.52 389.497 1335.16C387.201 1333.7 384.826 1333.6 382.464 1334.89C379.81 1336.35 378.576 1339.36 379.345 1342.18C380.168 1345.16 382.849 1347.14 385.954 1347.07L385.967 1347.06Z" fill="#FAF4E6"/>
<path d="M719.867 1332.48C720.96 1332.48 722.053 1332.46 723.134 1332.48C723.717 1332.51 724.531 1332.28 724.58 1333.27C724.628 1334.3 723.815 1334.14 723.219 1334.15C722.041 1334.19 720.838 1334.3 719.672 1334.14C717.328 1333.79 716.866 1334.81 716.83 1337.08C716.793 1339.55 717.619 1340.02 719.794 1339.99C721.094 1339.98 723.474 1338.79 723.62 1340.87C723.705 1342.09 721.106 1341.6 719.83 1341.44C716.963 1341.06 716.805 1342.59 716.866 1344.86C716.89 1345.96 717.656 1348.1 716.076 1348.07C714.558 1348.05 715.384 1345.94 715.335 1344.78C715.202 1341.69 715.469 1338.56 715.238 1335.48C715.044 1332.93 715.87 1332.04 718.239 1332.46C718.773 1332.54 719.332 1332.47 719.879 1332.47L719.867 1332.48Z" fill="#FAF4E6"/>
<path d="M630.26 1339.36C630.26 1341.22 630.377 1343.08 630.234 1344.92C630.092 1346.7 629.185 1348.07 627.398 1348.62C625.482 1349.22 623.772 1348.64 622.244 1347.46C621.752 1347.1 621.442 1346.59 621.856 1345.96C622.348 1345.24 622.749 1345.73 623.267 1346.01C627.023 1348.01 628.538 1347.06 628.577 1342.74C628.577 1341.56 628.603 1340.39 628.577 1339.21C628.538 1337.67 628.965 1335.82 628.279 1334.64C627.554 1333.4 625.598 1334.34 624.213 1334.15C623.643 1334.07 622.996 1334.15 622.931 1333.32C622.866 1332.48 623.488 1332.43 624.083 1332.38C624.278 1332.36 624.472 1332.38 624.666 1332.38C628.456 1332.12 630.329 1334.45 630.286 1339.36H630.26Z" fill="#FAF4E6"/>
<path d="M156.898 1341.5C156.898 1340.52 156.797 1339.53 156.91 1338.56C157.288 1335.5 156.873 1333.31 153.119 1334.1C152.603 1334.2 151.935 1334.19 151.859 1333.35C151.771 1332.28 152.54 1332.36 153.182 1332.36C156.281 1332.36 159.392 1332.36 162.49 1332.36C163.057 1332.36 163.662 1332.4 163.636 1333.25C163.611 1334.08 163.007 1334.08 162.44 1334.11C161.974 1334.12 161.495 1334.19 161.029 1334.11C159.026 1333.78 158.447 1334.64 158.535 1336.7C158.699 1340.23 158.586 1343.76 158.56 1347.3C158.56 1347.93 158.774 1348.8 157.767 1348.86C156.734 1348.91 156.898 1348.04 156.885 1347.4C156.86 1345.44 156.885 1343.48 156.885 1341.5H156.898Z" fill="#FAF4E6"/>
<path d="M352.072 1341.5C352.072 1340.52 351.964 1339.53 352.085 1338.56C352.488 1335.5 352.045 1333.31 348.041 1334.1C347.491 1334.2 346.778 1334.19 346.698 1333.35C346.604 1332.28 347.423 1332.36 348.108 1332.36C351.414 1332.36 354.732 1332.36 358.037 1332.36C358.642 1332.36 359.287 1332.4 359.26 1333.25C359.233 1334.08 358.588 1334.08 357.984 1334.11C357.486 1334.12 356.976 1334.19 356.479 1334.11C354.343 1333.78 353.724 1334.64 353.818 1336.7C353.993 1340.23 353.872 1343.76 353.845 1347.3C353.845 1347.93 354.074 1348.8 352.999 1348.86C351.897 1348.91 352.072 1348.04 352.059 1347.4C352.032 1345.44 352.059 1343.48 352.059 1341.5H352.072Z" fill="#FAF4E6"/>
<path d="M826.199 1339.48V1341.27C826.199 1344.89 827.912 1346.82 831.337 1347.05C832 1347.1 833.096 1346.69 832.994 1348C832.905 1349.22 831.859 1348.77 831.196 1348.81C826.717 1349.05 824.478 1346.89 824.478 1342.31C824.478 1339.84 824.402 1337.36 824.516 1334.9C824.567 1334 823.752 1332.27 825.396 1332.36C826.849 1332.44 826.072 1334.11 826.161 1335.04C826.288 1336.51 826.199 1338 826.199 1339.5V1339.48Z" fill="#FAF4E6"/>
<path d="M593.395 1340.47C593.395 1338.21 593.395 1335.94 593.395 1333.68C593.395 1333.12 593.318 1332.43 594.144 1332.37C595.202 1332.27 595.112 1333.09 595.112 1333.76C595.125 1337.4 595.228 1341.05 595.073 1344.69C594.996 1346.69 595.68 1347.31 597.539 1347.11C598.687 1346.98 599.862 1347.08 601.011 1347.11C601.501 1347.11 601.966 1347.21 602.017 1347.87C602.082 1348.7 601.566 1348.86 600.933 1348.86C598.803 1348.86 596.687 1348.84 594.557 1348.86C593.434 1348.86 593.369 1348.13 593.382 1347.28C593.382 1345.02 593.382 1342.76 593.382 1340.49L593.395 1340.47Z" fill="#FAF4E6"/>
<path d="M580.034 1340.49C580.034 1338.23 580.034 1335.96 580.034 1333.7C580.034 1333.13 579.956 1332.45 580.782 1332.37C581.839 1332.27 581.749 1333.08 581.762 1333.75C581.762 1337.4 581.878 1341.05 581.723 1344.7C581.646 1346.68 582.303 1347.33 584.173 1347.12C585.321 1346.99 586.494 1347.09 587.642 1347.12C588.132 1347.12 588.609 1347.22 588.661 1347.87C588.725 1348.69 588.222 1348.86 587.578 1348.86C585.45 1348.86 583.335 1348.86 581.207 1348.86C579.84 1348.86 580.034 1347.86 580.034 1347C580.021 1344.83 580.034 1342.67 580.034 1340.49V1340.49Z" fill="#FAF4E6"/>
<path d="M761.486 1340.75C761.486 1342.92 761.51 1345.1 761.486 1347.27C761.486 1347.89 761.695 1348.77 760.779 1348.85C759.828 1348.93 759.944 1348.07 759.944 1347.41C759.933 1342.87 759.933 1338.34 759.944 1333.79C759.944 1333.13 759.828 1332.27 760.779 1332.37C761.695 1332.45 761.475 1333.33 761.486 1333.95C761.521 1336.22 761.486 1338.5 761.486 1340.75Z" fill="#FAF4E6"/>
<path d="M574.525 1340.53C574.525 1342.9 574.525 1345.27 574.525 1347.63C574.525 1348.22 574.472 1348.86 573.338 1348.86C572.203 1348.86 572.168 1348.22 572.168 1347.62C572.168 1342.88 572.168 1338.16 572.168 1333.43C572.168 1332.94 572.274 1332.44 573.16 1332.37C574.259 1332.28 574.525 1332.79 574.525 1333.44C574.525 1335.8 574.525 1338.17 574.525 1340.53V1340.53Z" fill="#FAF4E6"/>
<path d="M396.194 1340.34C396.194 1338.17 396.182 1335.99 396.194 1333.83C396.194 1333.18 396.042 1332.32 397.016 1332.36C397.768 1332.39 397.744 1333.06 397.756 1333.64C397.756 1338.28 397.756 1342.91 397.756 1347.55C397.756 1348.11 397.803 1348.8 397.063 1348.85C396.1 1348.93 396.206 1348.1 396.194 1347.44C396.182 1345.08 396.194 1342.7 396.194 1340.34V1340.34Z" fill="#FAF4E6"/>
<path d="M342.756 1340.48C342.756 1342.84 342.756 1345.21 342.756 1347.57C342.756 1348.16 342.768 1348.8 342.015 1348.85C341.249 1348.91 341.19 1348.29 341.19 1347.68C341.19 1342.95 341.19 1338.22 341.19 1333.49C341.19 1332.85 341.32 1332.29 342.062 1332.37C342.815 1332.45 342.756 1333.11 342.756 1333.69C342.768 1335.95 342.756 1338.22 342.756 1340.48V1340.48Z" fill="#FAF4E6"/>
<path d="M409.555 1330.79C409.641 1330.35 409.613 1330.07 409.742 1329.98C410.716 1329.19 410.859 1327.37 412.693 1327.68C413.094 1327.75 413.696 1328.03 413.381 1328.45C412.493 1329.71 411.361 1330.72 409.541 1330.79H409.555Z" fill="#FAF4E6"/>
<g filter="url(#filter14_biif_363_595)">
<rect width="1280" height="183" fill="url(#paint15_linear_363_595)"/>
</g>
</g>
<defs>
<filter id="filter0_f_363_595" x="22" y="156" width="341" height="338" filterUnits="userSpaceOnUse" color-interpolation-filters="sRGB">
<feFlood flood-opacity="0" result="BackgroundImageFix"/>
<feBlend mode="normal" in="SourceGraphic" in2="BackgroundImageFix" result="shape"/>
<feGaussianBlur stdDeviation="40" result="effect1_foregroundBlur_363_595"/>
</filter>
<filter id="filter1_f_363_595" x="113" y="256" width="341" height="338" filterUnits="userSpaceOnUse" color-interpolation-filters="sRGB">
<feFlood flood-opacity="0" result="BackgroundImageFix"/>
<feBlend mode="normal" in="SourceGraphic" in2="BackgroundImageFix" result="shape"/>
<feGaussianBlur stdDeviation="40" result="effect1_foregroundBlur_363_595"/>
</filter>
<filter id="filter2_f_363_595" x="295" y="207" width="407" height="404" filterUnits="userSpaceOnUse" color-interpolation-filters="sRGB">
<feFlood flood-opacity="0" result="BackgroundImageFix"/>
<feBlend mode="normal" in="SourceGraphic" in2="BackgroundImageFix" result="shape"/>
<feGaussianBlur stdDeviation="40" result="effect1_foregroundBlur_363_595"/>
</filter>
<filter id="filter3_f_363_595" x="-80" y="500" width="328" height="326" filterUnits="userSpaceOnUse" color-interpolation-filters="sRGB">
<feFlood flood-opacity="0" result="BackgroundImageFix"/>
<feBlend mode="normal" in="SourceGraphic" in2="BackgroundImageFix" result="shape"/>
<feGaussianBlur stdDeviation="40" result="effect1_foregroundBlur_363_595"/>
</filter>
<filter id="filter4_f_363_595" x="575" y="103" width="407" height="404" filterUnits="userSpaceOnUse" color-interpolation-filters="sRGB">
<feFlood flood-opacity="0" result="BackgroundImageFix"/>
<feBlend mode="normal" in="SourceGraphic" in2="BackgroundImageFix" result="shape"/>
<feGaussianBlur stdDeviation="40" result="effect1_foregroundBlur_363_595"/>
</filter>
<filter id="filter5_f_363_595" x="1026" y="-69" width="334" height="332" filterUnits="userSpaceOnUse" color-interpolation-filters="sRGB">
<feFlood flood-opacity="0" result="BackgroundImageFix"/>
<feBlend mode="normal" in="SourceGraphic" in2="BackgroundImageFix" result="shape"/>
<feGaussianBlur stdDeviation="40" result="effect1_foregroundBlur_363_595"/>
</filter>
<filter id="filter6_f_363_595" x="765.48" y="887.592" width="296.427" height="294.166" filterUnits="userSpaceOnUse" color-interpolation-filters="sRGB">
<feFlood flood-opacity="0" result="BackgroundImageFix"/>
<feBlend mode="normal" in="SourceGraphic" in2="BackgroundImageFix" result="shape"/>
<feGaussianBlur stdDeviation="40" result="effect1_foregroundBlur_363_595"/>
</filter>
<filter id="filter7_f_363_595" x="696.891" y="962.966" width="296.427" height="294.166" filterUnits="userSpaceOnUse" color-interpolation-filters="sRGB">
<feFlood flood-opacity="0" result="BackgroundImageFix"/>
<feBlend mode="normal" in="SourceGraphic" in2="BackgroundImageFix" result="shape"/>
<feGaussianBlur stdDeviation="40" result="effect1_foregroundBlur_363_595"/>
</filter>
<filter id="filter8_f_363_595" x="509.962" y="926.033" width="346.174" height="343.913" filterUnits="userSpaceOnUse" color-interpolation-filters="sRGB">
<feFlood flood-opacity="0" result="BackgroundImageFix"/>
<feBlend mode="normal" in="SourceGraphic" in2="BackgroundImageFix" result="shape"/>
<feGaussianBlur stdDeviation="40" result="effect1_foregroundBlur_363_595"/>
</filter>
<filter id="filter9_f_363_595" x="852.16" y="1146.88" width="286.629" height="285.121" filterUnits="userSpaceOnUse" color-interpolation-filters="sRGB">
<feFlood flood-opacity="0" result="BackgroundImageFix"/>
<feBlend mode="normal" in="SourceGraphic" in2="BackgroundImageFix" result="shape"/>
<feGaussianBlur stdDeviation="40" result="effect1_foregroundBlur_363_595"/>
</filter>
<filter id="filter10_f_363_595" x="298.914" y="847.644" width="346.174" height="343.913" filterUnits="userSpaceOnUse" color-interpolation-filters="sRGB">
<feFlood flood-opacity="0" result="BackgroundImageFix"/>
<feBlend mode="normal" in="SourceGraphic" in2="BackgroundImageFix" result="shape"/>
<feGaussianBlur stdDeviation="40" result="effect1_foregroundBlur_363_595"/>
</filter>
<filter id="filter11_f_363_595" x="14" y="718" width="291.151" height="289.644" filterUnits="userSpaceOnUse" color-interpolation-filters="sRGB">
<feFlood flood-opacity="0" result="BackgroundImageFix"/>
<feBlend mode="normal" in="SourceGraphic" in2="BackgroundImageFix" result="shape"/>
<feGaussianBlur stdDeviation="40" result="effect1_foregroundBlur_363_595"/>
</filter>
<filter id="filter12_d_363_595" x="525.451" y="313" width="815.041" height="585.5" filterUnits="userSpaceOnUse" color-interpolation-filters="sRGB">
<feFlood flood-opacity="0" result="BackgroundImageFix"/>
<feColorMatrix in="SourceAlpha" type="matrix" values="0 0 0 0 0 0 0 0 0 0 0 0 0 0 0 0 0 0 127 0" result="hardAlpha"/>
<feOffset dy="40"/>
<feGaussianBlur stdDeviation="30"/>
<feComposite in2="hardAlpha" operator="out"/>
<feColorMatrix type="matrix" values="0 0 0 0 0.45098 0 0 0 0 0.0117647 0 0 0 0 0.752941 0 0 0 0.1 0"/>
<feBlend mode="normal" in2="BackgroundImageFix" result="effect1_dropShadow_363_595"/>
<feBlend mode="normal" in="SourceGraphic" in2="effect1_dropShadow_363_595" result="shape"/>
</filter>
<filter id="filter13_d_363_595" x="-65" y="-50" width="1105" height="1471" filterUnits="userSpaceOnUse" color-interpolation-filters="sRGB">
<feFlood flood-opacity="0" result="BackgroundImageFix"/>
<feColorMatrix in="SourceAlpha" type="matrix" values="0 0 0 0 0 0 0 0 0 0 0 0 0 0 0 0 0 0 127 0" result="hardAlpha"/>
<feOffset dy="4"/>
<feGaussianBlur stdDeviation="32.5"/>
<feComposite in2="hardAlpha" operator="out"/>
<feColorMatrix type="matrix" values="0 0 0 0 0.45098 0 0 0 0 0.0117647 0 0 0 0 0.752941 0 0 0 0.15 0"/>
<feBlend mode="normal" in2="BackgroundImageFix" result="effect1_dropShadow_363_595"/>
<feBlend mode="normal" in="SourceGraphic" in2="effect1_dropShadow_363_595" result="shape"/>
</filter>
<filter id="filter14_biif_363_595" x="-24" y="-24" width="1328" height="257" filterUnits="userSpaceOnUse" color-interpolation-filters="sRGB">
<feFlood flood-opacity="0" result="BackgroundImageFix"/>
<feGaussianBlur in="BackgroundImageFix" stdDeviation="12"/>
<feComposite in2="SourceAlpha" operator="in" result="effect1_backgroundBlur_363_595"/>
<feBlend mode="normal" in="SourceGraphic" in2="effect1_backgroundBlur_363_595" result="shape"/>
<feColorMatrix in="SourceAlpha" type="matrix" values="0 0 0 0 0 0 0 0 0 0 0 0 0 0 0 0 0 0 127 0" result="hardAlpha"/>
<feOffset dx="3.6" dy="3.6"/>
<feGaussianBlur stdDeviation="7"/>
<feComposite in2="hardAlpha" operator="arithmetic" k2="-1" k3="1"/>
<feColorMatrix type="matrix" values="0 0 0 0 0.133333 0 0 0 0 0.133333 0 0 0 0 0.133333 0 0 0 1 0"/>
<feBlend mode="normal" in2="shape" result="effect2_innerShadow_363_595"/>
<feColorMatrix in="SourceAlpha" type="matrix" values="0 0 0 0 0 0 0 0 0 0 0 0 0 0 0 0 0 0 127 0" result="hardAlpha"/>
<feOffset dx="-3.6" dy="50"/>
<feGaussianBlur stdDeviation="25"/>
<feComposite in2="hardAlpha" operator="arithmetic" k2="-1" k3="1"/>
<feColorMatrix type="matrix" values="0 0 0 0 0.133333 0 0 0 0 0.133333 0 0 0 0 0.133333 0 0 0 1 0"/>
<feBlend mode="normal" in2="effect2_innerShadow_363_595" result="effect3_innerShadow_363_595"/>
<feGaussianBlur stdDeviation="10" result="effect4_foregroundBlur_363_595"/>
</filter>
<radialGradient id="paint0_radial_363_595" cx="0" cy="0" r="1" gradientUnits="userSpaceOnUse" gradientTransform="translate(192.795 325) rotate(107.869) scale(86.4655 88.4943)">
<stop stop-color="#FF646D"/>
<stop offset="1" stop-color="#E964FF" stop-opacity="0.5"/>
</radialGradient>
<radialGradient id="paint1_radial_363_595" cx="0" cy="0" r="1" gradientUnits="userSpaceOnUse" gradientTransform="translate(283.795 425) rotate(107.869) scale(86.4655 88.4943)">
<stop stop-color="#FF646D"/>
<stop offset="1" stop-color="#E964FF" stop-opacity="0.5"/>
</radialGradient>
<radialGradient id="paint2_radial_363_595" cx="0" cy="0" r="1" gradientUnits="userSpaceOnUse" gradientTransform="translate(498.902 409) rotate(107.794) scale(118.476 120.814)">
<stop stop-color="#9F64FF"/>
<stop offset="1" stop-color="#E964FF" stop-opacity="0.5"/>
</radialGradient>
<radialGradient id="paint3_radial_363_595" cx="0" cy="0" r="1" gradientUnits="userSpaceOnUse" gradientTransform="translate(84.2736 663) rotate(107.79) scale(80.6005 82.1748)">
<stop stop-color="#FF646D"/>
<stop offset="1" stop-color="#E964FF" stop-opacity="0.5"/>
</radialGradient>
<radialGradient id="paint4_radial_363_595" cx="0" cy="0" r="1" gradientUnits="userSpaceOnUse" gradientTransform="translate(778.902 305) rotate(107.794) scale(118.476 120.814)">
<stop offset="0.711458" stop-color="#FF646D"/>
<stop offset="0.810417" stop-color="#E964FF" stop-opacity="0.5"/>
</radialGradient>
<radialGradient id="paint5_radial_363_595" cx="0" cy="0" r="1" gradientUnits="userSpaceOnUse" gradientTransform="translate(1193.28 97) rotate(107.783) scale(83.5106 85.1129)">
<stop offset="0.711458" stop-color="#FF646D"/>
<stop offset="0.810417" stop-color="#E964FF" stop-opacity="0.5"/>
</radialGradient>
<radialGradient id="paint6_radial_363_595" cx="0" cy="0" r="1" gradientUnits="userSpaceOnUse" gradientTransform="translate(68.4358 67.083) rotate(107.869) scale(65.1726 66.7018)">
<stop stop-color="#FF646D"/>
<stop offset="1" stop-color="#E964FF" stop-opacity="0.5"/>
</radialGradient>
<radialGradient id="paint7_radial_363_595" cx="0" cy="0" r="1" gradientUnits="userSpaceOnUse" gradientTransform="translate(68.4358 67.083) rotate(107.869) scale(65.1726 66.7018)">
<stop stop-color="#FF646D"/>
<stop offset="1" stop-color="#E964FF" stop-opacity="0.5"/>
</radialGradient>
<radialGradient id="paint8_radial_363_595" cx="0" cy="0" r="1" gradientUnits="userSpaceOnUse" gradientTransform="translate(93.3903 91.9565) rotate(107.794) scale(89.3001 91.0624)">
<stop stop-color="#9F64FF"/>
<stop offset="1" stop-color="#E964FF" stop-opacity="0.5"/>
</radialGradient>
<radialGradient id="paint9_radial_363_595" cx="0" cy="0" r="1" gradientUnits="userSpaceOnUse" gradientTransform="translate(63.5205 62.5605) rotate(107.79) scale(60.752 61.9386)">
<stop stop-color="#FF646D"/>
<stop offset="1" stop-color="#E964FF" stop-opacity="0.5"/>
</radialGradient>
<radialGradient id="paint10_radial_363_595" cx="0" cy="0" r="1" gradientUnits="userSpaceOnUse" gradientTransform="translate(93.3903 91.9565) rotate(107.794) scale(89.3001 91.0624)">
<stop offset="0.711458" stop-color="#FF646D"/>
<stop offset="0.810417" stop-color="#E964FF" stop-opacity="0.5"/>
</radialGradient>
<radialGradient id="paint11_radial_363_595" cx="0" cy="0" r="1" gradientUnits="userSpaceOnUse" gradientTransform="translate(65.7891 64.8218) rotate(107.783) scale(62.9454 64.1531)">
<stop offset="0.711458" stop-color="#FF646D"/>
<stop offset="0.810417" stop-color="#E964FF" stop-opacity="0.5"/>
</radialGradient>
<linearGradient id="paint12_linear_363_595" x1="-794.286" y1="798.5" x2="2715.38" y2="798.5" gradientUnits="userSpaceOnUse">
<stop stop-color="#3C3B3A"/>
<stop offset="1" stop-color="#222222"/>
</linearGradient>
<linearGradient id="paint13_linear_363_595" x1="975" y1="732.223" x2="-142.381" y2="732.223" gradientUnits="userSpaceOnUse">
<stop stop-color="#FDEFF9"/>
<stop offset="0.336458" stop-color="#EC38BC"/>
<stop offset="0.680208" stop-color="#7303C0"/>
<stop offset="1" stop-color="#03001E"/>
</linearGradient>
<linearGradient id="paint14_linear_363_595" x1="1280" y1="253" x2="1013" y2="253" gradientUnits="userSpaceOnUse">
<stop stop-color="#F989DF"/>
<stop offset="1" stop-color="#D44AB5"/>
</linearGradient>
<linearGradient id="paint15_linear_363_595" x1="640" y1="0" x2="640" y2="183" gradientUnits="userSpaceOnUse">
<stop stop-color="#1A1919"/>
<stop offset="0.529167" stop-color="#212120" stop-opacity="0.7"/>
<stop offset="0.810417" stop-color="#2D2D2C" stop-opacity="0.5"/>
<stop offset="1" stop-color="#3C3B3A" stop-opacity="0"/>
</linearGradient>
<clipPath id="clip0_363_595">
<rect width="1280" height="1352" fill="white"/>
</clipPath>
</defs>
</svg>
