<svg width="126" height="42" viewBox="0 0 126 42" fill="none" xmlns="http://www.w3.org/2000/svg">
<g clip-path="url(#clip0_255_4231)">
<path d="M0.00422012 33.4947C1.07613 32.2645 2.05309 31.1406 3.03426 30.0209C5.42496 27.2865 7.81776 24.5543 10.2064 21.8199C10.2971 21.7158 10.4596 21.6117 10.4131 21.4693C10.3604 21.3036 10.1663 21.3822 10.0354 21.3695C5.36588 20.9275 1.34622 17.3922 0.459993 12.9496C-0.626687 7.49357 2.27042 2.93626 7.64896 1.61687C8.9171 1.30668 10.2042 1.18345 11.4998 1.17707C15.4857 1.15795 19.4716 1.17707 23.4575 1.1622C23.8584 1.1622 24.0314 1.24506 23.9998 1.68698C23.9618 2.22451 23.9787 2.76841 23.9956 3.30807C24.004 3.59914 23.8985 3.71812 23.6115 3.69262C23.4702 3.67987 23.3267 3.6905 23.1853 3.69262C18.8829 3.70325 14.5784 3.65225 10.2781 3.74786C8.00345 3.79673 5.9166 4.55522 4.34461 6.3144C2.40125 8.48789 2.19657 11.0268 3.23472 13.6167C4.50075 16.7739 6.95686 18.4842 10.3119 18.907C10.9428 18.9856 11.5737 18.9835 12.2046 18.9835C15.9689 18.9835 19.7333 18.9899 23.4976 18.975C23.8901 18.975 24.0019 19.0749 23.9977 19.4764C23.9787 21.8772 23.9892 24.2781 23.9892 26.6789V27.1888L24.0694 27.2079C24.4535 26.3134 24.8417 25.419 25.2215 24.5224C28.4647 16.8716 31.7078 9.21876 34.9426 1.56375C35.0649 1.27268 35.2063 1.1452 35.5334 1.1622C36.101 1.19195 36.6728 1.18557 37.2404 1.16433C37.616 1.15158 37.6624 1.25356 37.5147 1.59562C36.4407 4.10267 35.3836 6.61822 34.3201 9.12952C30.9609 17.0586 27.5932 24.9856 24.2509 32.921C24.0547 33.3884 23.8247 33.5456 23.3478 33.5032C22.9089 33.4628 22.4595 33.4607 22.0206 33.5032C21.5796 33.5456 21.5057 33.3672 21.5078 32.9656C21.5226 29.4664 21.5163 25.9693 21.5163 22.47C21.5163 21.8 21.1751 21.4651 20.4929 21.4651C18.3892 21.4651 16.2854 21.4693 14.1817 21.4587C13.9053 21.4587 13.7133 21.5352 13.5297 21.7476C10.2612 25.504 6.98429 29.2518 3.71792 33.0124C3.43095 33.3438 3.15032 33.535 2.67766 33.5074C1.83153 33.4585 0.981177 33.4947 0 33.4947H0.00422012Z" fill="#D44AB5"/>
<path d="M64.3272 8.47089C64.3272 10.0197 63 11.3391 61.4407 11.3413C59.837 11.3455 58.5583 10.0644 58.5541 8.44964C58.5478 6.82644 59.8138 5.53679 61.4153 5.53254C63.0274 5.52829 64.3272 6.83918 64.3272 8.47089Z" fill="white"/>
<path d="M61.466 8.11326e-06C56.8007 -0.00636574 53.049 3.74359 53.0469 8.4135C53.0448 13.1259 56.75 16.8716 61.4175 16.8759C66.0617 16.8801 69.8113 13.1387 69.8239 8.48786C69.8387 3.80733 66.0934 0.00425735 61.466 8.11326e-06ZM61.4449 15.6478C57.4337 15.6521 54.2475 12.4609 54.2433 8.43475C54.2391 4.43409 57.4105 1.22804 61.39 1.21529C65.4013 1.20042 68.617 4.40009 68.617 8.40288C68.617 12.4057 65.4477 15.6436 61.4449 15.6478Z" fill="white"/>
<path d="M81.2162 25.3829C82.3557 25.3829 83.493 25.3913 84.6324 25.3765C84.9257 25.3722 85.0312 25.4445 85.0671 25.7632C85.4975 29.7298 82.7545 33.4182 78.7306 34.1235C75.5613 34.6781 72.9195 33.6434 71.0837 30.9727C69.2269 28.2723 69.0328 25.3616 70.7081 22.4976C73.1938 18.2505 78.9289 17.4092 82.5329 20.6938C82.6827 20.8319 83.0794 20.9785 82.7017 21.2611C82.4485 21.4502 82.3409 22.0323 81.7923 21.5352C77.971 18.0699 71.8856 20.0756 70.8622 25.1513C70.0055 29.4026 73.0398 32.4068 75.9263 32.9975C79.6463 33.7581 83.2123 31.3913 83.8833 27.7454C84.0339 26.9239 83.6948 26.5131 82.8663 26.5131C81.174 26.5131 79.4818 26.4919 77.7895 26.5259C77.2535 26.5365 77.3675 26.2221 77.3485 25.9161C77.3295 25.5804 77.3379 25.3552 77.8 25.3701C78.9374 25.4062 80.0768 25.3829 81.2162 25.3829Z" fill="white"/>
<path d="M48.3161 11.1862C47.7949 10.587 47.8983 10.2407 48.6685 10.007C51.0233 9.29525 52.435 7.00916 52.0151 4.58284C51.7091 2.80453 50.1033 1.42566 48.0756 1.23869C46.1364 1.0581 44.1889 1.1962 42.2455 1.1622C41.6315 1.15158 41.469 1.33005 41.469 1.95681C41.4669 4.10268 41.4669 6.24854 41.4669 8.39441V13.8292C41.4669 14.2414 41.4627 14.6557 41.4711 15.0678C41.4795 15.4078 41.6737 15.6117 41.9986 15.6266C42.3299 15.6415 42.5219 15.4354 42.5683 15.1082C42.5852 14.9829 42.5768 14.8532 42.5768 14.7279C42.5768 13.4722 42.5725 12.2166 42.5768 10.9609C42.5789 10.417 42.7519 10.245 43.2879 10.2386C44.0158 10.2301 44.7438 10.2513 45.4697 10.2322C45.8495 10.2195 46.1217 10.3469 46.3728 10.638C47.7169 12.1996 49.08 13.7442 50.4325 15.2994C50.6878 15.5947 50.9621 15.7753 51.3272 15.4991C51.6247 15.276 51.593 14.9425 51.2554 14.5537C50.2764 13.4298 49.2931 12.3101 48.314 11.1862H48.3161ZM43.2224 9.13377C42.773 9.13377 42.5725 8.88519 42.5747 8.43902C42.581 7.51694 42.5768 6.59698 42.5768 5.67489C42.5768 4.80168 42.5725 3.92846 42.5768 3.05524C42.5789 2.4476 42.7371 2.28825 43.3258 2.28825C44.6362 2.28613 45.9486 2.28825 47.259 2.28825C47.7211 2.28825 48.1726 2.35412 48.6136 2.48372C51.2554 3.26133 51.4664 5.796 50.403 7.39584C49.6687 8.50064 48.6052 9.07429 47.2949 9.11465C45.9381 9.15502 44.5792 9.1359 43.2203 9.13377H43.2224Z" fill="white"/>
<path d="M107.649 29.3516C107.026 28.6398 107.102 28.3339 107.989 28.062C108.761 27.824 109.423 27.4118 109.987 26.836C112.253 24.5245 111.635 20.8616 108.776 19.6825C108.067 19.3893 107.322 19.2597 106.556 19.2575C104.88 19.2554 103.205 19.2512 101.53 19.2512C100.859 19.2533 100.713 19.4063 100.713 20.1053C100.711 22.2193 100.713 24.3332 100.713 26.4451C100.713 28.557 100.711 30.7687 100.713 32.9295C100.713 33.4564 100.897 33.6986 101.274 33.6986C101.652 33.6986 101.831 33.4585 101.834 32.9295C101.836 31.6249 101.831 30.3225 101.836 29.0202C101.838 28.5102 102.013 28.336 102.517 28.3318C103.26 28.3275 104.003 28.3488 104.745 28.3233C105.129 28.3105 105.391 28.4423 105.642 28.7333C106.955 30.2588 108.286 31.7694 109.609 33.2843C109.662 33.3438 109.712 33.4054 109.765 33.4649C110.016 33.7389 110.314 33.8154 110.597 33.5583C110.881 33.3034 110.833 32.9953 110.588 32.717C109.609 31.5952 108.63 30.4734 107.649 29.3516ZM102.511 27.1972C102.011 27.1951 101.838 27.0166 101.836 26.5046C101.831 25.5974 101.834 24.6923 101.834 23.7872C101.834 22.8821 101.838 21.9452 101.831 21.0252C101.831 20.5939 102.034 20.3602 102.456 20.3645C103.973 20.3772 105.49 20.305 107.003 20.4091C107.286 20.4282 107.571 20.4728 107.841 20.5557C109.073 20.9296 109.995 21.6499 110.198 22.999C110.432 24.5563 109.786 25.7504 108.508 26.6066C107.917 27.0018 107.248 27.1887 106.539 27.193C105.195 27.2015 103.853 27.2015 102.511 27.1972Z" fill="white"/>
<path d="M64.4961 28.1406C65.9732 27.7475 67.0556 26.8573 67.7076 25.4699C68.7901 23.1668 67.8321 20.6194 65.5448 19.6803C64.9266 19.4254 64.2788 19.2767 63.6099 19.2703C61.791 19.2554 59.9722 19.2554 58.1533 19.2533C57.5793 19.2533 57.5055 19.334 57.5055 19.9268C57.5034 22.1045 57.5034 24.2823 57.5034 26.46C57.5034 28.6377 57.5097 30.8813 57.4992 33.0909C57.4971 33.5031 57.6321 33.7113 58.071 33.7071C58.5014 33.7071 58.6091 33.4734 58.6091 33.0994C58.6048 31.7163 58.6133 30.3332 58.6048 28.9501C58.6006 28.5124 58.7673 28.3127 59.2231 28.3254C60.0144 28.3467 60.8056 28.3445 61.5969 28.3233C61.9282 28.3148 62.154 28.4253 62.3692 28.676C63.6226 30.1271 64.8886 31.5697 66.1504 33.0145C66.296 33.1823 66.4374 33.3544 66.5956 33.5095C66.8488 33.7581 67.4038 33.7921 67.5852 33.5669C67.8406 33.2503 67.6317 33.0187 67.4249 32.7829C66.3466 31.5548 65.2726 30.3247 64.1986 29.0945C63.7555 28.5846 63.842 28.3148 64.4961 28.1406ZM63.0571 27.1994C61.7931 27.1972 60.5292 27.1994 59.2653 27.1972C58.7061 27.1972 58.6112 27.1038 58.6091 26.528C58.6048 25.608 58.607 24.6859 58.607 23.766C58.607 22.846 58.6112 21.8921 58.6048 20.9551C58.6027 20.5706 58.7504 20.3517 59.1598 20.3602C60.7381 20.3878 62.3206 20.2859 63.8969 20.4197C65.5195 20.5557 66.8193 21.6584 66.9986 23.016C67.2497 24.9005 65.9626 26.7065 64.0931 27.0995C63.7513 27.1718 63.4052 27.2015 63.0571 27.1994Z" fill="white"/>
<path d="M76.5256 0.616127C77.9499 0.707486 79.3805 1.07504 80.4946 2.23509C81.0622 2.82573 81.3724 3.53748 81.4462 4.36183C81.4716 4.64228 81.3787 4.72939 81.115 4.69964C80.9588 4.68265 80.7984 4.68477 80.6402 4.69964C80.425 4.71877 80.3321 4.64228 80.3131 4.41495C80.2287 3.47374 79.697 2.81298 78.9015 2.40293C77.0953 1.47447 75.2532 1.46173 73.4449 2.39231C72.508 2.8746 71.951 3.6692 71.9742 4.76551C71.9974 5.88093 72.6515 6.57143 73.6116 7.00911C74.7679 7.53389 76.017 7.76335 77.2303 8.10541C77.9288 8.303 78.6188 8.52396 79.2898 8.80441C82.0687 9.96657 82.0349 13.4807 80.0346 15.0062C78.0026 16.5571 74.2974 16.5805 72.2886 14.9934C71.4678 14.3433 70.9782 13.5104 70.8812 12.4503C70.8537 12.1422 70.9508 12.0466 71.2399 12.0891C71.3327 12.1039 71.4319 12.1039 71.5247 12.0891C71.8602 12.0317 71.9847 12.1613 72.0269 12.5076C72.1367 13.4021 72.6895 14.0203 73.4512 14.407C75.2469 15.3185 77.0742 15.3164 78.8699 14.4113C79.8363 13.9226 80.3617 13.094 80.3363 11.9871C80.311 10.8844 79.6463 10.2194 78.7074 9.79023C77.5363 9.25483 76.2703 9.02962 75.0422 8.68543C74.2974 8.47722 73.5567 8.25413 72.8604 7.91207C70.6132 6.80727 70.1532 3.86467 71.9489 2.10973C72.9596 1.12179 74.7194 0.533267 76.5298 0.620376L76.5256 0.616127Z" fill="white"/>
<path d="M95.9233 14.6004C93.9779 10.3767 92.0282 6.15293 90.0827 1.92919C89.9498 1.64024 89.8506 1.32154 89.4412 1.33217C89.0593 1.34492 88.9707 1.65723 88.8462 1.92706C88.0296 3.69262 87.2193 5.46243 86.407 7.23011C85.2633 9.71591 84.1176 12.2017 82.976 14.6875C82.7692 15.1401 82.8368 15.4269 83.1701 15.5799C83.4972 15.7307 83.7884 15.5905 83.9846 15.1656C84.529 13.9885 85.0755 12.8115 85.6073 11.6281C85.7507 11.3094 85.9364 11.1203 86.3141 11.1224C88.4179 11.1309 90.5195 11.1288 92.6211 11.1224C92.9692 11.1224 93.1739 11.2669 93.3111 11.5835C93.5537 12.1507 93.8217 12.7074 94.0791 13.2683C94.3914 13.9439 94.6995 14.6195 95.016 15.293C95.1468 15.5692 95.3832 15.6925 95.6807 15.616C95.936 15.5522 96.0774 15.3674 96.0795 15.0657C96.0879 14.9085 95.9951 14.7555 95.9233 14.6004ZM91.6315 10.1153C90.9056 10.1196 90.1798 10.1153 89.4539 10.1153C88.728 10.1153 88.0001 10.1217 87.2742 10.1132C86.6939 10.1068 86.4766 9.7754 86.7193 9.24C87.4493 7.62741 88.1942 6.02333 88.9285 4.41287C89.0424 4.16641 89.1859 3.97732 89.4876 3.98794C89.7683 3.99856 89.8928 4.18128 89.9983 4.41074C90.7389 6.01908 91.488 7.62316 92.2244 9.2315C92.4776 9.78178 92.2539 10.109 91.6315 10.1153Z" fill="white"/>
<path d="M98.8858 32.6363C96.9235 28.3679 94.9569 24.1017 92.9924 19.8333C92.8764 19.5826 92.7477 19.3511 92.4185 19.3489C92.064 19.3447 91.9332 19.589 91.8108 19.8567C91.469 20.6067 91.125 21.3546 90.7832 22.1003C89.169 25.6081 87.5569 29.1158 85.9448 32.6214C85.852 32.8233 85.7359 33.0209 85.8372 33.2546C85.9258 33.4585 86.0693 33.586 86.3014 33.6051C86.6243 33.6327 86.7931 33.4479 86.9155 33.1823C87.462 31.9883 88.0148 30.7985 88.5529 29.6002C88.709 29.256 88.9306 29.0967 89.3188 29.0988C91.374 29.1094 93.4292 29.1116 95.4823 29.0988C95.8895 29.0946 96.1195 29.256 96.2778 29.6257C96.6027 30.38 96.9593 31.1214 97.3033 31.8693C97.5227 32.3431 97.738 32.819 97.9637 33.2907C98.1009 33.5754 98.3478 33.6625 98.639 33.5818C98.9027 33.5116 99.0103 33.3077 99.0124 32.9826C99.0293 32.8891 98.9449 32.7659 98.8858 32.6363ZM94.5792 28.1045C93.8533 28.1194 93.1275 28.1087 92.4016 28.1087C91.6758 28.1087 90.9794 28.1172 90.2683 28.1066C89.6353 28.096 89.4222 27.7518 89.6881 27.1675C90.4013 25.5996 91.1271 24.0358 91.8403 22.4679C91.9585 22.2023 92.1041 21.9941 92.4227 22.0005C92.7181 22.0047 92.8553 22.2044 92.9692 22.4509C93.693 24.0295 94.4273 25.6059 95.1489 27.1888C95.4 27.7412 95.1827 28.0939 94.5792 28.1045Z" fill="white"/>
<path d="M46.6787 26.426C46.6787 24.2971 46.6787 22.1661 46.6787 20.0373C46.6787 19.402 46.8222 19.2575 47.4615 19.2575C49.9915 19.2575 52.5215 19.2554 55.0514 19.2575C55.6148 19.2575 55.9081 19.6336 55.695 20.0628C55.5494 20.3581 55.2772 20.3602 55.0029 20.3602C53.011 20.3602 51.0191 20.3602 49.0272 20.3602C47.7907 20.3602 47.7759 20.373 47.7759 21.6031C47.7759 22.5719 47.7759 23.5429 47.7759 24.5117C47.7759 25.2447 47.9131 25.3828 48.6221 25.3828C50.4409 25.3828 52.2577 25.3828 54.0766 25.3828C54.7286 25.3828 54.9944 25.5422 55.0029 25.9331C55.0113 26.3304 54.7328 26.5089 54.0977 26.5089C52.264 26.5089 50.4304 26.5089 48.5946 26.5089C47.9258 26.5089 47.7759 26.6512 47.7738 27.3098C47.7696 28.8034 47.7696 30.2971 47.7738 31.7928C47.7738 32.4429 47.9426 32.6086 48.5925 32.6086C50.6646 32.6086 52.7346 32.6086 54.8067 32.6086C54.9333 32.6086 55.0599 32.6086 55.1865 32.6108C55.5515 32.6214 55.7541 32.819 55.7414 33.178C55.7287 33.5116 55.5262 33.6922 55.1822 33.6943C54.4226 33.6943 53.6651 33.6943 52.9055 33.6943C51.0718 33.6943 49.2382 33.6943 47.4025 33.6943C46.8285 33.6943 46.6766 33.5414 46.6766 32.9592C46.6745 30.7815 46.6766 28.6037 46.6766 26.426H46.6787Z" fill="white"/>
<path d="M125.34 32.6639C123.381 28.4104 121.425 24.1569 119.467 19.9034C119.341 19.6272 119.229 19.3383 118.845 19.3425C118.461 19.3468 118.366 19.6421 118.239 19.9183C116.76 23.1371 115.279 26.3559 113.798 29.5747C113.314 30.6242 112.835 31.6738 112.35 32.7234C112.23 32.9868 112.188 33.2418 112.411 33.4691C112.589 33.6518 112.812 33.6497 113.03 33.5732C113.243 33.4989 113.314 33.2885 113.401 33.1037C113.928 31.9543 114.466 30.807 114.979 29.6512C115.148 29.2687 115.382 29.0966 115.811 29.1009C117.849 29.1158 119.887 29.1136 121.928 29.1009C122.333 29.0988 122.567 29.2602 122.725 29.6299C122.995 30.2694 123.299 30.8962 123.59 31.5293C123.863 32.1178 124.137 32.7042 124.413 33.2928C124.55 33.5838 124.789 33.6646 125.082 33.5923C125.348 33.5265 125.458 33.3268 125.481 33.0187C125.445 32.9252 125.399 32.7914 125.34 32.6639ZM121.046 28.1151C120.318 28.1278 119.592 28.1151 118.866 28.1151C118.14 28.1151 117.412 28.1236 116.686 28.1151C116.076 28.1044 115.859 27.7603 116.112 27.2057C116.842 25.608 117.581 24.0167 118.309 22.4211C118.423 22.1704 118.577 21.9834 118.868 21.9877C119.136 21.9919 119.286 22.1704 119.393 22.4041C120.13 24.0124 120.875 25.6186 121.605 27.2312C121.845 27.7603 121.626 28.1044 121.046 28.1151Z" fill="white"/>
<path d="M33.0183 19.9608C33.0288 19.6548 33.1744 19.4785 33.4276 19.4084C33.7125 19.3298 33.9362 19.4551 34.0543 19.7079C34.2632 20.1499 34.4447 20.6067 34.6367 21.0592C35.9196 24.0889 37.2004 27.1207 38.4833 30.1504C38.5698 30.3544 38.6353 30.5732 38.8526 30.6816C39.1775 30.8431 39.4729 30.6943 39.6586 30.2588C40.4267 28.4529 41.1884 26.6469 41.9544 24.841C42.6507 23.1944 43.3491 21.55 44.0454 19.9034C44.1784 19.589 44.3535 19.3319 44.7439 19.402C45.13 19.4721 45.2714 19.8545 45.0773 20.3135C44.2965 22.164 43.5074 24.0124 42.7245 25.863C41.718 28.2362 40.7094 30.6094 39.7093 32.9868C39.589 33.2736 39.4729 33.5626 39.11 33.5732C38.7133 33.586 38.5973 33.2715 38.4707 32.9719C36.6961 28.7758 34.9194 24.5797 33.147 20.3836C33.0858 20.2391 32.9972 20.0989 33.0204 19.9629L33.0183 19.9608Z" fill="white"/>
<path d="M70.4422 38.9358C70.1616 39.5137 69.8873 40.0958 69.5982 40.6695C69.5265 40.8118 69.518 41.0477 69.288 41.037C69.0918 41.0285 69.0833 40.8161 69.0179 40.6844C68.731 40.1043 68.4524 39.5201 68.0811 38.9485C68.0811 39.5647 68.0811 40.1787 68.0811 40.7948C68.0811 40.9223 68.0811 41.0498 68.0811 41.1751C68.079 41.2899 68.0726 41.4089 67.9123 41.4004C67.7435 41.3919 67.7709 41.2601 67.7709 41.156C67.7688 40.6312 67.7709 40.1086 67.7709 39.5838C67.7709 39.2502 67.7646 38.9167 67.7751 38.5831C67.7793 38.4599 67.7034 38.2835 67.9376 38.2602C68.1169 38.2432 68.2288 38.3005 68.309 38.4705C68.5579 39.0017 68.8196 39.5243 69.0833 40.0491C69.153 40.1851 69.1783 40.355 69.3577 40.4443C69.6657 39.8175 69.9717 39.1929 70.2755 38.5661C70.3599 38.3898 70.438 38.2049 70.6849 38.2644C70.9486 38.326 70.8326 38.5491 70.8347 38.6978C70.8474 39.4585 70.8474 40.2212 70.8347 40.9839C70.8326 41.1284 70.9486 41.4025 70.6701 41.3855C70.4127 41.3706 70.5351 41.1093 70.533 40.9627C70.5182 40.2977 70.5266 39.6305 70.5266 38.9634L70.4528 38.9337L70.4422 38.9358Z" fill="white"/>
<path d="M77.7009 41.5618C77.6101 41.4237 77.5067 41.5363 77.416 41.5852C77.0594 41.7721 76.7555 41.7169 76.4791 41.3748C76.5656 41.3281 76.6289 41.2941 76.6944 41.2601C77.4582 40.8585 77.7874 40.1171 77.5405 39.3586C77.3042 38.6319 76.5678 38.173 75.7976 38.2708C75.0169 38.3685 74.4408 38.9953 74.4092 39.775C74.3796 40.5781 74.8945 41.2261 75.7322 41.3748C75.9706 41.4173 76.1246 41.5278 76.2892 41.6787C76.688 42.042 77.1628 42.0972 77.5468 41.8444C77.6418 41.7806 77.8085 41.7254 77.7009 41.5618ZM75.9601 41.105C75.3186 41.0965 74.7236 40.4782 74.732 39.826C74.7383 39.1482 75.3502 38.564 76.036 38.581C76.7049 38.5958 77.2641 39.178 77.2556 39.8515C77.2493 40.5377 76.6543 41.1114 75.9601 41.105Z" fill="white"/>
<path d="M53.6103 38.2601C52.7072 38.2601 52.0046 38.9528 52.0088 39.843C52.013 40.7289 52.7283 41.4194 53.6293 41.4088C54.4902 41.3982 55.2077 40.6949 55.2224 39.8472C55.2372 38.9931 54.4923 38.2601 53.6103 38.2601ZM53.5892 41.1029C52.9541 41.1177 52.3464 40.5144 52.3316 39.8557C52.3169 39.1822 52.9161 38.5852 53.6061 38.5809C54.2729 38.5767 54.8468 39.1482 54.8553 39.8239C54.8637 40.5122 54.294 41.088 53.5892 41.1029Z" fill="white"/>
<path d="M16.3741 38.2602C15.4731 38.2729 14.781 38.9825 14.8021 39.8728C14.8232 40.7396 15.5216 41.4089 16.4036 41.4089C17.2835 41.4089 18.0221 40.678 18.0157 39.8175C18.0073 38.9571 17.2582 38.2474 16.3741 38.2602ZM16.3678 41.105C15.7284 41.1072 15.1249 40.4932 15.1249 39.8409C15.1228 39.1631 15.7263 38.5746 16.4163 38.581C17.0852 38.5874 17.6507 39.1653 17.6486 39.8388C17.6486 40.5271 17.0662 41.1008 16.3678 41.105Z" fill="white"/>
<path d="M103.346 38.2601C102.443 38.2601 101.741 38.9549 101.745 39.843C101.749 40.7289 102.464 41.4194 103.365 41.4088C104.228 41.3961 104.944 40.6949 104.959 39.8472C104.971 38.991 104.228 38.2601 103.346 38.2601ZM103.296 41.105C102.654 41.0965 102.059 40.4782 102.068 39.826C102.076 39.1461 102.686 38.564 103.372 38.5809C104.043 38.5958 104.6 39.178 104.591 39.8536C104.583 40.5377 103.99 41.1114 103.296 41.105Z" fill="white"/>
<path d="M115.825 38.2601C114.922 38.2367 114.201 38.9081 114.18 39.7962C114.158 40.6822 114.853 41.3939 115.754 41.4088C116.634 41.4237 117.378 40.7119 117.391 39.8451C117.404 39.0101 116.686 38.2814 115.825 38.2601ZM115.747 41.105C115.11 41.1092 114.507 40.4995 114.5 39.8451C114.496 39.1694 115.097 38.5767 115.787 38.5809C116.456 38.5852 117.024 39.1588 117.026 39.8345C117.028 40.5228 116.448 41.0986 115.747 41.105Z" fill="white"/>
<path d="M8.44243 40.7799C8.44243 39.9768 8.43821 39.2884 8.44665 38.5979C8.44665 38.4768 8.36225 38.2707 8.59858 38.275C8.82013 38.2792 8.75472 38.4768 8.75472 38.6043C8.76105 39.4308 8.76105 40.2551 8.75472 41.0816C8.75472 41.1963 8.81169 41.3514 8.63656 41.4003C8.46775 41.447 8.37702 41.3344 8.29051 41.2133C7.75455 40.4697 7.2186 39.7282 6.57503 38.9931C6.57503 39.5306 6.57503 40.0682 6.57503 40.6078C6.57503 40.799 6.57503 40.9881 6.57503 41.1793C6.57503 41.2941 6.56659 41.4131 6.40623 41.4046C6.23742 41.3961 6.26485 41.2622 6.26485 41.1581C6.26274 40.3019 6.26063 39.4435 6.26485 38.5873C6.26485 38.4768 6.19311 38.3175 6.3788 38.2729C6.53705 38.2346 6.64044 38.3111 6.73328 38.4407C7.18062 39.0738 7.63639 39.7027 8.09005 40.3316C8.17867 40.4548 8.27574 40.5696 8.44454 40.782L8.44243 40.7799Z" fill="white"/>
<path d="M57.8937 40.661C57.8937 39.9684 57.8895 39.2736 57.8979 38.581C57.8979 38.4578 57.8262 38.2581 58.0667 38.275C58.2566 38.2878 58.206 38.4578 58.206 38.5725C58.2102 39.399 58.2123 40.2233 58.206 41.0498C58.206 41.1752 58.2819 41.3536 58.0709 41.4025C57.9 41.4407 57.8156 41.3154 57.7312 41.1985C57.1953 40.457 56.6593 39.7134 56.0263 38.9868C56.0263 39.6582 56.0326 40.3317 56.0221 41.0031C56.02 41.1412 56.117 41.377 55.8849 41.3897C55.5937 41.4046 55.7203 41.1369 55.7182 40.9967C55.7056 40.2191 55.7056 39.4415 55.7182 38.6639C55.7182 38.53 55.6064 38.3303 55.8469 38.2687C56.0411 38.2198 56.1276 38.36 56.2204 38.4918C56.7458 39.2248 57.2733 39.9556 57.8008 40.6886L57.8937 40.6631V40.661Z" fill="white"/>
<path d="M120.064 40.6546C120.064 39.9726 120.06 39.2927 120.069 38.6107C120.069 38.4896 119.984 38.2878 120.208 38.275C120.438 38.2601 120.377 38.462 120.377 38.5895C120.383 39.4159 120.383 40.2403 120.377 41.0668C120.377 41.1815 120.44 41.3366 120.271 41.3939C120.107 41.4492 120.007 41.3451 119.921 41.2219C119.423 40.5271 118.921 39.8345 118.419 39.1418C118.376 39.0824 118.353 38.9953 118.197 38.9974C118.197 39.6709 118.203 40.3444 118.193 41.02C118.193 41.156 118.284 41.3897 118.039 41.3939C117.783 41.3982 117.889 41.1602 117.887 41.0285C117.876 40.2339 117.878 39.4414 117.887 38.6468C117.887 38.5215 117.798 38.343 117.988 38.2771C118.197 38.2028 118.298 38.36 118.402 38.5045C118.925 39.2353 119.45 39.9641 119.976 40.6928L120.064 40.6567V40.6546Z" fill="white"/>
<path d="M65.298 40.7013C65.298 39.9769 65.2937 39.2842 65.3022 38.5958C65.3022 38.4747 65.2199 38.2687 65.4583 38.275C65.6799 38.2814 65.6102 38.4811 65.6124 38.6065C65.6187 39.416 65.6187 40.2254 65.6124 41.0349C65.6124 41.1624 65.6904 41.3409 65.4921 41.3961C65.298 41.4513 65.2093 41.2962 65.1186 41.1688C64.5911 40.44 64.0657 39.7091 63.4348 38.9889C63.4348 39.6072 63.4474 40.2254 63.4263 40.8437C63.42 41.0307 63.5719 41.377 63.2596 41.3749C62.9811 41.3749 63.1309 41.0413 63.1267 40.8649C63.1077 40.1192 63.114 39.3735 63.1225 38.6277C63.1225 38.5045 63.0318 38.326 63.2385 38.2687C63.4263 38.2177 63.5213 38.3409 63.6184 38.4769C64.0488 39.0845 64.4835 39.69 64.9224 40.2892C65.0194 40.423 65.087 40.5909 65.3001 40.6992L65.298 40.7013Z" fill="white"/>
<path d="M21.989 38.5788C21.3665 38.088 20.6005 38.1688 19.9443 38.3302C19.6468 38.4025 19.8895 39.1036 19.8346 39.5158C19.8219 39.6263 19.8325 39.7389 19.8325 39.8493V40.2297C19.8325 41.0398 20.2383 41.4329 21.05 41.4088C21.8455 41.3854 22.4384 40.8883 22.5608 40.1022C22.6557 39.4967 22.4806 38.9655 21.989 38.5788ZM22.1303 40.3826C21.856 40.969 21.3538 41.122 20.7609 41.0923C20.353 41.0923 20.149 40.8869 20.149 40.4761C20.149 39.9535 20.1574 39.4329 20.1469 38.9103C20.1406 38.6659 20.2334 38.5746 20.4761 38.5746C21.0331 38.5703 21.6007 38.5363 21.9847 39.0462C22.2928 39.4542 22.3519 39.911 22.1303 40.3826Z" fill="white"/>
<path d="M14.015 40.1829C14.4286 39.8961 14.4138 39.4095 14.3146 38.9634C14.2281 38.5597 13.9116 38.343 13.5318 38.2962C13.1119 38.2453 12.6815 38.2707 12.2552 38.2623C12.1202 38.258 12.0505 38.3132 12.0527 38.4556V41.2197C12.0527 41.326 12.0801 41.4088 12.2109 41.4003C12.3375 41.3939 12.3607 41.3068 12.3628 41.2048C12.3628 41.0774 12.3776 40.9499 12.3628 40.8245C12.3291 40.5313 12.4536 40.4676 12.7363 40.4421C13.2216 40.3996 13.536 40.559 13.7597 40.9966C13.861 41.1964 13.9454 41.5108 14.3611 41.3557C14.2112 41.1326 14.0973 40.9456 13.9623 40.7714C13.7935 40.5526 13.6922 40.4081 14.015 40.1829ZM12.8967 40.1383C12.5422 40.1383 12.3649 39.8734 12.3649 39.3437C12.3649 38.8139 12.5513 38.5583 12.9241 38.5767C13.7154 38.5767 14.0403 38.7998 14.0446 39.3458C14.0467 39.911 13.7154 40.1404 12.8967 40.1383Z" fill="white"/>
<path d="M100.901 40.1829C101.314 39.8961 101.3 39.4095 101.201 38.9634C101.114 38.5597 100.797 38.343 100.418 38.2962C99.9978 38.2453 99.5673 38.2707 99.1411 38.2623C99.006 38.258 98.9364 38.3132 98.9385 38.4556V41.2197C98.9385 41.326 98.966 41.4088 99.0968 41.4003C99.2234 41.3939 99.2466 41.3068 99.2487 41.2048C99.2487 41.0774 99.2635 40.9499 99.2487 40.8245C99.2149 40.5313 99.3394 40.4676 99.6222 40.4421C100.107 40.3996 100.422 40.559 100.646 40.9966C100.747 41.1964 100.831 41.5108 101.247 41.3557C101.097 41.1326 100.983 40.9456 100.848 40.7714C100.679 40.5526 100.578 40.4081 100.901 40.1829ZM99.7825 40.1383C99.4281 40.1383 99.2508 39.8734 99.2508 39.3437C99.2508 38.8139 99.4372 38.5583 99.81 38.5767C100.601 38.5767 100.926 38.7998 100.93 39.3458C100.933 39.911 100.601 40.1404 99.7825 40.1383Z" fill="white"/>
<path d="M32.5815 41.1624C32.1954 40.2616 31.805 39.3607 31.421 38.4599C31.364 38.3282 31.288 38.2623 31.1382 38.2581C30.9694 38.2538 30.9293 38.3664 30.8787 38.4833C30.4651 39.4415 30.0515 40.3975 29.6359 41.3536C29.9249 41.4938 30.0136 41.3324 30.1106 41.122C30.1866 40.9584 30.1908 40.6844 30.3997 40.6674C30.8871 40.6291 31.3809 40.6121 31.8641 40.6652C32.1447 40.6971 32.1236 41.0625 32.2566 41.2665C32.2734 41.292 32.2798 41.3281 32.3009 41.3494C32.3768 41.4237 32.4823 41.428 32.5667 41.394C32.7018 41.3409 32.6153 41.241 32.5815 41.1624ZM31.5455 40.3338C30.4271 40.4443 30.4145 40.4358 30.8344 39.3947C30.9209 39.1801 31.0137 38.9677 31.1467 38.6447C31.3746 39.1993 31.5391 39.6263 31.7227 40.0449C31.8177 40.2552 31.7691 40.3126 31.5455 40.3338Z" fill="white"/>
<path d="M38.3736 41.1666C37.9854 40.2658 37.5971 39.3649 37.211 38.4641C37.1561 38.3324 37.0823 38.2623 36.9324 38.258C36.7658 38.2516 36.7214 38.3621 36.6708 38.479C36.2572 39.4372 35.8416 40.3933 35.428 41.3515C35.7128 41.4938 35.8036 41.3366 35.8985 41.1241C35.9745 40.9605 35.9829 40.6843 36.1855 40.6673C36.6708 40.627 37.1667 40.6142 37.6499 40.6652C37.9347 40.6949 37.9115 41.0583 38.0445 41.2622C38.0613 41.2877 38.0655 41.326 38.0867 41.3472C38.1626 41.4216 38.266 41.4258 38.3525 41.3961C38.4918 41.343 38.4074 41.2452 38.3736 41.1666ZM37.3798 40.3295H37.3312C36.215 40.4464 36.2024 40.4336 36.6265 39.3926C36.7151 39.178 36.7594 38.94 36.9683 38.7318C37.1624 39.2035 37.3439 39.6496 37.5317 40.0916C37.6056 40.2615 37.5486 40.3274 37.3798 40.3295Z" fill="white"/>
<path d="M73.0398 38.5682C72.9786 38.4301 72.9511 38.2665 72.7338 38.258C72.4848 38.2474 72.4721 38.4471 72.4067 38.5937C72.0522 39.4053 71.6999 40.2191 71.3559 41.0349C71.3116 41.1433 71.1238 41.292 71.3011 41.3876C71.4994 41.4938 71.6239 41.3281 71.6661 41.1411C71.7653 40.6907 72.0586 40.5909 72.47 40.6419C72.6705 40.6674 72.8815 40.6695 73.0841 40.6419C73.4407 40.5909 73.6453 40.7268 73.7466 41.071C73.8099 41.2877 73.8943 41.5108 74.2362 41.3494C73.8374 40.423 73.4407 39.4946 73.0398 38.5682ZM73.0988 40.3317C72.7697 40.3232 72.4405 40.3295 72.0628 40.3295C72.24 39.7559 72.4489 39.246 72.7338 38.6787C72.9385 39.1801 73.0988 39.605 73.2866 40.0193C73.3879 40.2446 73.3584 40.338 73.0988 40.3317Z" fill="white"/>
<path d="M122.641 38.479C122.588 38.3536 122.529 38.2687 122.373 38.258C122.181 38.2432 122.136 38.377 122.082 38.5066C121.71 39.3628 121.339 40.2191 120.974 41.0795C120.934 41.1751 120.782 41.3069 120.944 41.3897C121.117 41.4768 121.252 41.36 121.292 41.1815C121.396 40.6907 121.714 40.5781 122.162 40.6419C122.362 40.6695 122.575 40.6695 122.776 40.6397C123.101 40.593 123.27 40.7332 123.371 41.0285C123.438 41.2261 123.478 41.4917 123.884 41.3621C123.466 40.3933 123.052 39.4372 122.641 38.479ZM122.784 40.3295H121.67C121.904 39.7538 122.105 39.263 122.354 38.6511C122.586 39.2077 122.774 39.6582 122.964 40.1086C123.042 40.2977 122.932 40.3295 122.784 40.3295Z" fill="white"/>
<path d="M89.4898 41.071C89.1479 40.2551 88.7998 39.4414 88.4432 38.6319C88.3714 38.4726 88.3567 38.2516 88.0866 38.258C87.8376 38.2644 87.8397 38.4726 87.7743 38.6171C87.3734 39.5264 86.9788 40.44 86.5779 41.3642C86.8796 41.4874 86.9725 41.326 87.0632 41.1114C87.1286 40.9584 87.1497 40.6971 87.3143 40.6822C87.8123 40.6376 88.3229 40.6206 88.8209 40.6673C89.0804 40.6907 89.0825 41.0285 89.1817 41.2325C89.2619 41.3961 89.3864 41.4577 89.5172 41.3897C89.6902 41.2983 89.5299 41.1666 89.4898 41.071ZM88.4854 40.3338C87.737 40.4017 87.5049 40.0859 87.7891 39.3862C87.8756 39.1737 87.9178 38.9315 88.1309 38.736C88.3187 39.1907 88.4875 39.6263 88.6774 40.0533C88.7787 40.2806 88.69 40.3146 88.4854 40.3338Z" fill="white"/>
<path d="M47.5565 41.1177C47.1872 40.2445 46.8074 39.3734 46.4339 38.5002C46.3749 38.36 46.3137 38.258 46.1322 38.258C45.9634 38.258 45.9254 38.3706 45.8748 38.4853C45.4612 39.4414 45.0476 40.3975 44.632 41.3557C44.9231 41.4938 45.0118 41.3281 45.1088 41.1199C45.1848 40.9563 45.1869 40.6822 45.4 40.6673C45.8853 40.6291 46.3812 40.6121 46.8623 40.6652C47.1408 40.6971 47.1345 41.0561 47.2484 41.2707C47.3286 41.4216 47.4531 41.4386 47.5628 41.3918C47.7295 41.3196 47.5924 41.2006 47.5565 41.1177ZM46.5648 40.3295H45.4528C45.6891 39.7537 45.8874 39.2608 46.1364 38.651C46.3706 39.2077 46.5584 39.6602 46.7462 40.1107C46.8243 40.2998 46.7125 40.3295 46.5648 40.3295Z" fill="white"/>
<path d="M111.612 38.2602C111.804 38.2602 112.078 38.3303 112.335 38.462C112.432 38.5109 112.472 38.5767 112.418 38.6893C112.365 38.7956 112.31 38.8104 112.196 38.7658C111.918 38.6575 111.635 38.5449 111.325 38.6107C111.116 38.6553 110.915 38.7255 110.871 38.9655C110.822 39.2269 110.981 39.3905 111.196 39.4839C111.441 39.5923 111.698 39.6709 111.949 39.7644C112.342 39.911 112.597 40.1723 112.557 40.6206C112.521 41.0413 112.245 41.2495 111.856 41.3536C111.396 41.4768 110.985 41.3685 110.584 41.1433C110.441 41.0625 110.278 40.9712 110.396 40.7821C110.531 40.5633 110.635 40.7948 110.734 40.848C111.063 41.0264 111.396 41.1433 111.772 41.0243C111.977 40.9606 112.156 40.8671 112.177 40.6185C112.196 40.3805 112.074 40.2212 111.871 40.1298C111.671 40.0385 111.46 39.9726 111.251 39.8982C110.66 39.6858 110.419 39.399 110.476 38.9698C110.533 38.5342 110.919 38.2687 111.605 38.2559L111.612 38.2602Z" fill="white"/>
<path d="M97.4827 38.2729C97.1366 38.2431 96.7885 38.2729 96.4424 38.258C96.2208 38.2474 96.1343 38.3217 96.1428 38.5512C96.1554 38.9634 96.1449 39.3755 96.147 39.7877C96.147 40.2466 96.1449 40.7056 96.147 41.1645C96.147 41.2707 96.128 41.4024 96.2989 41.4003C96.4572 41.4003 96.4466 41.2792 96.4614 41.1687C96.493 40.9393 96.3432 40.6291 96.5521 40.5016C96.7273 40.3932 97.01 40.4634 97.2463 40.4549C97.3392 40.4506 97.4341 40.4506 97.527 40.4379C98.1684 40.338 98.4681 39.9619 98.4533 39.2799C98.4385 38.6872 98.1051 38.3239 97.4827 38.2729ZM96.9995 40.1383C96.6393 40.1383 96.4593 39.8762 96.4593 39.3522C96.4593 38.8281 96.6429 38.5696 97.01 38.5767C97.8055 38.5767 98.1283 38.7934 98.1389 39.3352C98.1494 39.9025 97.8118 40.1404 96.9995 40.1383Z" fill="white"/>
<path d="M34.5522 38.2729C34.2083 38.2431 33.8602 38.2729 33.5141 38.258C33.2904 38.2474 33.206 38.3217 33.2124 38.5533C33.2271 38.9804 33.2166 39.4074 33.2166 39.8345C33.2166 40.2615 33.2166 40.7226 33.2187 41.1645C33.2187 41.2707 33.1997 41.4024 33.3685 41.4003C33.5289 41.3982 33.5183 41.2771 33.5331 41.1666C33.5647 40.9393 33.4128 40.6291 33.6238 40.5016C33.799 40.3932 34.0817 40.4634 34.3159 40.4549C34.4109 40.4506 34.5058 40.4506 34.5987 40.4379C35.2401 40.338 35.5398 39.9619 35.5229 39.2799C35.5102 38.685 35.1747 38.3239 34.5522 38.2729ZM35.122 39.7304C34.9004 40.1532 34.4805 40.1255 33.9846 40.1489C33.569 40.27 33.4867 39.9789 33.5289 39.5604C33.5415 39.4499 33.5141 39.3352 33.5352 39.2289C33.5774 39.0144 33.3959 38.7318 33.6871 38.5937C33.9973 38.4471 34.8434 38.6086 35.0333 38.8423C35.2549 39.1121 35.2802 39.4244 35.122 39.7304Z" fill="white"/>
<path d="M3.50703 39.8281C3.50703 39.3989 3.51336 38.9698 3.50492 38.5406C3.5007 38.343 3.55767 38.2538 3.77078 38.258C4.26032 38.2686 4.75196 38.258 5.24149 38.2644C5.35544 38.2644 5.52635 38.224 5.50947 38.428C5.4947 38.6128 5.33223 38.5746 5.21617 38.5767C4.86801 38.5831 4.51985 38.5916 4.17169 38.5767C3.8995 38.564 3.82353 38.6787 3.81509 38.9421C3.79399 39.6964 3.78344 39.6943 4.52196 39.6943C4.74352 39.6943 4.96508 39.6943 5.18663 39.6964C5.28369 39.6964 5.38287 39.7134 5.37654 39.8472C5.37021 39.9768 5.27103 39.9896 5.17397 39.9917C4.84269 39.9938 4.5093 40.0151 4.17802 39.9917C3.76023 39.9598 3.80032 40.2403 3.82564 40.4889C3.84886 40.7311 3.65262 41.1135 4.16325 41.0986C4.54306 41.088 4.92287 41.0944 5.30268 41.0986C5.41874 41.0986 5.58121 41.0604 5.59176 41.2495C5.60442 41.4556 5.43351 41.4088 5.31957 41.411C4.81315 41.4152 4.30674 41.4046 3.80243 41.4173C3.57877 41.4237 3.49437 41.3515 3.5007 41.1199C3.51547 40.6907 3.50492 40.2615 3.50492 39.8324L3.50703 39.8281Z" fill="white"/>
<path d="M24.2045 41.4067C23.5054 41.4067 23.1558 41.0526 23.1558 40.3444C23.1558 39.7559 23.1664 39.1674 23.1516 38.581C23.1453 38.3303 23.2254 38.2474 23.4744 38.2559C23.9492 38.2729 24.424 38.258 24.8966 38.2623C25.0127 38.2623 25.1751 38.2283 25.1583 38.4322C25.1456 38.5895 25.0106 38.5725 24.905 38.5746C24.6202 38.5788 24.3311 38.6107 24.0526 38.5703C23.5441 38.496 23.3985 38.7233 23.4702 39.1844C23.4829 39.263 23.4765 39.3437 23.4702 39.4223C23.4533 39.6327 23.5546 39.7006 23.753 39.6943C24.0209 39.6836 24.2931 39.6709 24.559 39.7006C24.7173 39.7176 25.0106 39.554 25.0084 39.8536C25.0084 40.0916 24.732 39.9768 24.5801 39.9875C24.329 40.0066 24.0737 40.0066 23.8226 39.9875C23.5483 39.9683 23.4744 40.0873 23.466 40.3486C23.4428 41.0923 23.4322 41.0901 24.1539 41.0923C24.4535 41.0923 24.7552 41.0923 25.0549 41.0965C25.1561 41.0965 25.2427 41.1284 25.2469 41.2537C25.2511 41.3876 25.1583 41.4067 25.0591 41.4067C24.7742 41.4067 24.4894 41.4067 24.2045 41.4067Z" fill="white"/>
<path d="M61.3669 41.4088C60.6973 41.4088 60.3625 41.0717 60.3625 40.3975C60.3625 39.7941 60.3731 39.1886 60.3583 38.5852C60.352 38.3388 60.4237 38.2474 60.679 38.2559C61.1538 38.2729 61.6285 38.258 62.1012 38.2623C62.2173 38.2623 62.3797 38.2262 62.3671 38.4301C62.3565 38.5874 62.2215 38.5746 62.116 38.5746C61.7847 38.5789 61.4492 38.6001 61.12 38.5704C60.7529 38.5385 60.6326 38.6915 60.6769 39.0378C60.6917 39.1631 60.6875 39.2927 60.6769 39.4181C60.6642 39.6242 60.755 39.6985 60.9575 39.6922C61.2741 39.6815 61.5906 39.6815 61.9071 39.6922C62.0273 39.6964 62.2405 39.6114 62.2278 39.8451C62.2173 40.0597 62.0126 39.979 61.8881 39.9853C61.5885 39.996 61.2867 39.9981 60.9871 39.9853C60.7592 39.9769 60.6938 40.0767 60.6769 40.2934C60.6157 41.0732 60.6242 41.088 61.407 41.088C61.675 41.088 61.9451 41.088 62.213 41.0902C62.3228 41.0902 62.4472 41.0859 62.4536 41.2453C62.462 41.4152 62.3312 41.4025 62.2236 41.4025C61.9387 41.4046 61.6539 41.4025 61.369 41.4025L61.3669 41.4088Z" fill="white"/>
<path d="M92.1589 39.8388C92.1589 39.4096 92.1632 38.9804 92.1568 38.5512C92.1547 38.3643 92.1885 38.2538 92.4121 38.2581C92.9186 38.2687 93.425 38.2602 93.9293 38.2623C94.0369 38.2623 94.1698 38.2474 94.1656 38.4153C94.1614 38.5725 94.0369 38.5725 93.925 38.5746C93.5621 38.5767 93.1971 38.5874 92.8342 38.5746C92.5725 38.564 92.448 38.6532 92.4712 38.9294C92.4839 39.0718 92.486 39.2163 92.4712 39.3586C92.4396 39.6454 92.5788 39.7113 92.8342 39.6964C93.1486 39.6794 93.4672 39.69 93.7837 39.6943C93.8871 39.6943 94.0263 39.6709 94.0306 39.8366C94.0348 40.0002 93.9018 39.9896 93.7921 39.9917C93.4756 39.996 93.1591 40.0066 92.8426 39.9917C92.5873 39.979 92.4776 40.0534 92.467 40.3338C92.4375 41.0944 92.4248 41.0944 93.1844 41.0944C93.4693 41.0944 93.7541 41.0944 94.039 41.0965C94.1614 41.0965 94.2627 41.1305 94.2458 41.2835C94.231 41.4174 94.1234 41.4067 94.0327 41.4089C93.4946 41.411 92.9565 41.4025 92.4206 41.4152C92.2032 41.4195 92.1547 41.3217 92.1568 41.1284C92.1653 40.6992 92.1589 40.2701 92.1589 39.8409V39.8388Z" fill="white"/>
<path d="M107.915 39.826C107.915 39.3968 107.921 38.9676 107.913 38.5385C107.908 38.3387 107.968 38.2516 108.181 38.2559C108.67 38.2665 109.162 38.2559 109.651 38.2623C109.767 38.2623 109.936 38.224 109.919 38.4259C109.905 38.6107 109.742 38.5725 109.624 38.5746C109.276 38.581 108.928 38.5895 108.579 38.5746C108.307 38.5618 108.208 38.6766 108.229 38.94C108.242 39.0972 108.24 39.2587 108.229 39.4159C108.217 39.6199 108.303 39.7006 108.506 39.6943C108.837 39.6836 109.17 39.6879 109.502 39.6943C109.613 39.6964 109.791 39.6433 109.782 39.8451C109.774 40.0363 109.603 39.9853 109.489 39.9875C109.172 39.9938 108.856 40.0002 108.539 39.9875C108.316 39.979 108.244 40.0724 108.225 40.2934C108.164 41.071 108.172 41.0901 108.953 41.0901C109.221 41.0901 109.491 41.0901 109.759 41.0923C109.869 41.0923 109.993 41.0859 110.004 41.2452C110.014 41.4152 109.886 41.4046 109.776 41.4046C109.238 41.4046 108.7 41.3982 108.164 41.4088C107.936 41.4131 107.911 41.292 107.913 41.1114C107.919 40.6822 107.913 40.253 107.913 39.8239L107.915 39.826Z" fill="white"/>
<path d="M80.6718 39.3989C80.6718 39.6687 80.6823 39.9407 80.6718 40.2084C80.6359 40.952 80.1632 41.3982 79.4142 41.4067C78.6398 41.4152 78.1418 40.9626 78.1165 40.1999C78.0975 39.6433 78.1102 39.0866 78.1144 38.5321C78.1144 38.4131 78.0806 38.2538 78.2874 38.2729C78.4499 38.2877 78.4267 38.4216 78.4267 38.5257C78.4309 39.0505 78.4098 39.5753 78.4351 40.0979C78.4731 40.8819 79.0723 41.2877 79.7708 41.0328C80.2118 40.8713 80.3405 40.508 80.3553 40.0894C80.3721 39.5965 80.3553 39.1036 80.3637 38.6107C80.3658 38.4853 80.292 38.2877 80.5114 38.275C80.7519 38.2601 80.6675 38.4683 80.6718 38.5894C80.6844 38.8593 80.676 39.1291 80.676 39.3989H80.6718Z" fill="white"/>
<path d="M1.83367 41.411C1.18799 41.4174 0.597177 41.0009 0.379841 40.3848C0.143515 39.7134 0.34186 39.0059 0.886255 38.5874C1.40111 38.1901 2.13963 38.1518 2.66292 38.5109C2.7621 38.5789 2.97521 38.6299 2.87182 38.8147C2.7621 39.0165 2.63338 38.8444 2.51944 38.7828C1.91385 38.4493 1.28506 38.5449 0.896805 39.025C0.521215 39.4903 0.514885 40.1617 0.879925 40.6079C1.28717 41.1072 1.89486 41.2134 2.50256 40.8926C2.61439 40.8331 2.73256 40.6461 2.85705 40.8416C3.00264 41.0689 2.74944 41.1008 2.64182 41.173C2.40128 41.3324 2.12486 41.4089 1.83367 41.4089V41.411Z" fill="white"/>
<path d="M28.4141 41.4109C27.7684 41.4194 27.1755 41.003 26.9582 40.3869C26.7219 39.7176 26.9202 39.008 27.4604 38.5873C27.9752 38.1879 28.7137 38.1497 29.237 38.5087C29.3383 38.5767 29.5472 38.6277 29.4502 38.8125C29.3425 39.0165 29.2138 38.8465 29.0999 38.7849C28.4922 38.4514 27.8655 38.5427 27.4773 39.0229C27.1017 39.486 27.0932 40.1595 27.4562 40.6078C27.8634 41.1092 28.4732 41.2155 29.0788 40.8968C29.1885 40.8394 29.3067 40.6482 29.4354 40.8437C29.5852 41.071 29.3299 41.1029 29.2223 41.1751C28.9817 41.3345 28.7074 41.4131 28.4141 41.4131V41.4109Z" fill="white"/>
<path d="M40.0722 41.4109C39.4265 41.4109 38.842 40.9924 38.6268 40.372C38.3989 39.7134 38.5867 39.0292 39.11 38.6086C39.6164 38.2006 40.3507 38.1433 40.8846 38.4938C40.9943 38.5661 41.239 38.6149 41.1145 38.8274C41.0006 39.0229 40.8719 38.838 40.7601 38.7764C40.1798 38.4577 39.5594 38.5427 39.1691 38.9995C38.7724 39.4648 38.7597 40.1638 39.1395 40.6206C39.5552 41.1177 40.146 41.2155 40.7643 40.8862C40.8782 40.8267 40.9964 40.6525 41.1167 40.8543C41.2348 41.054 41.0238 41.0901 40.9225 41.1581C40.6672 41.3281 40.3802 41.4109 40.0722 41.4109Z" fill="white"/>
<path d="M49.3754 41.411C48.7297 41.4131 48.1431 40.9924 47.93 40.3741C47.6979 39.7006 47.9004 38.9953 48.4469 38.5788C48.966 38.1837 49.7045 38.1518 50.2236 38.5172C50.3228 38.5852 50.538 38.6341 50.4177 38.8253C50.2953 39.0186 50.1751 38.838 50.0632 38.7764C49.4809 38.4577 48.8626 38.5427 48.4722 38.9974C48.0734 39.4627 48.0587 40.1595 48.4406 40.6185C48.8542 41.1156 49.4492 41.2134 50.0632 40.8883C50.1751 40.8288 50.2953 40.6525 50.4177 40.8522C50.5401 41.0519 50.327 41.0901 50.2257 41.156C49.9704 41.326 49.6834 41.4088 49.3754 41.411Z" fill="white"/>
<path d="M105.543 39.8557C105.543 39.4584 105.558 39.0611 105.537 38.666C105.522 38.3749 105.583 38.2283 105.916 38.2538C106.292 38.2835 106.674 38.2495 107.052 38.2665C107.187 38.2729 107.427 38.1645 107.429 38.4046C107.434 38.6851 107.172 38.5533 107.024 38.5725C106.853 38.5937 106.676 38.5618 106.505 38.581C106.296 38.6043 105.999 38.4556 105.9 38.6936C105.781 38.9804 105.836 39.3203 105.881 39.6326C105.904 39.8047 106.068 39.7665 106.189 39.7686C106.474 39.7729 106.756 39.7686 107.041 39.7729C107.153 39.7729 107.275 39.7792 107.261 39.9428C107.248 40.0746 107.138 40.0661 107.047 40.0682C106.779 40.0724 106.509 40.0937 106.244 40.0639C105.914 40.03 105.83 40.1723 105.853 40.4719C105.872 40.7077 105.855 40.9478 105.853 41.1857C105.853 41.309 105.826 41.4088 105.67 41.3961C105.537 41.3833 105.543 41.2792 105.541 41.1857C105.541 40.7417 105.541 40.2977 105.541 39.8536L105.543 39.8557Z" fill="white"/>
<path d="M124.333 39.7878C124.333 39.3607 124.333 38.9315 124.333 38.5045C124.333 38.3983 124.314 38.2708 124.483 38.2644C124.664 38.2559 124.683 38.3749 124.683 38.513C124.683 39.2099 124.7 39.9089 124.677 40.6036C124.664 40.952 124.761 41.105 125.124 41.0625C125.342 41.037 125.565 41.0583 125.785 41.0625C125.909 41.0625 126 41.1135 126 41.2559C126 41.3855 125.911 41.4088 125.81 41.411C125.384 41.411 124.96 41.4088 124.534 41.411C124.316 41.411 124.333 41.2601 124.331 41.1178C124.331 40.6737 124.331 40.2297 124.331 39.7878H124.333Z" fill="white"/>
<path d="M82.6637 39.9429C82.6637 39.4181 82.6573 39.0059 82.6679 38.5937C82.67 38.4726 82.5877 38.275 82.8198 38.2665C83.0794 38.258 83.0118 38.4705 83.0118 38.6129C83.0182 39.2949 83.0266 39.9769 83.0097 40.6567C83.0013 40.9669 83.1026 41.0902 83.4148 41.0625C83.6343 41.0434 83.8559 41.0583 84.0774 41.0604C84.2125 41.0604 84.3391 41.0859 84.3327 41.2623C84.3285 41.428 84.1977 41.4067 84.0901 41.4131C84.0584 41.4131 84.0268 41.4131 83.9951 41.4131C83.5731 41.4025 82.9464 41.5576 82.7713 41.3409C82.4632 40.9606 82.7185 40.3444 82.6637 39.9429Z" fill="white"/>
<path d="M91.3022 39.5519C91.3022 39.9004 91.317 40.2509 91.298 40.5972C91.2811 40.9329 91.1503 41.2134 90.8064 41.3409C90.4308 41.4811 90.0932 41.4025 89.7893 41.156C89.688 41.0753 89.5952 40.9839 89.7028 40.8394C89.8146 40.6886 89.8822 40.8224 89.9687 40.8756C90.5933 41.2601 90.9477 41.0753 90.9815 40.3295C91.0026 39.8706 90.9731 39.4096 90.9942 38.9507C91.0068 38.6532 90.8844 38.5852 90.6059 38.564C90.3696 38.547 89.9328 38.7446 89.9286 38.4216C89.9244 38.0753 90.359 38.2793 90.5869 38.2687C91.3065 38.2368 91.3086 38.2559 91.3086 38.9783V39.5498H91.3043L91.3022 39.5519Z" fill="white"/>
<path d="M84.8475 39.8515C84.8475 39.4245 84.8433 38.9974 84.8497 38.5704C84.8497 38.445 84.7885 38.2559 85.0248 38.2665C85.2463 38.2772 85.1957 38.4578 85.1957 38.5874C85.1999 39.2672 85.2126 39.9492 85.1915 40.6291C85.1809 40.9542 85.2759 41.0987 85.6156 41.0625C85.8329 41.0413 86.0566 41.0583 86.276 41.0625C86.4005 41.0647 86.4892 41.1135 86.4849 41.258C86.4807 41.3855 86.3921 41.4089 86.2908 41.4089C85.8815 41.4089 85.4721 41.4046 85.0628 41.4131C84.8518 41.4174 84.8433 41.2878 84.8454 41.1348C84.8475 40.7077 84.8454 40.2807 84.8454 39.8536L84.8475 39.8515Z" fill="white"/>
<path d="M10.2465 39.962C10.2465 39.7878 10.2487 39.6135 10.2465 39.4393C10.2423 39.1865 10.3141 38.8912 10.2065 38.6915C10.0756 38.4471 9.74857 38.6192 9.51013 38.5789C9.3983 38.5597 9.27592 38.564 9.28014 38.4068C9.28647 38.241 9.42151 38.2644 9.52701 38.2644C10.1263 38.2623 10.7276 38.2623 11.3269 38.2644C11.4324 38.2644 11.5632 38.2432 11.5653 38.4131C11.5653 38.5725 11.4472 38.564 11.3353 38.581C11.0927 38.615 10.7783 38.4577 10.6179 38.6766C10.4618 38.889 10.5694 39.1992 10.5631 39.4669C10.5525 39.9747 10.5694 40.4825 10.5546 40.9903C10.5504 41.1348 10.6707 41.4004 10.3858 41.394C10.1431 41.3876 10.2571 41.1475 10.2508 41.0137C10.2339 40.6652 10.2444 40.3147 10.2444 39.9662L10.2465 39.962Z" fill="white"/>
<path d="M43.5622 39.9875C43.5622 39.6539 43.539 39.3182 43.5685 38.9889C43.598 38.6405 43.4567 38.5321 43.1359 38.5767C43.0283 38.5916 42.9144 38.5789 42.8046 38.5767C42.7076 38.5725 42.6105 38.5597 42.6 38.4344C42.5852 38.2687 42.7076 38.2665 42.8194 38.2665C43.4356 38.2665 44.0517 38.2665 44.6657 38.2665C44.7818 38.2665 44.8957 38.2708 44.8809 38.4365C44.8704 38.5661 44.7754 38.5682 44.6784 38.581C44.4315 38.6107 44.115 38.4663 43.9546 38.6617C43.7626 38.8954 43.8934 39.2417 43.8829 39.5371C43.8681 39.996 43.8913 40.457 43.8723 40.9181C43.866 41.0817 43.9968 41.3749 43.7289 41.3876C43.4166 41.4025 43.5875 41.0987 43.5727 40.9436C43.5432 40.6291 43.5643 40.3104 43.5643 39.9917L43.5622 39.9875Z" fill="white"/>
<path d="M113.578 39.8451C113.578 40.2573 113.582 40.6674 113.576 41.0795C113.576 41.2091 113.629 41.3897 113.409 41.4046C113.171 41.4216 113.23 41.2325 113.228 41.1071C113.224 40.253 113.224 39.399 113.228 38.5449C113.228 38.4301 113.181 38.2708 113.384 38.2665C113.608 38.2602 113.576 38.4301 113.578 38.5661C113.582 38.9932 113.578 39.4202 113.578 39.8472V39.8451Z" fill="white"/>
<path d="M81.4293 39.7942C81.4293 39.3671 81.4293 38.9401 81.4293 38.513C81.4293 38.4089 81.4019 38.2772 81.5686 38.2644C81.7416 38.2496 81.7796 38.3579 81.7796 38.5024C81.7796 39.3883 81.7796 40.2722 81.7796 41.1582C81.7796 41.2941 81.7627 41.4174 81.5812 41.4067C81.3808 41.394 81.4335 41.2346 81.4314 41.122C81.4251 40.6801 81.4293 40.2361 81.4293 39.7942Z" fill="white"/>
<path d="M42.2013 39.8812C42.2013 40.2913 42.2013 40.7034 42.2013 41.1135C42.2013 41.2558 42.2139 41.4173 41.9966 41.4024C41.7961 41.3897 41.8531 41.2261 41.851 41.1135C41.8468 40.2594 41.8468 39.4053 41.851 38.5533C41.851 38.4429 41.794 38.2771 41.9945 38.2644C42.2118 38.2495 42.1991 38.411 42.1991 38.5533C42.1991 38.9953 42.1991 39.4393 42.1991 39.8812H42.2013Z" fill="white"/>
<path d="M51.4095 39.8451C51.4095 40.2573 51.4137 40.6674 51.4074 41.0795C51.4074 41.2091 51.4601 41.3897 51.2407 41.4046C51.0022 41.4216 51.0613 41.2325 51.0592 41.1071C51.055 40.253 51.055 39.399 51.0592 38.5449C51.0592 38.4301 51.0128 38.2708 51.2154 38.2665C51.439 38.2602 51.4074 38.4301 51.4095 38.5661C51.4137 38.9932 51.4095 39.4202 51.4095 39.8472V39.8451Z" fill="white"/>
<path d="M54.2222 37.4528C53.9543 37.6334 53.815 37.9245 53.4204 37.8565C53.6462 37.6185 53.7074 37.1851 54.2222 37.4528Z" fill="white"/>
<path d="M64.3272 8.47089C64.3272 10.0197 63 11.3391 61.4407 11.3413C59.837 11.3455 58.5583 10.0644 58.5541 8.44964C58.5478 6.82644 59.8138 5.53679 61.4153 5.53254C63.0274 5.52829 64.3272 6.83918 64.3272 8.47089Z" fill="white"/>
<path d="M64.3272 8.47089C64.3272 10.0197 63 11.3391 61.4407 11.3413C59.837 11.3455 58.5583 10.0644 58.5541 8.44964C58.5478 6.82644 59.8138 5.53679 61.4153 5.53254C63.0274 5.52829 64.3272 6.83918 64.3272 8.47089Z" fill="#D44AB5"/>
</g>
<defs>
<clipPath id="clip0_255_4231">
<rect width="126" height="42" fill="white"/>
</clipPath>
</defs>
</svg>
