<svg width="20" height="19" viewBox="0 0 20 19" fill="none" xmlns="http://www.w3.org/2000/svg">
<path d="M13.0432 13.5849C14.6514 13.5849 15.9551 12.3171 15.9551 10.7531C15.9551 9.18921 14.6514 7.92139 13.0432 7.92139C11.435 7.92139 10.1312 9.18921 10.1312 10.7531C10.1312 12.3171 11.435 13.5849 13.0432 13.5849Z" stroke="white" stroke-width="2" stroke-linecap="round" stroke-linejoin="round"/>
<path d="M11.1019 13.113V17.3607L13.0432 15.9448L14.9845 17.3607V13.113" stroke="white" stroke-width="2" stroke-linecap="round" stroke-linejoin="round"/>
<path d="M8.18994 14.5288H3.33669C2.82182 14.5288 2.32804 14.3299 1.96398 13.9759C1.59992 13.6219 1.39539 13.1417 1.39539 12.641V3.2018C1.39539 2.16349 2.26897 1.31396 3.33669 1.31396H16.9258C17.4407 1.31396 17.9344 1.51286 18.2985 1.8669C18.6626 2.22094 18.8671 2.70112 18.8671 3.2018V12.641C18.8668 12.972 18.7769 13.2972 18.6065 13.5838C18.4362 13.8704 18.1913 14.1084 17.8965 14.274M4.30734 5.08964H15.9552M4.30734 7.9214H7.21929M4.30734 10.7532H6.24864" stroke="white" stroke-width="2" stroke-linecap="round" stroke-linejoin="round"/>
</svg>
