<svg width="194" height="51" viewBox="0 0 194 51" fill="none" xmlns="http://www.w3.org/2000/svg">
<path fill-rule="evenodd" clip-rule="evenodd" d="M0 25.2047C0 11.3976 11.1929 0 25 0H169C182.807 0 194 11.3976 194 25.2047V25.2047C194 39.0118 182.807 50.4095 169 50.4095H25C11.1929 50.4095 0 39.0118 0 25.2047V25.2047Z" fill="#CC2229"/>
<path fill-rule="evenodd" clip-rule="evenodd" d="M18.31 25.1091C17.3332 23.5531 17.1216 21.4834 17.1216 19.8964C17.1216 14.4914 21.9271 9.92908 26.9346 9.92908H42.6266L36.5371 16.1019H26.8283C22.9242 16.1008 18.2037 20.0769 18.31 25.1091V25.1091ZM24.2943 20.6845C24.6971 19.3837 25.9599 17.722 27.1493 16.8463C24.8768 16.8463 22.3204 17.9356 20.3689 20.6845H24.2943ZM27.4342 17.6152C26.5434 18.4044 25.5666 19.5973 25.0681 20.6845H29.779C29.2805 19.5973 28.3037 18.4044 27.4342 17.6152ZM19.9756 21.4844C19.3931 22.5406 19.1061 23.7346 18.9998 24.9286H23.4035C23.4035 23.7346 23.6161 22.5406 24.0073 21.4844H19.9756V21.4844ZM24.7705 21.4844C24.3783 22.5406 24.1976 23.7346 24.0913 24.9286H30.7548C30.6485 23.7346 30.4678 22.5406 30.0756 21.4844H24.7705V21.4844ZM34.3942 20.6845C32.5267 17.9356 29.9693 16.8463 27.7307 16.8463C28.8872 17.7209 30.0756 19.3837 30.5741 20.6845H34.3942ZM30.8611 21.4844C31.2639 22.5406 31.4435 23.7346 31.4435 24.9286H35.8473C35.7729 23.7346 35.4763 22.5406 34.8715 21.4844H30.8611ZM20.3678 29.7462C22.3194 32.6147 24.8757 33.5951 27.1482 33.5951C25.9588 32.6895 24.6961 31.0256 24.2932 29.7462H20.3678V29.7462ZM27.4342 32.902C28.3037 32.1138 29.2805 30.8323 29.779 29.7462H25.0681C25.5666 30.8323 26.5424 32.1138 27.4342 32.902V32.902ZM24.0062 29.0637C23.6151 27.8708 23.4025 26.6961 23.4025 25.6196H18.9988C19.1051 26.7815 19.392 27.9766 19.9745 29.0637H24.0062V29.0637ZM30.0756 29.0637C30.4678 27.9766 30.6485 26.7815 30.7548 25.6196H24.0913C24.1976 26.7815 24.3783 27.9766 24.7705 29.0637H30.0756V29.0637ZM30.5741 29.7462C30.0756 31.0245 28.8872 32.6895 27.7307 33.5951C29.9693 33.5951 32.5267 32.6147 34.3942 29.7462H30.5741ZM34.8715 29.0637C35.4763 27.9766 35.7729 26.7815 35.8473 25.6196H31.4435C31.4435 26.6961 31.2639 27.8698 30.8611 29.0637H34.8715ZM36.536 25.2159C36.6434 30.4393 31.9431 34.3833 28.0167 34.3833H18.31L12.2205 40.4803H27.9125C32.921 40.4803 37.7255 35.9521 37.7255 30.5471C37.7255 28.958 37.5352 26.8883 36.5371 25.3216V25.2159H36.536ZM82.41 33.5737C78.3315 33.5737 75.4127 31.1142 75.4127 27.2642C75.4127 23.4612 78.4378 20.9312 82.41 20.9312C86.3811 20.9312 89.4051 23.4452 89.4051 27.2642C89.4062 31.1142 86.4619 33.5737 82.41 33.5737V33.5737ZM152.123 21.2249V33.3196H148.057L147.994 32.101H147.907C147.454 32.5079 146.515 33.5866 143.894 33.5866C140.986 33.5866 138.436 31.048 138.436 27.26C138.436 23.7474 140.697 20.943 144.162 20.943C146.518 20.943 147.479 21.9864 147.841 22.3196H147.951L147.991 21.2249H152.123V21.2249ZM120.728 21.2302V33.326H116.661L116.598 32.1053H116.511C116.06 32.5143 115.12 33.593 112.498 33.593C109.59 33.593 107.042 31.0523 107.042 27.2685C107.042 23.7538 109.301 20.9494 112.766 20.9494C115.123 20.9494 116.086 21.9938 116.447 22.326H116.556L116.597 21.2302H120.728V21.2302ZM100.968 21.2399H105.165V33.3441H100.968V21.2399ZM123.431 33.3153V16.26H127.61V22.1049H127.656C127.95 21.9202 129.304 20.9451 131.291 20.9451C134.546 20.9451 136.937 23.5723 136.937 27.0517C136.937 31.3962 134.284 33.5866 131.263 33.5866C128.98 33.5866 127.819 32.5186 127.532 32.2078H127.467L127.406 33.3153H123.431V33.3153ZM82.41 30.5471C84.1107 30.5471 85.1109 29.0499 85.1109 27.2642C85.1109 25.454 84.1585 23.9557 82.41 23.9557C80.5817 23.9557 79.708 25.454 79.708 27.2642C79.708 29.0499 80.7103 30.5471 82.41 30.5471ZM98.9375 30.0292C98.7323 30.0858 98.1668 30.231 97.7799 30.231C96.9307 30.231 96.0038 29.8327 96.0038 28.3536V24.2665H98.6377V21.2249H96.0038V17.3301H91.8158V21.2249H89.9844V24.2665H91.8158V29.0509C91.8158 31.6813 93.0318 33.5673 96.1292 33.5673C97.0284 33.5673 97.8544 33.4467 98.4209 33.3377L98.9375 30.0292V30.0292ZM51.3171 32.8764C52.4874 33.2331 54.2668 33.5609 56.1545 33.5609C59.7281 33.5609 63.2942 32.289 63.2942 28.3461C63.2942 22.9358 55.8697 23.6844 55.8697 21.5282C55.8697 20.4239 57.0113 20.1869 58.1305 20.1869C59.6803 20.1869 61.6446 20.9344 62.0804 21.1128L62.4173 17.3867C61.3342 17.0161 59.6888 16.8068 58.1444 16.8068C54.6165 16.8068 51.1343 18.1898 51.1343 21.7012C51.1343 27.0175 58.5398 25.9079 58.5398 28.6964C58.5398 29.7686 57.4726 30.1776 56.1131 30.1776C54.2445 30.1776 52.4874 29.2368 51.7274 28.8971L51.3171 32.8764ZM142.868 27.1489C142.868 29.1492 143.981 30.3987 145.419 30.3987C146.724 30.3987 147.992 29.1727 147.992 27.3134C147.992 25.4391 146.866 24.1565 145.419 24.1565C143.921 24.1575 142.868 25.501 142.868 27.1489V27.1489ZM111.475 27.1553C111.475 29.1556 112.585 30.4051 114.024 30.4051C115.328 30.4051 116.598 29.1791 116.598 27.3198C116.598 25.4466 115.472 24.1639 114.024 24.1639C112.527 24.165 111.475 25.5074 111.475 27.1553V27.1553ZM74.3455 21.4171C74.033 21.3285 72.8829 20.9323 71.3587 20.9323C67.5864 20.9323 64.759 23.3042 64.759 27.2557C64.759 30.8451 67.2972 33.578 71.1907 33.578C72.8489 33.578 74.0681 33.1338 74.3455 33.0504L74.1414 29.523C73.8194 29.6693 72.9828 30.1509 72.0209 30.1509C70.3319 30.1509 69.0978 28.9473 69.0978 27.2557C69.0978 25.4786 70.4191 24.3348 72.0709 24.3348C73.002 24.3348 73.8321 24.7705 74.1425 24.9243L74.3455 21.4171V21.4171ZM169.967 33.3271H174.142V27.7288H174.188L177.895 33.3271H182.543L178.067 26.915L182.431 21.2473H177.789L174.187 26.2326H174.141V16.2738H169.966V33.3271H169.967V33.3271ZM154.833 33.3249H158.906V27.0773C158.906 25.6132 159.871 24.6103 161.108 24.6103C162.518 24.6103 163.319 25.5309 163.319 27.0773V33.3249H167.392V26.0436C167.392 23.3021 165.636 20.9558 162.414 20.9558C160.261 20.9558 159.14 22.1305 158.628 22.594H158.543L158.502 21.2548H154.832V33.3249H154.833ZM103.069 15.1119C102.446 15.1141 101.848 15.364 101.407 15.8069C100.966 16.2498 100.717 16.8499 100.715 17.4764C100.715 18.7718 101.775 19.8376 103.069 19.8376C103.692 19.8348 104.288 19.5851 104.728 19.1429C105.168 18.7007 105.416 18.1017 105.419 17.4764C105.417 16.8506 105.168 16.2511 104.728 15.8084C104.288 15.3656 103.692 15.1153 103.069 15.1119ZM132.603 27.2685C132.603 25.6495 131.683 24.2131 130.085 24.2131C128.677 24.2131 127.545 25.4199 127.545 27.2685C127.545 29.0584 128.473 30.3325 130.085 30.3325C131.54 30.3325 132.603 29.1161 132.603 27.2685Z" fill="white"/>
</svg>
